<svg id="Capa_1" data-name="Capa 1" xmlns="http://www.w3.org/2000/svg" viewBox="0 0 1080 1080"><defs><style>.cls-1{fill:#54696f;}.cls-2{fill:#9b9b9b;stroke:#595959;stroke-miterlimit:10;stroke-width:4px;}.cls-3{fill:#253133;}</style></defs><rect class="cls-1" x="541.86" y="409.43" width="20.94" height="213.88"/><path class="cls-2" d="M552.33,681.16h0c-10.6,0-19.19-7.25-19.19-16.19v-47.6c0-4.07,3.91-7.37,8.74-7.37h20.9c4.83,0,8.74,3.3,8.74,7.37V665C571.52,673.91,562.93,681.16,552.33,681.16Z"/><path class="cls-3" d="M541.68,668.18c-.95,0-1.71-.5-1.71-1.12V633c0-.62.76-1.13,1.71-1.13s1.7.51,1.7,1.13v34C543.38,667.68,542.62,668.18,541.68,668.18Z"/><path class="cls-3" d="M552.33,673.29c-.94,0-1.71-.57-1.71-1.28V633.18c0-.7.77-1.28,1.71-1.28s1.7.58,1.7,1.28V672C554,672.72,553.27,673.29,552.33,673.29Z"/><path class="cls-3" d="M563,668.18c-.94,0-1.7-.5-1.7-1.12V633c0-.62.76-1.13,1.7-1.13s1.7.51,1.7,1.13v34C564.68,667.68,563.92,668.18,563,668.18Z"/></svg>