<svg xmlns="http://www.w3.org/2000/svg" viewBox="0 0 1080 1080"><defs><style>.cls-1{isolation:isolate;}.cls-2,.cls-3{fill:#00beff;}.cls-3{mix-blend-mode:screen;}</style></defs><g class="cls-1"><g id="Capa_1" data-name="Capa 1"><path class="cls-2" d="M376.07,283.37l12.42,136.4c.5,5.42,5.36,9.58,11.2,9.58H685.55c5.84,0,10.71-4.16,11.2-9.58l12.42-136.4Z"/><ellipse class="cls-3" cx="692.56" cy="385.09" rx="1.67" ry="1.6"/><path class="cls-3" d="M675.58,406.24a1.5,1.5,0,1,1,1.5,1.43A1.47,1.47,0,0,1,675.58,406.24Z"/><path class="cls-3" d="M673.82,385.09a3.26,3.26,0,1,1,3.26,3.11A3.19,3.19,0,0,1,673.82,385.09Z"/><path class="cls-3" d="M654.6,378.63a2.86,2.86,0,1,1,2.85,2.73A2.79,2.79,0,0,1,654.6,378.63Z"/><path class="cls-3" d="M649.92,412.54a1.36,1.36,0,1,1,1.35,1.3A1.32,1.32,0,0,1,649.92,412.54Z"/><path class="cls-3" d="M682.46,417.2a3.38,3.38,0,1,1,3.38,3.23A3.3,3.3,0,0,1,682.46,417.2Z"/><ellipse class="cls-3" cx="425.69" cy="385.09" rx="1.67" ry="1.6"/><path class="cls-3" d="M408.72,406.24a1.5,1.5,0,1,1,1.5,1.43A1.47,1.47,0,0,1,408.72,406.24Z"/><path class="cls-3" d="M407,385.09a3.26,3.26,0,1,1,3.26,3.11A3.19,3.19,0,0,1,407,385.09Z"/><path class="cls-3" d="M387.73,378.63a2.86,2.86,0,1,1,2.86,2.73A2.8,2.8,0,0,1,387.73,378.63Z"/><path class="cls-3" d="M415.6,417.2a3.38,3.38,0,1,1,3.37,3.23A3.3,3.3,0,0,1,415.6,417.2Z"/><path class="cls-3" d="M473,385.09a1.68,1.68,0,1,1,1.68,1.6A1.64,1.64,0,0,1,473,385.09Z"/><path class="cls-3" d="M457.72,406.24a1.5,1.5,0,1,1,1.5,1.43A1.47,1.47,0,0,1,457.72,406.24Z"/><ellipse class="cls-3" cx="459.22" cy="385.09" rx="3.26" ry="3.11"/><path class="cls-3" d="M436.74,378.63a2.86,2.86,0,1,1,2.85,2.73A2.79,2.79,0,0,1,436.74,378.63Z"/><path class="cls-3" d="M432.05,412.54a1.36,1.36,0,1,1,1.36,1.3A1.33,1.33,0,0,1,432.05,412.54Z"/><path class="cls-3" d="M464.6,417.2a3.38,3.38,0,1,1,3.37,3.23A3.3,3.3,0,0,1,464.6,417.2Z"/><path class="cls-3" d="M496.57,380.19a1.6,1.6,0,1,1,1.67-1.6A1.64,1.64,0,0,1,496.57,380.19Z"/><path class="cls-3" d="M518.71,394.81a1.44,1.44,0,1,1,1.5-1.43A1.47,1.47,0,0,1,518.71,394.81Z"/><path class="cls-3" d="M496.57,396.49a3.12,3.12,0,1,1,3.26-3.11A3.19,3.19,0,0,1,496.57,396.49Z"/><ellipse class="cls-3" cx="489.8" cy="412.13" rx="2.86" ry="2.73"/><path class="cls-3" d="M525.3,419.33a1.3,1.3,0,1,1,1.36-1.29A1.32,1.32,0,0,1,525.3,419.33Z"/><path class="cls-3" d="M530.18,388.24a3.23,3.23,0,1,1,3.37-3.23A3.31,3.31,0,0,1,530.18,388.24Z"/><ellipse class="cls-3" cx="582.17" cy="385.09" rx="1.67" ry="1.6"/><path class="cls-3" d="M565.19,406.24a1.5,1.5,0,1,1,1.5,1.43A1.47,1.47,0,0,1,565.19,406.24Z"/><ellipse class="cls-3" cx="566.69" cy="385.09" rx="3.26" ry="3.11"/><path class="cls-3" d="M544.21,378.63a2.86,2.86,0,1,1,2.85,2.73A2.79,2.79,0,0,1,544.21,378.63Z"/><ellipse class="cls-3" cx="540.88" cy="412.54" rx="1.36" ry="1.3"/><path class="cls-3" d="M572.07,417.2a3.38,3.38,0,1,1,3.38,3.23A3.3,3.3,0,0,1,572.07,417.2Z"/><path class="cls-3" d="M597.74,411.24a1.68,1.68,0,1,1-1.68-1.6A1.64,1.64,0,0,1,597.74,411.24Z"/><path class="cls-3" d="M613,390.08a1.5,1.5,0,1,1-1.5-1.43A1.47,1.47,0,0,1,613,390.08Z"/><ellipse class="cls-3" cx="611.54" cy="411.24" rx="3.26" ry="3.11"/><path class="cls-3" d="M634,417.7a2.86,2.86,0,1,1-2.85-2.73A2.79,2.79,0,0,1,634,417.7Z"/><path class="cls-3" d="M638.71,383.78a1.36,1.36,0,1,1-1.36-1.29A1.33,1.33,0,0,1,638.71,383.78Z"/><path class="cls-3" d="M606.16,379.12a3.38,3.38,0,1,1-3.37-3.22A3.31,3.31,0,0,1,606.16,379.12Z"/><path class="cls-3" d="M690.89,331a1.67,1.67,0,1,1,1.67,1.6A1.63,1.63,0,0,1,690.89,331Z"/><path class="cls-3" d="M675.58,352.12a1.5,1.5,0,1,1,1.5,1.43A1.47,1.47,0,0,1,675.58,352.12Z"/><path class="cls-3" d="M673.82,331a3.26,3.26,0,1,1,3.26,3.12A3.19,3.19,0,0,1,673.82,331Z"/><ellipse class="cls-3" cx="657.45" cy="324.5" rx="2.86" ry="2.73"/><path class="cls-3" d="M649.92,358.42a1.36,1.36,0,1,1,1.35,1.29A1.32,1.32,0,0,1,649.92,358.42Z"/><path class="cls-3" d="M682.46,363.08a3.38,3.38,0,1,1,3.38,3.22A3.31,3.31,0,0,1,682.46,363.08Z"/><ellipse class="cls-3" cx="425.69" cy="330.96" rx="1.67" ry="1.6"/><path class="cls-3" d="M408.72,352.12a1.5,1.5,0,1,1,1.5,1.43A1.47,1.47,0,0,1,408.72,352.12Z"/><path class="cls-3" d="M407,331a3.26,3.26,0,1,1,3.26,3.12A3.19,3.19,0,0,1,407,331Z"/><ellipse class="cls-3" cx="390.59" cy="324.5" rx="2.86" ry="2.73"/><path class="cls-3" d="M383.05,358.42a1.36,1.36,0,1,1,1.36,1.29A1.33,1.33,0,0,1,383.05,358.42Z"/><path class="cls-3" d="M415.6,363.08A3.38,3.38,0,1,1,419,366.3,3.31,3.31,0,0,1,415.6,363.08Z"/><path class="cls-3" d="M473,331a1.68,1.68,0,1,1,1.68,1.6A1.64,1.64,0,0,1,473,331Z"/><path class="cls-3" d="M457.72,352.12a1.5,1.5,0,1,1,1.5,1.43A1.47,1.47,0,0,1,457.72,352.12Z"/><path class="cls-3" d="M456,331a3.26,3.26,0,1,1,3.26,3.12A3.19,3.19,0,0,1,456,331Z"/><path class="cls-3" d="M436.74,324.5a2.86,2.86,0,1,1,2.85,2.73A2.79,2.79,0,0,1,436.74,324.5Z"/><path class="cls-3" d="M432.05,358.42a1.36,1.36,0,1,1,1.36,1.29A1.33,1.33,0,0,1,432.05,358.42Z"/><path class="cls-3" d="M464.6,363.08A3.38,3.38,0,1,1,468,366.3,3.31,3.31,0,0,1,464.6,363.08Z"/><path class="cls-3" d="M496.57,326.06a1.6,1.6,0,1,1,1.67-1.6A1.64,1.64,0,0,1,496.57,326.06Z"/><path class="cls-3" d="M518.71,340.68a1.43,1.43,0,1,1,1.5-1.43A1.47,1.47,0,0,1,518.71,340.68Z"/><path class="cls-3" d="M496.57,342.37a3.12,3.12,0,1,1,3.26-3.12A3.19,3.19,0,0,1,496.57,342.37Z"/><ellipse class="cls-3" cx="489.8" cy="358.01" rx="2.86" ry="2.73"/><path class="cls-3" d="M525.3,365.21a1.3,1.3,0,1,1,1.36-1.3A1.32,1.32,0,0,1,525.3,365.21Z"/><path class="cls-3" d="M530.18,334.11a3.23,3.23,0,1,1,3.37-3.22A3.3,3.3,0,0,1,530.18,334.11Z"/><ellipse class="cls-3" cx="582.17" cy="330.96" rx="1.67" ry="1.6"/><path class="cls-3" d="M565.19,352.12a1.5,1.5,0,1,1,1.5,1.43A1.47,1.47,0,0,1,565.19,352.12Z"/><path class="cls-3" d="M563.43,331a3.26,3.26,0,1,1,3.26,3.12A3.19,3.19,0,0,1,563.43,331Z"/><ellipse class="cls-3" cx="547.06" cy="324.5" rx="2.86" ry="2.73"/><path class="cls-3" d="M539.53,358.42a1.36,1.36,0,1,1,1.35,1.29A1.32,1.32,0,0,1,539.53,358.42Z"/><path class="cls-3" d="M572.07,363.08a3.38,3.38,0,1,1,3.38,3.22A3.31,3.31,0,0,1,572.07,363.08Z"/><path class="cls-3" d="M597.74,357.11a1.68,1.68,0,1,1-1.68-1.6A1.64,1.64,0,0,1,597.74,357.11Z"/><path class="cls-3" d="M613,336a1.5,1.5,0,1,1-1.5-1.44A1.47,1.47,0,0,1,613,336Z"/><path class="cls-3" d="M614.8,357.11a3.26,3.26,0,1,1-3.26-3.11A3.19,3.19,0,0,1,614.8,357.11Z"/><path class="cls-3" d="M634,363.57a2.86,2.86,0,1,1-2.85-2.73A2.79,2.79,0,0,1,634,363.57Z"/><path class="cls-3" d="M638.71,329.66a1.36,1.36,0,1,1-1.36-1.3A1.33,1.33,0,0,1,638.71,329.66Z"/><path class="cls-3" d="M606.16,325a3.38,3.38,0,1,1-3.37-3.23A3.3,3.3,0,0,1,606.16,325Z"/><path class="cls-3" d="M696.81,304.06a1.68,1.68,0,1,1,1.68,1.6A1.64,1.64,0,0,1,696.81,304.06Z"/><path class="cls-3" d="M675.58,310.9a1.5,1.5,0,1,1,1.5,1.43A1.47,1.47,0,0,1,675.58,310.9Z"/><path class="cls-3" d="M679.75,304.06a3.26,3.26,0,1,1,3.26,3.11A3.19,3.19,0,0,1,679.75,304.06Z"/><ellipse class="cls-3" cx="663.38" cy="297.6" rx="2.86" ry="2.73"/><path class="cls-3" d="M649.92,317.2a1.36,1.36,0,1,1,1.35,1.3A1.32,1.32,0,0,1,649.92,317.2Z"/><path class="cls-3" d="M682.46,321.86a3.38,3.38,0,1,1,3.38,3.23A3.3,3.3,0,0,1,682.46,321.86Z"/><path class="cls-3" d="M408.72,305.44a1.5,1.5,0,1,1,1.5,1.44A1.47,1.47,0,0,1,408.72,305.44Z"/><ellipse class="cls-3" cx="384.41" cy="311.75" rx="1.36" ry="1.3"/><path class="cls-3" d="M415.6,316.4a3.38,3.38,0,1,1,3.37,3.23A3.3,3.3,0,0,1,415.6,316.4Z"/><path class="cls-3" d="M447.4,304a1.68,1.68,0,1,1,1.68,1.6A1.64,1.64,0,0,1,447.4,304Z"/><path class="cls-3" d="M457.72,308.82a1.5,1.5,0,1,1,1.5,1.43A1.47,1.47,0,0,1,457.72,308.82Z"/><path class="cls-3" d="M430.34,304a3.26,3.26,0,1,1,3.26,3.12A3.19,3.19,0,0,1,430.34,304Z"/><path class="cls-3" d="M411.12,297.55a2.86,2.86,0,1,1,2.85,2.73A2.79,2.79,0,0,1,411.12,297.55Z"/><path class="cls-3" d="M432.05,315.12a1.36,1.36,0,1,1,1.36,1.3A1.33,1.33,0,0,1,432.05,315.12Z"/><path class="cls-3" d="M464.6,319.78A3.38,3.38,0,1,1,468,323,3.31,3.31,0,0,1,464.6,319.78Z"/><path class="cls-3" d="M477.61,300.33a1.6,1.6,0,1,1,1.67-1.6A1.63,1.63,0,0,1,477.61,300.33Z"/><path class="cls-3" d="M527.66,306.93a1.44,1.44,0,1,1,1.5-1.43A1.47,1.47,0,0,1,527.66,306.93Z"/><ellipse class="cls-3" cx="505.52" cy="305.5" rx="3.26" ry="3.11"/><ellipse class="cls-3" cx="489.8" cy="314.5" rx="2.86" ry="2.73"/><path class="cls-3" d="M525.3,321.7a1.3,1.3,0,1,1,1.36-1.29A1.32,1.32,0,0,1,525.3,321.7Z"/><path class="cls-3" d="M539.14,300.36a3.23,3.23,0,1,1,3.37-3.23A3.3,3.3,0,0,1,539.14,300.36Z"/><path class="cls-3" d="M600.78,297.52a1.67,1.67,0,1,1,1.67,1.6A1.64,1.64,0,0,1,600.78,297.52Z"/><path class="cls-3" d="M565.19,305.44a1.5,1.5,0,1,1,1.5,1.44A1.47,1.47,0,0,1,565.19,305.44Z"/><path class="cls-3" d="M575.56,297.26a3.26,3.26,0,1,1,3.26,3.12A3.19,3.19,0,0,1,575.56,297.26Z"/><path class="cls-3" d="M553.13,299a2.86,2.86,0,1,1,2.86,2.73A2.8,2.8,0,0,1,553.13,299Z"/><ellipse class="cls-3" cx="540.88" cy="311.75" rx="1.36" ry="1.3"/><path class="cls-3" d="M572.07,316.4a3.38,3.38,0,1,1,3.38,3.23A3.3,3.3,0,0,1,572.07,316.4Z"/><path class="cls-3" d="M597.74,314.54a1.68,1.68,0,1,1-1.68-1.6A1.64,1.64,0,0,1,597.74,314.54Z"/><path class="cls-3" d="M624.52,307.67a1.5,1.5,0,1,1-1.5-1.44A1.47,1.47,0,0,1,624.52,307.67Z"/><ellipse class="cls-3" cx="611.54" cy="314.54" rx="3.26" ry="3.11"/><path class="cls-3" d="M634,321a2.86,2.86,0,1,1-2.85-2.73A2.79,2.79,0,0,1,634,321Z"/><path class="cls-3" d="M650.19,301.36a1.36,1.36,0,1,1-1.36-1.29A1.33,1.33,0,0,1,650.19,301.36Z"/><path class="cls-3" d="M617.64,296.7a3.38,3.38,0,1,1-3.37-3.22A3.3,3.3,0,0,1,617.64,296.7Z"/></g></g></svg>