<svg id="Capa_1" data-name="Capa 1" xmlns="http://www.w3.org/2000/svg" xmlns:xlink="http://www.w3.org/1999/xlink" viewBox="0 0 1080 1080"><defs><style>.cls-1{fill:none;}.cls-2{clip-path:url(#clip-path);}.cls-3{fill:#3c3c3b;}.cls-4{fill:#54696f;}.cls-5{fill:#9d9d9c;}</style><clipPath id="clip-path"><rect class="cls-1" x="343.11" y="399.53" width="393.43" height="209.28"/></clipPath></defs><g class="cls-2"><path class="cls-3" d="M764.24,802.82,694.61,440c-1.35-7-8.56-11.72-16.16-10.47s-12.61,8-11.26,15l7.3,38L555.63,532.38l-119-49.75,7.3-38c1.35-7-3.69-13.78-11.26-15S417.87,433,416.53,440L346.89,802.82c-1.34,7,3.69,13.78,11.27,15a15.79,15.79,0,0,0,2.46.2c6.62,0,12.5-4.41,13.69-10.68l11-57.21,170.23-66,170.32,66,11,57.2c1.2,6.27,7.07,10.68,13.7,10.68a15.67,15.67,0,0,0,2.45-.2C760.55,816.6,765.58,809.87,764.24,802.82Zm-69-211.94L538.86,526c-6.83-2.72-14.76,22.29-11.42,23.71l146.21,60.52L555.5,656.08,437.41,610.3l120.84-50.6a14.56,14.56,0,0,0,7.31-3.06l114-47.72ZM521.62,546.62,415.86,590.9l15.74-82ZM391.11,719.86l17.76-92.56,110.44,42.81Zm200.6-49.75,110.54-42.87L720,719.86Z"/></g><path class="cls-4" d="M555.56,226.12h-181l17.54,210a9.19,9.19,0,0,0,9.4,8.1H709.59a9.19,9.19,0,0,0,9.4-8.1l17.54-210ZM709.75,419.19c-.53,5.74-5.69,10.16-11.88,10.16H413.26c-6.19,0-11.35-4.42-11.88-10.16L386.14,251.75c-.54-5.83,4.41-10.83,10.7-10.83H714.29c6.29,0,11.23,5,10.7,10.83Z"/><path class="cls-5" d="M537.59,166.92,371,223.06c-2.16.73-1.44,3.06.93,3.06H739.3c2.38,0,3.09-2.34.93-3.06L570.76,166.85A53.49,53.49,0,0,0,537.59,166.92Z"/><rect class="cls-4" x="544.94" y="429.35" width="24.67" height="174.64"/></svg>