<svg id="Capa_1" data-name="Capa 1" xmlns="http://www.w3.org/2000/svg" viewBox="0 0 1080 1080"><defs><style>.cls-1{fill:#415257;}.cls-2{fill:#253133;}.cls-3{fill:none;stroke:#54696f;stroke-miterlimit:10;stroke-width:3px;}.cls-4{fill:#54696f;}.cls-5{fill:#a57c5e;}</style></defs><rect class="cls-1" x="541.2" y="434.45" width="58.72" height="362.55"/><rect class="cls-2" x="531.64" y="439.63" width="9.56" height="148.1" transform="translate(1072.84 1027.36) rotate(180)"/><ellipse class="cls-3" cx="570.42" cy="779.9" rx="29.22" ry="13.17"/><path class="cls-4" d="M594.9,694.23a2.34,2.34,0,1,1-2.34-2.34A2.34,2.34,0,0,1,594.9,694.23Z"/><path class="cls-4" d="M594.9,703.2a2.34,2.34,0,1,1-2.34-2.34A2.34,2.34,0,0,1,594.9,703.2Z"/><path class="cls-4" d="M594.9,713.47a2.34,2.34,0,1,1-2.34-2.34A2.33,2.33,0,0,1,594.9,713.47Z"/><path class="cls-4" d="M594.9,722.44a2.34,2.34,0,1,1-2.34-2.34A2.33,2.33,0,0,1,594.9,722.44Z"/><path class="cls-4" d="M594.9,732.7a2.34,2.34,0,1,1-2.34-2.33A2.34,2.34,0,0,1,594.9,732.7Z"/><path class="cls-4" d="M594.9,741.67a2.34,2.34,0,1,1-2.34-2.33A2.34,2.34,0,0,1,594.9,741.67Z"/><path class="cls-4" d="M594.9,751.94a2.34,2.34,0,1,1-2.34-2.34A2.34,2.34,0,0,1,594.9,751.94Z"/><path class="cls-4" d="M594.9,760.91a2.34,2.34,0,1,1-2.34-2.34A2.34,2.34,0,0,1,594.9,760.91Z"/><path class="cls-4" d="M594.9,771.18a2.34,2.34,0,1,1-2.34-2.34A2.34,2.34,0,0,1,594.9,771.18Z"/><path class="cls-4" d="M594.9,780.15a2.34,2.34,0,1,1-2.34-2.34A2.34,2.34,0,0,1,594.9,780.15Z"/><path class="cls-4" d="M583.83,697.09a2.34,2.34,0,1,1-2.34-2.34A2.34,2.34,0,0,1,583.83,697.09Z"/><path class="cls-4" d="M583.83,706.06a2.34,2.34,0,1,1-2.34-2.34A2.34,2.34,0,0,1,583.83,706.06Z"/><path class="cls-4" d="M583.83,716.33a2.34,2.34,0,1,1-2.34-2.34A2.34,2.34,0,0,1,583.83,716.33Z"/><path class="cls-4" d="M583.83,725.3a2.34,2.34,0,1,1-2.34-2.34A2.34,2.34,0,0,1,583.83,725.3Z"/><path class="cls-4" d="M583.83,735.57a2.34,2.34,0,1,1-2.34-2.34A2.33,2.33,0,0,1,583.83,735.57Z"/><path class="cls-4" d="M583.83,744.54a2.34,2.34,0,1,1-2.34-2.34A2.33,2.33,0,0,1,583.83,744.54Z"/><path class="cls-4" d="M583.83,754.8a2.34,2.34,0,1,1-2.34-2.33A2.34,2.34,0,0,1,583.83,754.8Z"/><path class="cls-4" d="M583.83,763.77a2.34,2.34,0,1,1-2.34-2.33A2.34,2.34,0,0,1,583.83,763.77Z"/><path class="cls-4" d="M583.83,774a2.34,2.34,0,1,1-2.34-2.34A2.34,2.34,0,0,1,583.83,774Z"/><path class="cls-4" d="M583.83,783a2.34,2.34,0,1,1-2.34-2.34A2.34,2.34,0,0,1,583.83,783Z"/><path class="cls-4" d="M572.76,699.43a2.34,2.34,0,1,1-2.34-2.34A2.34,2.34,0,0,1,572.76,699.43Z"/><path class="cls-4" d="M572.76,708.4a2.34,2.34,0,1,1-2.34-2.34A2.34,2.34,0,0,1,572.76,708.4Z"/><path class="cls-4" d="M572.76,718.67a2.34,2.34,0,1,1-2.34-2.34A2.33,2.33,0,0,1,572.76,718.67Z"/><path class="cls-4" d="M572.76,727.64a2.34,2.34,0,1,1-2.34-2.34A2.33,2.33,0,0,1,572.76,727.64Z"/><path class="cls-4" d="M572.76,737.9a2.34,2.34,0,1,1-2.34-2.33A2.34,2.34,0,0,1,572.76,737.9Z"/><path class="cls-4" d="M572.76,746.87a2.34,2.34,0,1,1-2.34-2.33A2.34,2.34,0,0,1,572.76,746.87Z"/><path class="cls-4" d="M572.76,757.14a2.34,2.34,0,1,1-2.34-2.34A2.34,2.34,0,0,1,572.76,757.14Z"/><path class="cls-4" d="M572.76,766.11a2.34,2.34,0,1,1-2.34-2.34A2.34,2.34,0,0,1,572.76,766.11Z"/><path class="cls-4" d="M572.76,776.38a2.34,2.34,0,1,1-2.34-2.34A2.34,2.34,0,0,1,572.76,776.38Z"/><path class="cls-4" d="M572.76,785.35a2.34,2.34,0,1,1-2.34-2.34A2.34,2.34,0,0,1,572.76,785.35Z"/><path class="cls-4" d="M561.68,697.09a2.34,2.34,0,1,1-2.33-2.34A2.33,2.33,0,0,1,561.68,697.09Z"/><path class="cls-4" d="M561.68,706.06a2.34,2.34,0,1,1-2.33-2.34A2.33,2.33,0,0,1,561.68,706.06Z"/><path class="cls-4" d="M561.68,716.33a2.34,2.34,0,1,1-2.33-2.34A2.33,2.33,0,0,1,561.68,716.33Z"/><path class="cls-4" d="M561.68,725.3a2.34,2.34,0,1,1-2.33-2.34A2.33,2.33,0,0,1,561.68,725.3Z"/><path class="cls-4" d="M561.68,735.57a2.34,2.34,0,1,1-2.33-2.34A2.33,2.33,0,0,1,561.68,735.57Z"/><path class="cls-4" d="M561.68,744.54a2.34,2.34,0,1,1-2.33-2.34A2.33,2.33,0,0,1,561.68,744.54Z"/><path class="cls-4" d="M561.68,754.8a2.34,2.34,0,1,1-2.33-2.33A2.33,2.33,0,0,1,561.68,754.8Z"/><path class="cls-4" d="M561.68,763.77a2.34,2.34,0,1,1-2.33-2.33A2.33,2.33,0,0,1,561.68,763.77Z"/><path class="cls-4" d="M561.68,774a2.34,2.34,0,1,1-2.33-2.34A2.33,2.33,0,0,1,561.68,774Z"/><path class="cls-4" d="M561.68,783a2.34,2.34,0,1,1-2.33-2.34A2.33,2.33,0,0,1,561.68,783Z"/><path class="cls-4" d="M550.61,694.23a2.34,2.34,0,1,1-2.34-2.34A2.34,2.34,0,0,1,550.61,694.23Z"/><path class="cls-4" d="M550.61,703.2a2.34,2.34,0,1,1-2.34-2.34A2.34,2.34,0,0,1,550.61,703.2Z"/><path class="cls-4" d="M550.61,713.47a2.34,2.34,0,1,1-2.34-2.34A2.33,2.33,0,0,1,550.61,713.47Z"/><path class="cls-4" d="M550.61,722.44a2.34,2.34,0,1,1-2.34-2.34A2.33,2.33,0,0,1,550.61,722.44Z"/><path class="cls-4" d="M550.61,732.7a2.34,2.34,0,1,1-2.34-2.33A2.34,2.34,0,0,1,550.61,732.7Z"/><path class="cls-4" d="M550.61,741.67a2.34,2.34,0,1,1-2.34-2.33A2.34,2.34,0,0,1,550.61,741.67Z"/><path class="cls-4" d="M550.61,751.94a2.34,2.34,0,1,1-2.34-2.34A2.34,2.34,0,0,1,550.61,751.94Z"/><path class="cls-4" d="M550.61,760.91a2.34,2.34,0,1,1-2.34-2.34A2.34,2.34,0,0,1,550.61,760.91Z"/><path class="cls-4" d="M550.61,771.18a2.34,2.34,0,1,1-2.34-2.34A2.34,2.34,0,0,1,550.61,771.18Z"/><path class="cls-4" d="M550.61,780.15a2.34,2.34,0,1,1-2.34-2.34A2.34,2.34,0,0,1,550.61,780.15Z"/><rect class="cls-2" x="598.69" y="439.63" width="25.63" height="12.17"/><rect class="cls-2" x="598.49" y="439.63" width="12.38" height="148.1"/><rect class="cls-2" x="518.73" y="439.63" width="22.47" height="12.17" transform="translate(1059.93 891.44) rotate(180)"/><path class="cls-2" d="M601.15,576.1V778.84c0,6.2-1.68,14.79-30.73,14.79s-30.78-8.59-30.78-14.79V576.1h-8V785.31a19.76,19.76,0,0,0,19.76,19.76h39.72a19.76,19.76,0,0,0,19.76-19.76V576.1Z"/><path class="cls-5" d="M601.15,686.17v92.67c0,6.2-1.68,14.79-30.73,14.79s-30.78-8.59-30.78-14.79V686.17h-8v99.14a19.76,19.76,0,0,0,19.76,19.76h39.72a19.76,19.76,0,0,0,19.76-19.76V686.17Z"/><path class="cls-3" d="M599.63,434.72c0-.15-.19-.27-.42-.27H541.63c-.24,0-.43.12-.43.27V784.34a.14.14,0,0,0,0,.06,1.64,1.64,0,0,0,0,.22c0,4.66,13.08,8.45,29.22,8.45s29.21-3.79,29.21-8.45c0-.07,0-.15,0-.22s0,0,0-.06Z"/></svg>