<svg xmlns="http://www.w3.org/2000/svg" viewBox="0 0 1080 1080"><defs><style>.cls-1{isolation:isolate;}.cls-2{fill:none;stroke:#54696f;stroke-linecap:square;stroke-linejoin:round;stroke-width:11px;}.cls-3{fill:#54696f;}.cls-4{fill:#415257;}.cls-5{mix-blend-mode:screen;}.cls-6{fill:#fff;}</style></defs><g class="cls-1"><g id="Capa_1" data-name="Capa 1"><path class="cls-2" d="M727.7,544.72H437.33V444.55L452,277.45a5.92,5.92,0,0,0-5.89-6.43H413"/><rect class="cls-3" x="531.28" y="524.6" width="5.48" height="7.96"/><path class="cls-4" d="M540,523.41a6,6,0,1,1-6-6A6,6,0,0,1,540,523.41Z"/><path class="cls-4" d="M537.15,558.25h-6.44c-2.28,0-4.14-1.16-4.14-2.59v-21.8c0-1.43,1.86-2.58,4.14-2.58h6.44c2.29,0,4.14,1.15,4.14,2.58v21.8C541.29,557.09,539.44,558.25,537.15,558.25Z"/><g class="cls-5"><path class="cls-4" d="M535.16,553h-2.45c-1.81,0-3.28-.91-3.28-2V538.56c0-1.13,1.47-2,3.28-2h2.45c1.81,0,3.28.92,3.28,2V551C538.44,552.1,537,553,535.16,553Z"/></g><path class="cls-6" d="M536.67,523.41a2.74,2.74,0,1,1-2.74-2.74A2.73,2.73,0,0,1,536.67,523.41Z"/></g></g></svg>