<svg xmlns="http://www.w3.org/2000/svg" viewBox="0 0 1080 1080"><defs><style>.cls-1{isolation:isolate;}.cls-2,.cls-3{fill:#00beff;}.cls-3{mix-blend-mode:screen;}</style></defs><g class="cls-1"><g id="Capa_1" data-name="Capa 1"><path class="cls-2" d="M776.94,816.25h-413a13.78,13.78,0,0,1-13.79-13.79V668.15H790.72V802.46A13.78,13.78,0,0,1,776.94,816.25Z"/><path class="cls-3" d="M774.79,767.66a1.68,1.68,0,1,1,1.68,1.71A1.7,1.7,0,0,1,774.79,767.66Z"/><path class="cls-3" d="M759.49,790.39a1.5,1.5,0,1,1,1.5,1.54A1.52,1.52,0,0,1,759.49,790.39Z"/><path class="cls-3" d="M757.73,767.66A3.26,3.26,0,1,1,761,771,3.31,3.31,0,0,1,757.73,767.66Z"/><ellipse class="cls-3" cx="741.36" cy="760.71" rx="2.86" ry="2.93"/><path class="cls-3" d="M733.82,797.17a1.36,1.36,0,1,1,1.36,1.39A1.38,1.38,0,0,1,733.82,797.17Z"/><path class="cls-3" d="M766.37,802.17a3.38,3.38,0,1,1,3.37,3.47A3.42,3.42,0,0,1,766.37,802.17Z"/><path class="cls-3" d="M400.46,767.66a1.67,1.67,0,1,1,1.67,1.71A1.7,1.7,0,0,1,400.46,767.66Z"/><path class="cls-3" d="M385.15,790.39a1.5,1.5,0,1,1,1.5,1.54A1.52,1.52,0,0,1,385.15,790.39Z"/><path class="cls-3" d="M383.39,767.66a3.26,3.26,0,1,1,3.26,3.34A3.31,3.31,0,0,1,383.39,767.66Z"/><path class="cls-3" d="M364.17,760.71a2.86,2.86,0,1,1,2.85,2.94A2.89,2.89,0,0,1,364.17,760.71Z"/><path class="cls-3" d="M359.49,797.17a1.36,1.36,0,1,1,1.35,1.39A1.37,1.37,0,0,1,359.49,797.17Z"/><path class="cls-3" d="M392,802.17a3.38,3.38,0,1,1,3.38,3.47A3.42,3.42,0,0,1,392,802.17Z"/><path class="cls-3" d="M424,762.39a1.72,1.72,0,1,1,1.67-1.72A1.69,1.69,0,0,1,424,762.39Z"/><path class="cls-3" d="M446.14,778.11a1.54,1.54,0,1,1,1.5-1.54A1.52,1.52,0,0,1,446.14,778.11Z"/><ellipse class="cls-3" cx="424" cy="776.57" rx="3.26" ry="3.35"/><ellipse class="cls-3" cx="417.24" cy="796.72" rx="2.86" ry="2.93"/><path class="cls-3" d="M452.74,804.46a1.39,1.39,0,1,1,1.35-1.39A1.37,1.37,0,0,1,452.74,804.46Z"/><path class="cls-3" d="M457.61,771a3.47,3.47,0,1,1,3.38-3.46A3.42,3.42,0,0,1,457.61,771Z"/><path class="cls-3" d="M507.93,767.66a1.67,1.67,0,1,1,1.67,1.71A1.7,1.7,0,0,1,507.93,767.66Z"/><path class="cls-3" d="M492.63,790.39a1.5,1.5,0,1,1,1.5,1.54A1.52,1.52,0,0,1,492.63,790.39Z"/><path class="cls-3" d="M490.87,767.66a3.26,3.26,0,1,1,3.26,3.34A3.31,3.31,0,0,1,490.87,767.66Z"/><ellipse class="cls-3" cx="474.5" cy="760.71" rx="2.86" ry="2.93"/><ellipse class="cls-3" cx="468.31" cy="797.17" rx="1.36" ry="1.39"/><path class="cls-3" d="M499.5,802.17a3.38,3.38,0,1,1,3.38,3.47A3.42,3.42,0,0,1,499.5,802.17Z"/><path class="cls-3" d="M556.93,767.66a1.68,1.68,0,1,1,1.67,1.71A1.7,1.7,0,0,1,556.93,767.66Z"/><path class="cls-3" d="M541.63,790.39a1.5,1.5,0,1,1,1.5,1.54A1.52,1.52,0,0,1,541.63,790.39Z"/><path class="cls-3" d="M539.87,767.66a3.26,3.26,0,1,1,3.26,3.34A3.31,3.31,0,0,1,539.87,767.66Z"/><path class="cls-3" d="M520.64,760.71a2.86,2.86,0,1,1,2.86,2.94A2.89,2.89,0,0,1,520.64,760.71Z"/><path class="cls-3" d="M516,797.17a1.36,1.36,0,1,1,2.71,0,1.36,1.36,0,1,1-2.71,0Z"/><path class="cls-3" d="M548.51,802.17a3.38,3.38,0,1,1,3.37,3.47A3.42,3.42,0,0,1,548.51,802.17Z"/><path class="cls-3" d="M580.47,762.39a1.72,1.72,0,1,1,1.68-1.72A1.7,1.7,0,0,1,580.47,762.39Z"/><path class="cls-3" d="M602.61,778.11a1.54,1.54,0,1,1,1.5-1.54A1.53,1.53,0,0,1,602.61,778.11Z"/><ellipse class="cls-3" cx="580.47" cy="776.57" rx="3.26" ry="3.35"/><ellipse class="cls-3" cx="573.71" cy="796.72" rx="2.86" ry="2.93"/><path class="cls-3" d="M609.21,804.46a1.39,1.39,0,1,1,1.36-1.39A1.37,1.37,0,0,1,609.21,804.46Z"/><path class="cls-3" d="M614.09,771a3.47,3.47,0,1,1,3.37-3.46A3.42,3.42,0,0,1,614.09,771Z"/><path class="cls-3" d="M664.4,767.66a1.68,1.68,0,1,1,1.68,1.71A1.7,1.7,0,0,1,664.4,767.66Z"/><path class="cls-3" d="M649.1,790.39a1.5,1.5,0,1,1,1.5,1.54A1.52,1.52,0,0,1,649.1,790.39Z"/><path class="cls-3" d="M647.34,767.66A3.26,3.26,0,1,1,650.6,771,3.31,3.31,0,0,1,647.34,767.66Z"/><ellipse class="cls-3" cx="630.97" cy="760.71" rx="2.86" ry="2.93"/><ellipse class="cls-3" cx="624.79" cy="797.17" rx="1.36" ry="1.39"/><path class="cls-3" d="M656,802.17a3.38,3.38,0,1,1,3.37,3.47A3.42,3.42,0,0,1,656,802.17Z"/><path class="cls-3" d="M681.64,795.76a1.67,1.67,0,1,1-1.67-1.71A1.69,1.69,0,0,1,681.64,795.76Z"/><path class="cls-3" d="M697,773a1.5,1.5,0,1,1-1.5-1.54A1.52,1.52,0,0,1,697,773Z"/><ellipse class="cls-3" cx="695.45" cy="795.76" rx="3.26" ry="3.35"/><path class="cls-3" d="M717.93,802.71a2.86,2.86,0,1,1-2.85-2.94A2.89,2.89,0,0,1,717.93,802.71Z"/><path class="cls-3" d="M722.61,766.25a1.36,1.36,0,1,1-1.35-1.39A1.37,1.37,0,0,1,722.61,766.25Z"/><path class="cls-3" d="M690.07,761.25a3.38,3.38,0,1,1-3.38-3.47A3.42,3.42,0,0,1,690.07,761.25Z"/><ellipse class="cls-3" cx="776.47" cy="709.48" rx="1.67" ry="1.72"/><path class="cls-3" d="M759.49,732.22a1.5,1.5,0,1,1,1.5,1.54A1.52,1.52,0,0,1,759.49,732.22Z"/><path class="cls-3" d="M757.73,709.48a3.26,3.26,0,1,1,3.26,3.35A3.3,3.3,0,0,1,757.73,709.48Z"/><ellipse class="cls-3" cx="741.36" cy="702.54" rx="2.86" ry="2.93"/><path class="cls-3" d="M733.82,739a1.36,1.36,0,1,1,1.36,1.4A1.37,1.37,0,0,1,733.82,739Z"/><path class="cls-3" d="M766.37,744a3.38,3.38,0,1,1,3.37,3.47A3.43,3.43,0,0,1,766.37,744Z"/><path class="cls-3" d="M400.46,709.48a1.67,1.67,0,1,1,1.67,1.72A1.7,1.7,0,0,1,400.46,709.48Z"/><path class="cls-3" d="M385.15,732.22a1.5,1.5,0,1,1,1.5,1.54A1.52,1.52,0,0,1,385.15,732.22Z"/><ellipse class="cls-3" cx="386.65" cy="709.48" rx="3.26" ry="3.35"/><path class="cls-3" d="M364.17,702.54a2.86,2.86,0,1,1,2.85,2.93A2.89,2.89,0,0,1,364.17,702.54Z"/><path class="cls-3" d="M359.49,739a1.36,1.36,0,1,1,2.71,0,1.36,1.36,0,1,1-2.71,0Z"/><path class="cls-3" d="M392,744a3.38,3.38,0,1,1,3.38,3.47A3.43,3.43,0,0,1,392,744Z"/><path class="cls-3" d="M424,704.22a1.72,1.72,0,1,1,1.67-1.72A1.69,1.69,0,0,1,424,704.22Z"/><path class="cls-3" d="M446.14,719.93a1.54,1.54,0,1,1,1.5-1.54A1.52,1.52,0,0,1,446.14,719.93Z"/><ellipse class="cls-3" cx="424" cy="718.39" rx="3.26" ry="3.35"/><ellipse class="cls-3" cx="417.24" cy="738.55" rx="2.86" ry="2.93"/><path class="cls-3" d="M452.74,746.29a1.39,1.39,0,1,1,1.35-1.39A1.37,1.37,0,0,1,452.74,746.29Z"/><path class="cls-3" d="M457.61,712.87A3.47,3.47,0,1,1,461,709.4,3.42,3.42,0,0,1,457.61,712.87Z"/><path class="cls-3" d="M507.93,709.48a1.67,1.67,0,1,1,1.67,1.72A1.7,1.7,0,0,1,507.93,709.48Z"/><path class="cls-3" d="M492.63,732.22a1.5,1.5,0,1,1,1.5,1.54A1.52,1.52,0,0,1,492.63,732.22Z"/><path class="cls-3" d="M490.87,709.48a3.26,3.26,0,1,1,3.26,3.35A3.3,3.3,0,0,1,490.87,709.48Z"/><ellipse class="cls-3" cx="474.5" cy="702.54" rx="2.86" ry="2.93"/><path class="cls-3" d="M467,739a1.36,1.36,0,1,1,1.35,1.4A1.37,1.37,0,0,1,467,739Z"/><path class="cls-3" d="M499.5,744a3.38,3.38,0,1,1,3.38,3.47A3.43,3.43,0,0,1,499.5,744Z"/><path class="cls-3" d="M556.93,709.48a1.68,1.68,0,1,1,1.67,1.72A1.7,1.7,0,0,1,556.93,709.48Z"/><path class="cls-3" d="M541.63,732.22a1.5,1.5,0,1,1,1.5,1.54A1.52,1.52,0,0,1,541.63,732.22Z"/><ellipse class="cls-3" cx="543.13" cy="709.48" rx="3.26" ry="3.35"/><path class="cls-3" d="M520.64,702.54a2.86,2.86,0,1,1,2.86,2.93A2.89,2.89,0,0,1,520.64,702.54Z"/><path class="cls-3" d="M516,739a1.36,1.36,0,1,1,1.36,1.4A1.37,1.37,0,0,1,516,739Z"/><path class="cls-3" d="M548.51,744a3.38,3.38,0,1,1,3.37,3.47A3.43,3.43,0,0,1,548.51,744Z"/><path class="cls-3" d="M580.47,704.22a1.72,1.72,0,1,1,1.68-1.72A1.7,1.7,0,0,1,580.47,704.22Z"/><path class="cls-3" d="M602.61,719.93a1.54,1.54,0,1,1,1.5-1.54A1.53,1.53,0,0,1,602.61,719.93Z"/><ellipse class="cls-3" cx="580.47" cy="718.39" rx="3.26" ry="3.35"/><ellipse class="cls-3" cx="573.71" cy="738.55" rx="2.86" ry="2.93"/><path class="cls-3" d="M609.21,746.29a1.39,1.39,0,1,1,1.36-1.39A1.37,1.37,0,0,1,609.21,746.29Z"/><path class="cls-3" d="M614.09,712.87a3.47,3.47,0,1,1,3.37-3.47A3.42,3.42,0,0,1,614.09,712.87Z"/><path class="cls-3" d="M664.4,709.48a1.68,1.68,0,1,1,1.68,1.72A1.7,1.7,0,0,1,664.4,709.48Z"/><path class="cls-3" d="M649.1,732.22a1.5,1.5,0,1,1,1.5,1.54A1.52,1.52,0,0,1,649.1,732.22Z"/><ellipse class="cls-3" cx="650.6" cy="709.48" rx="3.26" ry="3.35"/><ellipse class="cls-3" cx="630.97" cy="702.54" rx="2.86" ry="2.93"/><path class="cls-3" d="M623.43,739a1.36,1.36,0,1,1,1.36,1.4A1.37,1.37,0,0,1,623.43,739Z"/><path class="cls-3" d="M656,744a3.38,3.38,0,1,1,3.37,3.47A3.43,3.43,0,0,1,656,744Z"/><path class="cls-3" d="M681.64,737.59a1.67,1.67,0,1,1-1.67-1.72A1.69,1.69,0,0,1,681.64,737.59Z"/><path class="cls-3" d="M697,714.85a1.5,1.5,0,1,1-1.5-1.54A1.52,1.52,0,0,1,697,714.85Z"/><ellipse class="cls-3" cx="695.45" cy="737.59" rx="3.26" ry="3.35"/><path class="cls-3" d="M717.93,744.53a2.86,2.86,0,1,1-2.85-2.93A2.9,2.9,0,0,1,717.93,744.53Z"/><path class="cls-3" d="M722.61,708.08a1.36,1.36,0,1,1-1.35-1.39A1.37,1.37,0,0,1,722.61,708.08Z"/><path class="cls-3" d="M690.07,703.07a3.38,3.38,0,1,1-3.38-3.46A3.42,3.42,0,0,1,690.07,703.07Z"/><ellipse class="cls-3" cx="782.39" cy="680.57" rx="1.67" ry="1.72"/><path class="cls-3" d="M759.49,687.92a1.5,1.5,0,1,1,1.5,1.54A1.52,1.52,0,0,1,759.49,687.92Z"/><path class="cls-3" d="M763.66,680.57a3.26,3.26,0,1,1,3.26,3.35A3.31,3.31,0,0,1,763.66,680.57Z"/><ellipse class="cls-3" cx="747.29" cy="673.62" rx="2.86" ry="2.93"/><path class="cls-3" d="M733.82,694.7a1.36,1.36,0,1,1,1.36,1.39A1.38,1.38,0,0,1,733.82,694.7Z"/><path class="cls-3" d="M766.37,699.7a3.38,3.38,0,1,1,3.37,3.47A3.42,3.42,0,0,1,766.37,699.7Z"/><path class="cls-3" d="M400,680.51a1.67,1.67,0,1,1,1.67,1.72A1.69,1.69,0,0,1,400,680.51Z"/><path class="cls-3" d="M385.15,687.22a1.5,1.5,0,1,1,1.5,1.54A1.52,1.52,0,0,1,385.15,687.22Z"/><path class="cls-3" d="M382.93,680.51a3.26,3.26,0,1,1,3.26,3.35A3.31,3.31,0,0,1,382.93,680.51Z"/><ellipse class="cls-3" cx="366.56" cy="673.57" rx="2.86" ry="2.93"/><path class="cls-3" d="M359.49,694a1.36,1.36,0,1,1,1.35,1.39A1.37,1.37,0,0,1,359.49,694Z"/><path class="cls-3" d="M392,699a3.38,3.38,0,1,1,3.38,3.47A3.42,3.42,0,0,1,392,699Z"/><path class="cls-3" d="M426.74,674.16a1.74,1.74,0,0,1-.95-2.23,1.66,1.66,0,0,1,2.16-1,1.75,1.75,0,0,1,1,2.23A1.67,1.67,0,0,1,426.74,674.16Z"/><path class="cls-3" d="M457.81,686.55a1.54,1.54,0,1,1,1.5-1.54A1.52,1.52,0,0,1,457.81,686.55Z"/><path class="cls-3" d="M435.67,688.36a3.35,3.35,0,1,1,3.26-3.35A3.31,3.31,0,0,1,435.67,688.36Z"/><ellipse class="cls-3" cx="417.24" cy="692.33" rx="2.86" ry="2.93"/><path class="cls-3" d="M452.74,700.07a1.39,1.39,0,1,1,1.35-1.39A1.37,1.37,0,0,1,452.74,700.07Z"/><path class="cls-3" d="M469.28,679.49a3.47,3.47,0,1,1,3.38-3.47A3.42,3.42,0,0,1,469.28,679.49Z"/><path class="cls-3" d="M492.63,682.06a1.5,1.5,0,1,1,1.5,1.54A1.52,1.52,0,0,1,492.63,682.06Z"/><ellipse class="cls-3" cx="468.31" cy="688.83" rx="1.36" ry="1.39"/><path class="cls-3" d="M499.5,693.84a3.38,3.38,0,1,1,3.38,3.46A3.42,3.42,0,0,1,499.5,693.84Z"/><path class="cls-3" d="M531.31,680.52a1.68,1.68,0,1,1,1.67,1.72A1.7,1.7,0,0,1,531.31,680.52Z"/><path class="cls-3" d="M541.63,685.68a1.5,1.5,0,1,1,1.5,1.54A1.52,1.52,0,0,1,541.63,685.68Z"/><ellipse class="cls-3" cx="517.51" cy="680.52" rx="3.26" ry="3.35"/><path class="cls-3" d="M495,673.57a2.86,2.86,0,1,1,2.86,2.94A2.89,2.89,0,0,1,495,673.57Z"/><path class="cls-3" d="M516,692.46a1.36,1.36,0,1,1,1.36,1.39A1.37,1.37,0,0,1,516,692.46Z"/><path class="cls-3" d="M548.51,697.46a3.38,3.38,0,1,1,3.37,3.47A3.42,3.42,0,0,1,548.51,697.46Z"/><path class="cls-3" d="M561.52,676.56a1.72,1.72,0,1,1,1.67-1.72A1.69,1.69,0,0,1,561.52,676.56Z"/><path class="cls-3" d="M611.57,683.66a1.55,1.55,0,1,1,1.5-1.55A1.52,1.52,0,0,1,611.57,683.66Z"/><path class="cls-3" d="M589.43,685.46a3.35,3.35,0,1,1,3.26-3.35A3.31,3.31,0,0,1,589.43,685.46Z"/><ellipse class="cls-3" cx="573.71" cy="691.79" rx="2.86" ry="2.93"/><path class="cls-3" d="M609.21,699.53a1.39,1.39,0,1,1,1.36-1.39A1.37,1.37,0,0,1,609.21,699.53Z"/><path class="cls-3" d="M623,676.59a3.47,3.47,0,1,1,3.38-3.46A3.42,3.42,0,0,1,623,676.59Z"/><path class="cls-3" d="M684.69,673.54a1.67,1.67,0,1,1,1.67,1.72A1.7,1.7,0,0,1,684.69,673.54Z"/><path class="cls-3" d="M649.1,682.06a1.5,1.5,0,1,1,1.5,1.54A1.52,1.52,0,0,1,649.1,682.06Z"/><path class="cls-3" d="M659.47,673.26a3.26,3.26,0,1,1,3.26,3.35A3.3,3.3,0,0,1,659.47,673.26Z"/><path class="cls-3" d="M637,675.12a2.86,2.86,0,1,1,2.86,2.94A2.89,2.89,0,0,1,637,675.12Z"/><ellipse class="cls-3" cx="624.79" cy="688.83" rx="1.36" ry="1.39"/><path class="cls-3" d="M656,693.84a3.38,3.38,0,1,1,3.37,3.46A3.42,3.42,0,0,1,656,693.84Z"/><path class="cls-3" d="M681.64,691.83a1.67,1.67,0,1,1-1.67-1.72A1.69,1.69,0,0,1,681.64,691.83Z"/><path class="cls-3" d="M708.43,684.44a1.5,1.5,0,1,1-1.5-1.54A1.52,1.52,0,0,1,708.43,684.44Z"/><path class="cls-3" d="M698.71,691.83a3.26,3.26,0,1,1-3.26-3.35A3.31,3.31,0,0,1,698.71,691.83Z"/><path class="cls-3" d="M717.93,698.78a2.86,2.86,0,1,1-2.85-2.94A2.89,2.89,0,0,1,717.93,698.78Z"/><path class="cls-3" d="M734.1,677.67a1.36,1.36,0,1,1-1.36-1.39A1.37,1.37,0,0,1,734.1,677.67Z"/><path class="cls-3" d="M701.55,672.66a3.38,3.38,0,1,1-3.37-3.46A3.42,3.42,0,0,1,701.55,672.66Z"/></g></g></svg>