<svg xmlns="http://www.w3.org/2000/svg" viewBox="0 0 1080 1080"><defs><style>.cls-1{isolation:isolate;}.cls-2{fill:#94b45f;}.cls-3{fill:#996651;}.cls-4{mix-blend-mode:multiply;}.cls-5{fill:#984b2a;}</style></defs><g class="cls-1"><g id="Capa_1" data-name="Capa 1"><path class="cls-2" d="M113.84,567.07h945.6a2.33,2.33,0,0,1,2.33,2.33v10a0,0,0,0,1,0,0H111.5a0,0,0,0,1,0,0v-10A2.33,2.33,0,0,1,113.84,567.07Z"/><path class="cls-3" d="M111.5,579.44v28.88a2.92,2.92,0,0,0,2.92,2.92h947.35v-31.8Z"/><g class="cls-4"><path class="cls-5" d="M691,601.88a11.12,11.12,0,0,1-3.43.31c-.57-.06-1.15-.18-1.72-.22a9.82,9.82,0,0,0-1.71.1,23.33,23.33,0,0,1-3.43.22,16.83,16.83,0,0,1-3.44-.41v-.09a16.83,16.83,0,0,1,3.44-.41,23.33,23.33,0,0,1,3.43.22,9.82,9.82,0,0,0,1.71.1c.57,0,1.15-.16,1.72-.22a11.12,11.12,0,0,1,3.43.31Z"/></g><g class="cls-4"><path class="cls-5" d="M680.59,608.26a11.12,11.12,0,0,1-3.43.31c-.58-.06-1.15-.18-1.72-.22a10,10,0,0,0-1.72.1,23.16,23.16,0,0,1-3.43.22,16.82,16.82,0,0,1-3.43-.41v-.09a16.82,16.82,0,0,1,3.43-.41,23.16,23.16,0,0,1,3.43.22,10,10,0,0,0,1.72.1c.57,0,1.14-.16,1.72-.22a11.12,11.12,0,0,1,3.43.31Z"/></g><g class="cls-4"><path class="cls-5" d="M627.83,593.11a10.83,10.83,0,0,1,3.43-.32c.58.06,1.15.19,1.72.22a9.08,9.08,0,0,0,1.72-.1,24.59,24.59,0,0,1,3.43-.22,17.57,17.57,0,0,1,3.43.42v.08a17.57,17.57,0,0,1-3.43.42,24.59,24.59,0,0,1-3.43-.22,9.08,9.08,0,0,0-1.72-.1c-.57,0-1.14.16-1.72.22a11.13,11.13,0,0,1-3.43-.32Z"/></g><g class="cls-4"><path class="cls-5" d="M684.92,586.74a11.1,11.1,0,0,1-3.43.32c-.57-.07-1.14-.19-1.72-.22a8.92,8.92,0,0,0-1.71.09,24.81,24.81,0,0,1-3.43.23,17.39,17.39,0,0,1-3.43-.42v-.09a16.65,16.65,0,0,1,3.43-.41,24.79,24.79,0,0,1,3.43.22,8.93,8.93,0,0,0,1.71.1c.58,0,1.15-.16,1.72-.22a11.09,11.09,0,0,1,3.43.31Z"/></g><g class="cls-4"><path class="cls-5" d="M650.87,604.36a10.78,10.78,0,0,1,3.43-.32c.57.06,1.14.19,1.71.22a9,9,0,0,0,1.72-.1,24.69,24.69,0,0,1,3.43-.22,17.48,17.48,0,0,1,3.43.42v.08a17.48,17.48,0,0,1-3.43.42,24.69,24.69,0,0,1-3.43-.22,9,9,0,0,0-1.72-.1c-.57,0-1.14.16-1.71.22a11.07,11.07,0,0,1-3.43-.32Z"/></g><g class="cls-4"><path class="cls-5" d="M636.66,584.21a5.13,5.13,0,0,1,2.34-.31c.38.05.77.19,1.16.21a4.21,4.21,0,0,0,1.17-.09,11.51,11.51,0,0,1,2.33-.23,7.9,7.9,0,0,1,2.33.42v.09a8.22,8.22,0,0,1-2.33.41,10.82,10.82,0,0,1-2.33-.22,4.21,4.21,0,0,0-1.17-.1c-.39,0-.78.17-1.16.22a5.27,5.27,0,0,1-2.34-.31Z"/></g><g class="cls-4"><path class="cls-5" d="M692.68,595.86a1.33,1.33,0,0,1-1.1.32A3.71,3.71,0,0,0,691,596a1,1,0,0,0-.55.1,2.5,2.5,0,0,1-1.09.22,2.07,2.07,0,0,1-1.1-.42v-.08a2.07,2.07,0,0,1,1.1-.42,2.5,2.5,0,0,1,1.09.22,1,1,0,0,0,.55.1,5.25,5.25,0,0,0,.55-.22,1.29,1.29,0,0,1,1.1.32Z"/></g><g class="cls-4"><path class="cls-5" d="M623.24,607.9a1.33,1.33,0,0,1,1.1-.32,4.2,4.2,0,0,0,.55.22,1,1,0,0,0,.55-.1,2.52,2.52,0,0,1,1.1-.22,2.07,2.07,0,0,1,1.09.42V608a2.07,2.07,0,0,1-1.09.42,2.52,2.52,0,0,1-1.1-.22,1,1,0,0,0-.55-.1c-.18,0-.37.17-.55.22a1.29,1.29,0,0,1-1.1-.32Z"/></g><g class="cls-4"><path class="cls-5" d="M638.31,599.68a1.32,1.32,0,0,1,1.1-.31,5.25,5.25,0,0,0,.55.22,1,1,0,0,0,.54-.1,2.58,2.58,0,0,1,1.1-.22,2.17,2.17,0,0,1,1.1.41v.09a2.1,2.1,0,0,1-1.1.42,2.75,2.75,0,0,1-1.1-.23.94.94,0,0,0-.54-.09,2.87,2.87,0,0,0-.55.22,1.33,1.33,0,0,1-1.1-.32Z"/></g><g class="cls-4"><path class="cls-5" d="M672,592.12a1.33,1.33,0,0,1-1.1.32,3.16,3.16,0,0,0-.55-.22,1,1,0,0,0-.55.09,2.53,2.53,0,0,1-1.1.23,2.07,2.07,0,0,1-1.09-.42V592a2.13,2.13,0,0,1,1.09-.41,2.52,2.52,0,0,1,1.1.22,1,1,0,0,0,.55.1c.18,0,.37-.17.55-.22a1.32,1.32,0,0,1,1.1.31Z"/></g><g class="cls-4"><path class="cls-5" d="M649.05,588.21a1.28,1.28,0,0,1,1.1-.31,3.66,3.66,0,0,0,.55.21.94.94,0,0,0,.54-.09,2.75,2.75,0,0,1,1.1-.23,2.1,2.1,0,0,1,1.1.42v.09a2.17,2.17,0,0,1-1.1.41,2.58,2.58,0,0,1-1.1-.22,1,1,0,0,0-.54-.1,5.25,5.25,0,0,0-.55.22,1.31,1.31,0,0,1-1.1-.31Z"/></g><g class="cls-4"><path class="cls-5" d="M664.53,581.36a1.28,1.28,0,0,1-1.1.31,3.66,3.66,0,0,0-.55-.21,1,1,0,0,0-.55.09,2.67,2.67,0,0,1-1.09.23,2.07,2.07,0,0,1-1.1-.42v-.09a2.13,2.13,0,0,1,1.1-.41,2.5,2.5,0,0,1,1.09.22,1,1,0,0,0,.55.1,5.25,5.25,0,0,0,.55-.22,1.32,1.32,0,0,1,1.1.31Z"/></g><g class="cls-4"><path class="cls-5" d="M764.16,601.88a11.09,11.09,0,0,1-3.43.31c-.57-.06-1.14-.18-1.72-.22a9.82,9.82,0,0,0-1.71.1,23.24,23.24,0,0,1-3.43.22,16.65,16.65,0,0,1-3.43-.41v-.09a16.65,16.65,0,0,1,3.43-.41,23.24,23.24,0,0,1,3.43.22,9.82,9.82,0,0,0,1.71.1c.58,0,1.15-.16,1.72-.22a11.09,11.09,0,0,1,3.43.31Z"/></g><g class="cls-4"><path class="cls-5" d="M753.79,608.26a11.12,11.12,0,0,1-3.43.31c-.57-.06-1.15-.18-1.72-.22a9.82,9.82,0,0,0-1.71.1,23.33,23.33,0,0,1-3.43.22,16.83,16.83,0,0,1-3.44-.41v-.09a16.83,16.83,0,0,1,3.44-.41,23.33,23.33,0,0,1,3.43.22,9.82,9.82,0,0,0,1.71.1c.57,0,1.15-.16,1.72-.22a11.12,11.12,0,0,1,3.43.31Z"/></g><g class="cls-4"><path class="cls-5" d="M701,593.11a10.78,10.78,0,0,1,3.43-.32c.57.06,1.14.19,1.71.22a9,9,0,0,0,1.72-.1,24.69,24.69,0,0,1,3.43-.22,17.48,17.48,0,0,1,3.43.42v.08a17.48,17.48,0,0,1-3.43.42,24.69,24.69,0,0,1-3.43-.22,9,9,0,0,0-1.72-.1c-.57,0-1.14.16-1.71.22a11.07,11.07,0,0,1-3.43-.32Z"/></g><g class="cls-4"><path class="cls-5" d="M758.12,586.74a11.1,11.1,0,0,1-3.43.32c-.57-.07-1.14-.19-1.71-.22a9,9,0,0,0-1.72.09,24.71,24.71,0,0,1-3.43.23,17.48,17.48,0,0,1-3.43-.42v-.09a16.74,16.74,0,0,1,3.43-.41,24.69,24.69,0,0,1,3.43.22,9,9,0,0,0,1.72.1c.57,0,1.14-.16,1.71-.22a11.09,11.09,0,0,1,3.43.31Z"/></g><g class="cls-4"><path class="cls-5" d="M724.07,604.36a10.81,10.81,0,0,1,3.43-.32c.57.06,1.14.19,1.72.22a8.93,8.93,0,0,0,1.71-.1,24.69,24.69,0,0,1,3.43-.22,17.39,17.39,0,0,1,3.43.42v.08a17.39,17.39,0,0,1-3.43.42,24.69,24.69,0,0,1-3.43-.22,8.93,8.93,0,0,0-1.71-.1c-.58,0-1.15.16-1.72.22a11.1,11.1,0,0,1-3.43-.32Z"/></g><g class="cls-4"><path class="cls-5" d="M709.86,584.21a5.13,5.13,0,0,1,2.34-.31c.39.05.78.19,1.16.21a4.21,4.21,0,0,0,1.17-.09,11.58,11.58,0,0,1,2.33-.23,8,8,0,0,1,2.34.42v.09a8.35,8.35,0,0,1-2.34.41,10.88,10.88,0,0,1-2.33-.22,4.21,4.21,0,0,0-1.17-.1c-.38,0-.77.17-1.16.22a5.27,5.27,0,0,1-2.34-.31Z"/></g><g class="cls-4"><path class="cls-5" d="M765.88,595.86a1.32,1.32,0,0,1-1.1.32,3.71,3.71,0,0,0-.55-.22,1,1,0,0,0-.54.1,2.58,2.58,0,0,1-1.1.22,2.1,2.1,0,0,1-1.1-.42v-.08a2.1,2.1,0,0,1,1.1-.42,2.58,2.58,0,0,1,1.1.22,1,1,0,0,0,.54.1,5.25,5.25,0,0,0,.55-.22,1.28,1.28,0,0,1,1.1.32Z"/></g><g class="cls-4"><path class="cls-5" d="M696.44,607.9a1.33,1.33,0,0,1,1.1-.32,4.85,4.85,0,0,0,.55.22,1,1,0,0,0,.55-.1,2.55,2.55,0,0,1,1.1-.22,2.13,2.13,0,0,1,1.1.42V608a2.13,2.13,0,0,1-1.1.42,2.55,2.55,0,0,1-1.1-.22,1,1,0,0,0-.55-.1c-.18,0-.36.17-.55.22a1.3,1.3,0,0,1-1.1-.32Z"/></g><g class="cls-4"><path class="cls-5" d="M711.51,599.68a1.32,1.32,0,0,1,1.1-.31c.18,0,.37.19.55.22a1,1,0,0,0,.55-.1,2.52,2.52,0,0,1,1.1-.22,2.13,2.13,0,0,1,1.09.41v.09a2.07,2.07,0,0,1-1.09.42,2.68,2.68,0,0,1-1.1-.23,1,1,0,0,0-.55-.09,3.16,3.16,0,0,0-.55.22,1.33,1.33,0,0,1-1.1-.32Z"/></g><g class="cls-4"><path class="cls-5" d="M745.2,592.12a1.33,1.33,0,0,1-1.1.32,2.87,2.87,0,0,0-.55-.22,1,1,0,0,0-.55.09,2.52,2.52,0,0,1-1.09.23,2.07,2.07,0,0,1-1.1-.42V592a2.13,2.13,0,0,1,1.1-.41,2.5,2.5,0,0,1,1.09.22,1,1,0,0,0,.55.1,5.25,5.25,0,0,0,.55-.22,1.32,1.32,0,0,1,1.1.31Z"/></g><g class="cls-4"><path class="cls-5" d="M722.25,588.21a1.28,1.28,0,0,1,1.1-.31,3.66,3.66,0,0,0,.55.21,1,1,0,0,0,.55-.09,2.67,2.67,0,0,1,1.09-.23,2.07,2.07,0,0,1,1.1.42v.09a2.13,2.13,0,0,1-1.1.41,2.5,2.5,0,0,1-1.09-.22,1,1,0,0,0-.55-.1,5.25,5.25,0,0,0-.55.22,1.32,1.32,0,0,1-1.1-.31Z"/></g><g class="cls-4"><path class="cls-5" d="M737.73,581.36a1.28,1.28,0,0,1-1.1.31,4,4,0,0,0-.54-.21,1,1,0,0,0-.55.09,2.75,2.75,0,0,1-1.1.23,2.1,2.1,0,0,1-1.1-.42v-.09a2.17,2.17,0,0,1,1.1-.41,2.58,2.58,0,0,1,1.1.22,1,1,0,0,0,.55.1c.18,0,.36-.17.54-.22a1.31,1.31,0,0,1,1.1.31Z"/></g><g class="cls-4"><path class="cls-5" d="M837.36,601.88a11.07,11.07,0,0,1-3.43.31c-.57-.06-1.14-.18-1.71-.22a9.87,9.87,0,0,0-1.72.1,23.24,23.24,0,0,1-3.43.22,16.74,16.74,0,0,1-3.43-.41v-.09a16.74,16.74,0,0,1,3.43-.41,23.24,23.24,0,0,1,3.43.22,9.87,9.87,0,0,0,1.72.1c.57,0,1.14-.16,1.71-.22a11.07,11.07,0,0,1,3.43.31Z"/></g><g class="cls-4"><path class="cls-5" d="M827,608.26a11.09,11.09,0,0,1-3.43.31c-.57-.06-1.14-.18-1.72-.22a9.82,9.82,0,0,0-1.71.1,23.24,23.24,0,0,1-3.43.22,16.65,16.65,0,0,1-3.43-.41v-.09a16.65,16.65,0,0,1,3.43-.41,23.24,23.24,0,0,1,3.43.22,9.82,9.82,0,0,0,1.71.1c.58,0,1.15-.16,1.72-.22a11.09,11.09,0,0,1,3.43.31Z"/></g><g class="cls-4"><path class="cls-5" d="M774.24,593.11a10.81,10.81,0,0,1,3.43-.32c.57.06,1.14.19,1.72.22a8.93,8.93,0,0,0,1.71-.1,24.69,24.69,0,0,1,3.43-.22,17.39,17.39,0,0,1,3.43.42v.08a17.39,17.39,0,0,1-3.43.42,24.69,24.69,0,0,1-3.43-.22,8.93,8.93,0,0,0-1.71-.1c-.58,0-1.15.16-1.72.22a11.1,11.1,0,0,1-3.43-.32Z"/></g><g class="cls-4"><path class="cls-5" d="M831.32,586.74a11.07,11.07,0,0,1-3.43.32c-.57-.07-1.14-.19-1.71-.22a9,9,0,0,0-1.72.09,24.6,24.6,0,0,1-3.43.23,17.48,17.48,0,0,1-3.43-.42v-.09a16.74,16.74,0,0,1,3.43-.41,24.59,24.59,0,0,1,3.43.22,9,9,0,0,0,1.72.1c.57,0,1.14-.16,1.71-.22a11.07,11.07,0,0,1,3.43.31Z"/></g><g class="cls-4"><path class="cls-5" d="M797.27,604.36a10.83,10.83,0,0,1,3.43-.32c.57.06,1.15.19,1.72.22a8.93,8.93,0,0,0,1.71-.1,24.79,24.79,0,0,1,3.43-.22,17.58,17.58,0,0,1,3.44.42v.08a17.58,17.58,0,0,1-3.44.42,24.79,24.79,0,0,1-3.43-.22,8.93,8.93,0,0,0-1.71-.1c-.57,0-1.15.16-1.72.22a11.13,11.13,0,0,1-3.43-.32Z"/></g><g class="cls-4"><path class="cls-5" d="M783.07,584.21a5.07,5.07,0,0,1,2.33-.31c.39.05.78.19,1.17.21a4.13,4.13,0,0,0,1.16-.09,11.6,11.6,0,0,1,2.34-.23,8,8,0,0,1,2.33.42v.09a8.34,8.34,0,0,1-2.33.41,10.91,10.91,0,0,1-2.34-.22,4.14,4.14,0,0,0-1.16-.1c-.39,0-.78.17-1.17.22a5.21,5.21,0,0,1-2.33-.31Z"/></g><g class="cls-4"><path class="cls-5" d="M839.08,595.86a1.31,1.31,0,0,1-1.09.32,4.85,4.85,0,0,0-.55-.22,1,1,0,0,0-.55.1,2.55,2.55,0,0,1-1.1.22,2.1,2.1,0,0,1-1.1-.42v-.08a2.1,2.1,0,0,1,1.1-.42,2.55,2.55,0,0,1,1.1.22,1,1,0,0,0,.55.1c.18,0,.36-.17.55-.22a1.27,1.27,0,0,1,1.09.32Z"/></g><g class="cls-4"><path class="cls-5" d="M769.65,607.9a1.31,1.31,0,0,1,1.09-.32,4.85,4.85,0,0,0,.55.22,1,1,0,0,0,.55-.1,2.55,2.55,0,0,1,1.1-.22,2.1,2.1,0,0,1,1.1.42V608a2.1,2.1,0,0,1-1.1.42,2.55,2.55,0,0,1-1.1-.22,1,1,0,0,0-.55-.1c-.18,0-.36.17-.55.22a1.27,1.27,0,0,1-1.09-.32Z"/></g><g class="cls-4"><path class="cls-5" d="M784.71,599.68a1.33,1.33,0,0,1,1.1-.31c.18,0,.37.19.55.22a1,1,0,0,0,.55-.1,2.55,2.55,0,0,1,1.1-.22,2.2,2.2,0,0,1,1.1.41v.09a2.13,2.13,0,0,1-1.1.42,2.72,2.72,0,0,1-1.1-.23,1,1,0,0,0-.55-.09,3.16,3.16,0,0,0-.55.22,1.33,1.33,0,0,1-1.1-.32Z"/></g><g class="cls-4"><path class="cls-5" d="M818.4,592.12a1.32,1.32,0,0,1-1.1.32,3.07,3.07,0,0,0-.54-.22,1,1,0,0,0-.55.09,2.59,2.59,0,0,1-1.1.23,2.1,2.1,0,0,1-1.1-.42V592a2.17,2.17,0,0,1,1.1-.41,2.58,2.58,0,0,1,1.1.22,1,1,0,0,0,.55.1c.18,0,.36-.17.54-.22a1.31,1.31,0,0,1,1.1.31Z"/></g><g class="cls-4"><path class="cls-5" d="M795.45,588.21a1.29,1.29,0,0,1,1.1-.31,4.13,4.13,0,0,0,.55.21,1,1,0,0,0,.55-.09,2.72,2.72,0,0,1,1.1-.23,2.13,2.13,0,0,1,1.1.42v.09a2.2,2.2,0,0,1-1.1.41,2.55,2.55,0,0,1-1.1-.22,1,1,0,0,0-.55-.1c-.18,0-.37.17-.55.22a1.33,1.33,0,0,1-1.1-.31Z"/></g><g class="cls-4"><path class="cls-5" d="M810.94,581.36a1.29,1.29,0,0,1-1.1.31,4.72,4.72,0,0,0-.55-.21,1,1,0,0,0-.55.09,2.72,2.72,0,0,1-1.1.23,2.13,2.13,0,0,1-1.1-.42v-.09a2.2,2.2,0,0,1,1.1-.41,2.55,2.55,0,0,1,1.1.22,1,1,0,0,0,.55.1c.18,0,.36-.17.55-.22a1.33,1.33,0,0,1,1.1.31Z"/></g><g class="cls-4"><path class="cls-5" d="M910.57,601.88a11.16,11.16,0,0,1-3.44.31c-.57-.06-1.14-.18-1.71-.22a10,10,0,0,0-1.72.1,23.16,23.16,0,0,1-3.43.22,16.82,16.82,0,0,1-3.43-.41v-.09a16.82,16.82,0,0,1,3.43-.41,23.16,23.16,0,0,1,3.43.22,10,10,0,0,0,1.72.1c.57,0,1.14-.16,1.71-.22a11.16,11.16,0,0,1,3.44.31Z"/></g><g class="cls-4"><path class="cls-5" d="M900.19,608.26a11.07,11.07,0,0,1-3.43.31c-.57-.06-1.14-.18-1.71-.22a9.93,9.93,0,0,0-1.72.1,23.24,23.24,0,0,1-3.43.22,16.74,16.74,0,0,1-3.43-.41v-.09a16.74,16.74,0,0,1,3.43-.41,23.24,23.24,0,0,1,3.43.22,9.93,9.93,0,0,0,1.72.1c.57,0,1.14-.16,1.71-.22a11.07,11.07,0,0,1,3.43.31Z"/></g><g class="cls-4"><path class="cls-5" d="M847.44,593.11a10.81,10.81,0,0,1,3.43-.32c.57.06,1.15.19,1.72.22a8.93,8.93,0,0,0,1.71-.1,24.79,24.79,0,0,1,3.43-.22,17.39,17.39,0,0,1,3.43.42v.08a17.39,17.39,0,0,1-3.43.42,24.79,24.79,0,0,1-3.43-.22,8.93,8.93,0,0,0-1.71-.1c-.57,0-1.15.16-1.72.22a11.1,11.1,0,0,1-3.43-.32Z"/></g><g class="cls-4"><path class="cls-5" d="M904.53,586.74a11.13,11.13,0,0,1-3.43.32c-.58-.07-1.15-.19-1.72-.22a9.06,9.06,0,0,0-1.72.09,24.6,24.6,0,0,1-3.43.23,17.57,17.57,0,0,1-3.43-.42v-.09a16.82,16.82,0,0,1,3.43-.41,24.59,24.59,0,0,1,3.43.22,9.08,9.08,0,0,0,1.72.1c.57,0,1.14-.16,1.72-.22a11.12,11.12,0,0,1,3.43.31Z"/></g><g class="cls-4"><path class="cls-5" d="M870.47,604.36a10.83,10.83,0,0,1,3.43-.32c.58.06,1.15.19,1.72.22a9.08,9.08,0,0,0,1.72-.1,24.59,24.59,0,0,1,3.43-.22,17.57,17.57,0,0,1,3.43.42v.08a17.57,17.57,0,0,1-3.43.42,24.59,24.59,0,0,1-3.43-.22,9.08,9.08,0,0,0-1.72-.1c-.57,0-1.14.16-1.72.22a11.13,11.13,0,0,1-3.43-.32Z"/></g><g class="cls-4"><path class="cls-5" d="M856.27,584.21a5.09,5.09,0,0,1,2.33-.31c.39.05.78.19,1.17.21a4.21,4.21,0,0,0,1.17-.09,11.44,11.44,0,0,1,2.33-.23,8,8,0,0,1,2.33.42v.09a8.28,8.28,0,0,1-2.33.41,10.76,10.76,0,0,1-2.33-.22,4.21,4.21,0,0,0-1.17-.1c-.39,0-.78.17-1.17.22a5.23,5.23,0,0,1-2.33-.31Z"/></g><g class="cls-4"><path class="cls-5" d="M912.29,595.86a1.33,1.33,0,0,1-1.1.32,4.2,4.2,0,0,0-.55-.22,1,1,0,0,0-.55.1,2.55,2.55,0,0,1-1.1.22,2.13,2.13,0,0,1-1.1-.42v-.08a2.13,2.13,0,0,1,1.1-.42,2.55,2.55,0,0,1,1.1.22,1,1,0,0,0,.55.1c.18,0,.37-.17.55-.22a1.3,1.3,0,0,1,1.1.32Z"/></g><g class="cls-4"><path class="cls-5" d="M842.85,607.9a1.32,1.32,0,0,1,1.1-.32,3.71,3.71,0,0,0,.55.22,1,1,0,0,0,.54-.1,2.58,2.58,0,0,1,1.1-.22,2.1,2.1,0,0,1,1.1.42V608a2.1,2.1,0,0,1-1.1.42,2.58,2.58,0,0,1-1.1-.22,1,1,0,0,0-.54-.1,5.25,5.25,0,0,0-.55.22,1.28,1.28,0,0,1-1.1-.32Z"/></g><g class="cls-4"><path class="cls-5" d="M857.92,599.68a1.3,1.3,0,0,1,1.09-.31c.19,0,.37.19.55.22a1,1,0,0,0,.55-.1,2.55,2.55,0,0,1,1.1-.22,2.17,2.17,0,0,1,1.1.41v.09a2.1,2.1,0,0,1-1.1.42,2.72,2.72,0,0,1-1.1-.23,1,1,0,0,0-.55-.09,3.5,3.5,0,0,0-.55.22,1.31,1.31,0,0,1-1.09-.32Z"/></g><g class="cls-4"><path class="cls-5" d="M891.6,592.12a1.31,1.31,0,0,1-1.09.32,3.5,3.5,0,0,0-.55-.22,1,1,0,0,0-.55.09,2.56,2.56,0,0,1-1.1.23,2.13,2.13,0,0,1-1.1-.42V592a2.2,2.2,0,0,1,1.1-.41,2.55,2.55,0,0,1,1.1.22,1,1,0,0,0,.55.1c.18,0,.36-.17.55-.22a1.3,1.3,0,0,1,1.09.31Z"/></g><g class="cls-4"><path class="cls-5" d="M868.66,588.21a1.26,1.26,0,0,1,1.09-.31,4.72,4.72,0,0,0,.55.21,1,1,0,0,0,.55-.09,2.72,2.72,0,0,1,1.1-.23,2.1,2.1,0,0,1,1.1.42v.09a2.17,2.17,0,0,1-1.1.41,2.55,2.55,0,0,1-1.1-.22,1,1,0,0,0-.55-.1c-.18,0-.36.17-.55.22a1.3,1.3,0,0,1-1.09-.31Z"/></g><g class="cls-4"><path class="cls-5" d="M884.14,581.36a1.28,1.28,0,0,1-1.1.31,4.13,4.13,0,0,0-.55-.21,1,1,0,0,0-.55.09,2.68,2.68,0,0,1-1.1.23,2.07,2.07,0,0,1-1.09-.42v-.09a2.13,2.13,0,0,1,1.09-.41,2.52,2.52,0,0,1,1.1.22,1,1,0,0,0,.55.1c.18,0,.37-.17.55-.22a1.32,1.32,0,0,1,1.1.31Z"/></g><g class="cls-4"><path class="cls-5" d="M983.77,601.88a11.12,11.12,0,0,1-3.43.31c-.57-.06-1.15-.18-1.72-.22a9.82,9.82,0,0,0-1.71.1,23.33,23.33,0,0,1-3.43.22,16.83,16.83,0,0,1-3.44-.41v-.09a16.83,16.83,0,0,1,3.44-.41,23.33,23.33,0,0,1,3.43.22,9.82,9.82,0,0,0,1.71.1c.57,0,1.15-.16,1.72-.22a11.12,11.12,0,0,1,3.43.31Z"/></g><g class="cls-4"><path class="cls-5" d="M973.4,608.26a11.16,11.16,0,0,1-3.44.31c-.57-.06-1.14-.18-1.71-.22a10,10,0,0,0-1.72.1,23.16,23.16,0,0,1-3.43.22,16.82,16.82,0,0,1-3.43-.41v-.09a16.82,16.82,0,0,1,3.43-.41,23.16,23.16,0,0,1,3.43.22,10,10,0,0,0,1.72.1c.57,0,1.14-.16,1.71-.22a11.16,11.16,0,0,1,3.44.31Z"/></g><g class="cls-4"><path class="cls-5" d="M920.64,593.11a10.83,10.83,0,0,1,3.43-.32c.58.06,1.15.19,1.72.22a9.08,9.08,0,0,0,1.72-.1,24.59,24.59,0,0,1,3.43-.22,17.57,17.57,0,0,1,3.43.42v.08a17.57,17.57,0,0,1-3.43.42,24.59,24.59,0,0,1-3.43-.22,9.08,9.08,0,0,0-1.72-.1c-.57,0-1.14.16-1.72.22a11.13,11.13,0,0,1-3.43-.32Z"/></g><g class="cls-4"><path class="cls-5" d="M977.73,586.74a11.1,11.1,0,0,1-3.43.32c-.57-.07-1.15-.19-1.72-.22a8.92,8.92,0,0,0-1.71.09,24.81,24.81,0,0,1-3.43.23,17.39,17.39,0,0,1-3.43-.42v-.09a16.65,16.65,0,0,1,3.43-.41,24.79,24.79,0,0,1,3.43.22,8.93,8.93,0,0,0,1.71.1c.57,0,1.15-.16,1.72-.22a11.09,11.09,0,0,1,3.43.31Z"/></g><g class="cls-4"><path class="cls-5" d="M943.68,604.36a10.78,10.78,0,0,1,3.43-.32c.57.06,1.14.19,1.71.22a9,9,0,0,0,1.72-.1,24.69,24.69,0,0,1,3.43-.22,17.48,17.48,0,0,1,3.43.42v.08a17.48,17.48,0,0,1-3.43.42,24.69,24.69,0,0,1-3.43-.22,9,9,0,0,0-1.72-.1c-.57,0-1.14.16-1.71.22a11.07,11.07,0,0,1-3.43-.32Z"/></g><g class="cls-4"><path class="cls-5" d="M929.47,584.21a5.11,5.11,0,0,1,2.33-.31c.39.05.78.19,1.17.21a4.21,4.21,0,0,0,1.17-.09,11.51,11.51,0,0,1,2.33-.23,7.9,7.9,0,0,1,2.33.42v.09a8.22,8.22,0,0,1-2.33.41,10.82,10.82,0,0,1-2.33-.22,4.21,4.21,0,0,0-1.17-.1c-.39,0-.78.17-1.17.22a5.24,5.24,0,0,1-2.33-.31Z"/></g><g class="cls-4"><path class="cls-5" d="M985.49,595.86a1.33,1.33,0,0,1-1.1.32,3.71,3.71,0,0,0-.55-.22,1,1,0,0,0-.55.1,2.5,2.5,0,0,1-1.09.22,2.07,2.07,0,0,1-1.1-.42v-.08a2.07,2.07,0,0,1,1.1-.42,2.5,2.5,0,0,1,1.09.22,1,1,0,0,0,.55.1,5.25,5.25,0,0,0,.55-.22,1.29,1.29,0,0,1,1.1.32Z"/></g><g class="cls-4"><path class="cls-5" d="M916.05,607.9a1.33,1.33,0,0,1,1.1-.32,4.2,4.2,0,0,0,.55.22,1,1,0,0,0,.55-.1,2.52,2.52,0,0,1,1.1-.22,2.07,2.07,0,0,1,1.09.42V608a2.07,2.07,0,0,1-1.09.42,2.52,2.52,0,0,1-1.1-.22,1,1,0,0,0-.55-.1c-.18,0-.37.17-.55.22a1.29,1.29,0,0,1-1.1-.32Z"/></g><g class="cls-4"><path class="cls-5" d="M931.12,599.68a1.31,1.31,0,0,1,1.1-.31,5.25,5.25,0,0,0,.55.22,1,1,0,0,0,.54-.1,2.58,2.58,0,0,1,1.1-.22,2.17,2.17,0,0,1,1.1.41v.09a2.1,2.1,0,0,1-1.1.42,2.75,2.75,0,0,1-1.1-.23.94.94,0,0,0-.54-.09,2.87,2.87,0,0,0-.55.22,1.32,1.32,0,0,1-1.1-.32Z"/></g><g class="cls-4"><path class="cls-5" d="M964.81,592.12a1.33,1.33,0,0,1-1.1.32,3.16,3.16,0,0,0-.55-.22,1,1,0,0,0-.55.09,2.53,2.53,0,0,1-1.1.23,2.07,2.07,0,0,1-1.09-.42V592a2.13,2.13,0,0,1,1.09-.41,2.52,2.52,0,0,1,1.1.22,1,1,0,0,0,.55.1c.18,0,.37-.17.55-.22a1.32,1.32,0,0,1,1.1.31Z"/></g><g class="cls-4"><path class="cls-5" d="M941.86,588.21a1.28,1.28,0,0,1,1.1-.31,4,4,0,0,0,.54.21,1,1,0,0,0,.55-.09,2.75,2.75,0,0,1,1.1-.23,2.1,2.1,0,0,1,1.1.42v.09a2.17,2.17,0,0,1-1.1.41,2.58,2.58,0,0,1-1.1-.22,1,1,0,0,0-.55-.1c-.18,0-.36.17-.54.22a1.31,1.31,0,0,1-1.1-.31Z"/></g><g class="cls-4"><path class="cls-5" d="M957.34,581.36a1.28,1.28,0,0,1-1.1.31,3.66,3.66,0,0,0-.55-.21,1,1,0,0,0-.55.09,2.67,2.67,0,0,1-1.09.23,2.07,2.07,0,0,1-1.1-.42v-.09a2.13,2.13,0,0,1,1.1-.41,2.5,2.5,0,0,1,1.09.22,1,1,0,0,0,.55.1,5.25,5.25,0,0,0,.55-.22,1.32,1.32,0,0,1,1.1.31Z"/></g><g class="cls-4"><path class="cls-5" d="M1057,601.88a11.09,11.09,0,0,1-3.43.31c-.57-.06-1.14-.18-1.72-.22a9.82,9.82,0,0,0-1.71.1,23.33,23.33,0,0,1-3.43.22,16.65,16.65,0,0,1-3.43-.41v-.09a16.65,16.65,0,0,1,3.43-.41,23.33,23.33,0,0,1,3.43.22,9.82,9.82,0,0,0,1.71.1c.58,0,1.15-.16,1.72-.22a11.09,11.09,0,0,1,3.43.31Z"/></g><g class="cls-4"><path class="cls-5" d="M1046.6,608.26a11.12,11.12,0,0,1-3.43.31c-.57-.06-1.15-.18-1.72-.22a9.82,9.82,0,0,0-1.71.1,23.33,23.33,0,0,1-3.43.22,16.83,16.83,0,0,1-3.44-.41v-.09a16.83,16.83,0,0,1,3.44-.41,23.33,23.33,0,0,1,3.43.22,9.82,9.82,0,0,0,1.71.1c.57,0,1.15-.16,1.72-.22a11.12,11.12,0,0,1,3.43.31Z"/></g><g class="cls-4"><path class="cls-5" d="M993.85,593.11a10.78,10.78,0,0,1,3.43-.32c.57.06,1.14.19,1.71.22a9,9,0,0,0,1.72-.1,24.69,24.69,0,0,1,3.43-.22,17.48,17.48,0,0,1,3.43.42v.08a17.48,17.48,0,0,1-3.43.42,24.69,24.69,0,0,1-3.43-.22,9,9,0,0,0-1.72-.1c-.57,0-1.14.16-1.71.22a11.07,11.07,0,0,1-3.43-.32Z"/></g><g class="cls-4"><path class="cls-5" d="M1050.93,586.74a11.1,11.1,0,0,1-3.43.32c-.57-.07-1.14-.19-1.71-.22a9,9,0,0,0-1.72.09,24.71,24.71,0,0,1-3.43.23,17.48,17.48,0,0,1-3.43-.42v-.09a16.74,16.74,0,0,1,3.43-.41,24.69,24.69,0,0,1,3.43.22,9,9,0,0,0,1.72.1c.57,0,1.14-.16,1.71-.22a11.09,11.09,0,0,1,3.43.31Z"/></g><g class="cls-4"><path class="cls-5" d="M1016.88,604.36a10.81,10.81,0,0,1,3.43-.32c.57.06,1.14.19,1.72.22a8.93,8.93,0,0,0,1.71-.1,24.69,24.69,0,0,1,3.43-.22,17.39,17.39,0,0,1,3.43.42v.08a17.39,17.39,0,0,1-3.43.42,24.69,24.69,0,0,1-3.43-.22,8.93,8.93,0,0,0-1.71-.1c-.58,0-1.15.16-1.72.22a11.1,11.1,0,0,1-3.43-.32Z"/></g><g class="cls-4"><path class="cls-5" d="M1002.67,584.21a5.13,5.13,0,0,1,2.34-.31c.39.05.77.19,1.16.21a4.21,4.21,0,0,0,1.17-.09,11.58,11.58,0,0,1,2.33-.23,8,8,0,0,1,2.34.42v.09a8.35,8.35,0,0,1-2.34.41,10.88,10.88,0,0,1-2.33-.22,4.21,4.21,0,0,0-1.17-.1c-.39,0-.77.17-1.16.22a5.27,5.27,0,0,1-2.34-.31Z"/></g><g class="cls-4"><path class="cls-5" d="M1058.69,595.86a1.32,1.32,0,0,1-1.1.32,3.71,3.71,0,0,0-.55-.22,1,1,0,0,0-.54.1,2.58,2.58,0,0,1-1.1.22,2.1,2.1,0,0,1-1.1-.42v-.08a2.1,2.1,0,0,1,1.1-.42,2.58,2.58,0,0,1,1.1.22,1,1,0,0,0,.54.1,5.25,5.25,0,0,0,.55-.22,1.28,1.28,0,0,1,1.1.32Z"/></g><g class="cls-4"><path class="cls-5" d="M989.25,607.9a1.33,1.33,0,0,1,1.1-.32,4.2,4.2,0,0,0,.55.22,1,1,0,0,0,.55-.1,2.55,2.55,0,0,1,1.1-.22,2.13,2.13,0,0,1,1.1.42V608a2.13,2.13,0,0,1-1.1.42,2.55,2.55,0,0,1-1.1-.22,1,1,0,0,0-.55-.1c-.18,0-.37.17-.55.22a1.3,1.3,0,0,1-1.1-.32Z"/></g><g class="cls-4"><path class="cls-5" d="M1004.32,599.68a1.32,1.32,0,0,1,1.1-.31,5.25,5.25,0,0,0,.55.22,1,1,0,0,0,.55-.1,2.5,2.5,0,0,1,1.09-.22,2.13,2.13,0,0,1,1.1.41v.09a2.07,2.07,0,0,1-1.1.42,2.67,2.67,0,0,1-1.09-.23,1,1,0,0,0-.55-.09,2.87,2.87,0,0,0-.55.22,1.33,1.33,0,0,1-1.1-.32Z"/></g><g class="cls-4"><path class="cls-5" d="M1038,592.12a1.33,1.33,0,0,1-1.1.32,2.87,2.87,0,0,0-.55-.22,1,1,0,0,0-.55.09,2.52,2.52,0,0,1-1.09.23,2.07,2.07,0,0,1-1.1-.42V592a2.13,2.13,0,0,1,1.1-.41,2.5,2.5,0,0,1,1.09.22,1,1,0,0,0,.55.1,5.25,5.25,0,0,0,.55-.22,1.32,1.32,0,0,1,1.1.31Z"/></g><g class="cls-4"><path class="cls-5" d="M1015.06,588.21a1.28,1.28,0,0,1,1.1-.31,3.66,3.66,0,0,0,.55.21,1,1,0,0,0,.55-.09,2.67,2.67,0,0,1,1.09-.23,2.07,2.07,0,0,1,1.1.42v.09a2.13,2.13,0,0,1-1.1.41,2.5,2.5,0,0,1-1.09-.22,1,1,0,0,0-.55-.1,5.25,5.25,0,0,0-.55.22,1.32,1.32,0,0,1-1.1-.31Z"/></g><g class="cls-4"><path class="cls-5" d="M1030.54,581.36a1.28,1.28,0,0,1-1.1.31,4,4,0,0,0-.54-.21,1,1,0,0,0-.55.09,2.75,2.75,0,0,1-1.1.23,2.1,2.1,0,0,1-1.1-.42v-.09a2.17,2.17,0,0,1,1.1-.41,2.58,2.58,0,0,1,1.1.22,1,1,0,0,0,.55.1c.18,0,.36-.17.54-.22a1.31,1.31,0,0,1,1.1.31Z"/></g><g class="cls-4"><path class="cls-5" d="M253.69,601.88a11.12,11.12,0,0,1-3.43.31c-.57-.06-1.15-.18-1.72-.22a9.82,9.82,0,0,0-1.71.1,23.33,23.33,0,0,1-3.43.22,16.83,16.83,0,0,1-3.44-.41v-.09a16.83,16.83,0,0,1,3.44-.41,23.33,23.33,0,0,1,3.43.22,9.82,9.82,0,0,0,1.71.1c.57,0,1.15-.16,1.72-.22a11.12,11.12,0,0,1,3.43.31Z"/></g><g class="cls-4"><path class="cls-5" d="M243.32,608.26a11.12,11.12,0,0,1-3.43.31c-.58-.06-1.15-.18-1.72-.22a10,10,0,0,0-1.72.1,23.16,23.16,0,0,1-3.43.22,16.82,16.82,0,0,1-3.43-.41v-.09a16.82,16.82,0,0,1,3.43-.41,23.16,23.16,0,0,1,3.43.22,10,10,0,0,0,1.72.1c.57,0,1.14-.16,1.72-.22a11.12,11.12,0,0,1,3.43.31Z"/></g><g class="cls-4"><path class="cls-5" d="M190.56,593.11a10.87,10.87,0,0,1,3.44-.32c.57.06,1.14.19,1.71.22a9.08,9.08,0,0,0,1.72-.1,24.59,24.59,0,0,1,3.43-.22,17.57,17.57,0,0,1,3.43.42v.08a17.57,17.57,0,0,1-3.43.42,24.59,24.59,0,0,1-3.43-.22,9.08,9.08,0,0,0-1.72-.1c-.57,0-1.14.16-1.71.22a11.17,11.17,0,0,1-3.44-.32Z"/></g><g class="cls-4"><path class="cls-5" d="M247.65,586.74a11.1,11.1,0,0,1-3.43.32c-.57-.07-1.14-.19-1.72-.22a8.92,8.92,0,0,0-1.71.09,24.81,24.81,0,0,1-3.43.23,17.39,17.39,0,0,1-3.43-.42v-.09a16.65,16.65,0,0,1,3.43-.41,24.79,24.79,0,0,1,3.43.22,8.93,8.93,0,0,0,1.71.1c.58,0,1.15-.16,1.72-.22a11.09,11.09,0,0,1,3.43.31Z"/></g><g class="cls-4"><path class="cls-5" d="M213.6,604.36A10.78,10.78,0,0,1,217,604c.57.06,1.14.19,1.71.22a9,9,0,0,0,1.72-.1,24.69,24.69,0,0,1,3.43-.22,17.48,17.48,0,0,1,3.43.42v.08a17.48,17.48,0,0,1-3.43.42,24.69,24.69,0,0,1-3.43-.22,9,9,0,0,0-1.72-.1c-.57,0-1.14.16-1.71.22a11.07,11.07,0,0,1-3.43-.32Z"/></g><g class="cls-4"><path class="cls-5" d="M199.39,584.21a5.13,5.13,0,0,1,2.34-.31c.38.05.77.19,1.16.21a4.21,4.21,0,0,0,1.17-.09,11.51,11.51,0,0,1,2.33-.23,7.9,7.9,0,0,1,2.33.42v.09a8.22,8.22,0,0,1-2.33.41,10.82,10.82,0,0,1-2.33-.22,4.21,4.21,0,0,0-1.17-.1c-.39,0-.78.17-1.16.22a5.27,5.27,0,0,1-2.34-.31Z"/></g><g class="cls-4"><path class="cls-5" d="M255.41,595.86a1.33,1.33,0,0,1-1.1.32,3.71,3.71,0,0,0-.55-.22,1,1,0,0,0-.55.1,2.5,2.5,0,0,1-1.09.22,2.07,2.07,0,0,1-1.1-.42v-.08a2.07,2.07,0,0,1,1.1-.42,2.5,2.5,0,0,1,1.09.22,1,1,0,0,0,.55.1,5.25,5.25,0,0,0,.55-.22,1.29,1.29,0,0,1,1.1.32Z"/></g><g class="cls-4"><path class="cls-5" d="M186,607.9a1.33,1.33,0,0,1,1.1-.32,4.2,4.2,0,0,0,.55.22,1,1,0,0,0,.55-.1,2.52,2.52,0,0,1,1.1-.22,2.07,2.07,0,0,1,1.09.42V608a2.07,2.07,0,0,1-1.09.42,2.52,2.52,0,0,1-1.1-.22,1,1,0,0,0-.55-.1c-.18,0-.37.17-.55.22A1.29,1.29,0,0,1,186,608Z"/></g><g class="cls-4"><path class="cls-5" d="M201,599.68a1.32,1.32,0,0,1,1.1-.31,5.25,5.25,0,0,0,.55.22,1,1,0,0,0,.55-.1,2.5,2.5,0,0,1,1.09-.22,2.17,2.17,0,0,1,1.1.41v.09a2.1,2.1,0,0,1-1.1.42,2.67,2.67,0,0,1-1.09-.23,1,1,0,0,0-.55-.09,2.87,2.87,0,0,0-.55.22,1.33,1.33,0,0,1-1.1-.32Z"/></g><g class="cls-4"><path class="cls-5" d="M234.73,592.12a1.33,1.33,0,0,1-1.1.32,3.16,3.16,0,0,0-.55-.22,1,1,0,0,0-.55.09,2.53,2.53,0,0,1-1.1.23,2.07,2.07,0,0,1-1.09-.42V592a2.13,2.13,0,0,1,1.09-.41,2.52,2.52,0,0,1,1.1.22,1,1,0,0,0,.55.1c.18,0,.37-.17.55-.22a1.32,1.32,0,0,1,1.1.31Z"/></g><g class="cls-4"><path class="cls-5" d="M211.78,588.21a1.28,1.28,0,0,1,1.1-.31,3.66,3.66,0,0,0,.55.21A.94.94,0,0,0,214,588a2.75,2.75,0,0,1,1.1-.23,2.1,2.1,0,0,1,1.1.42v.09a2.17,2.17,0,0,1-1.1.41,2.58,2.58,0,0,1-1.1-.22,1,1,0,0,0-.54-.1,5.25,5.25,0,0,0-.55.22,1.31,1.31,0,0,1-1.1-.31Z"/></g><g class="cls-4"><path class="cls-5" d="M227.26,581.36a1.28,1.28,0,0,1-1.1.31,3.66,3.66,0,0,0-.55-.21,1,1,0,0,0-.55.09,2.67,2.67,0,0,1-1.09.23,2.07,2.07,0,0,1-1.1-.42v-.09a2.13,2.13,0,0,1,1.1-.41,2.5,2.5,0,0,1,1.09.22,1,1,0,0,0,.55.1,5.25,5.25,0,0,0,.55-.22,1.32,1.32,0,0,1,1.1.31Z"/></g><g class="cls-4"><path class="cls-5" d="M326.89,601.88a11.09,11.09,0,0,1-3.43.31c-.57-.06-1.14-.18-1.72-.22a9.82,9.82,0,0,0-1.71.1,23.24,23.24,0,0,1-3.43.22,16.65,16.65,0,0,1-3.43-.41v-.09a16.65,16.65,0,0,1,3.43-.41,23.24,23.24,0,0,1,3.43.22,9.82,9.82,0,0,0,1.71.1c.58,0,1.15-.16,1.72-.22a11.09,11.09,0,0,1,3.43.31Z"/></g><g class="cls-4"><path class="cls-5" d="M316.52,608.26a11.09,11.09,0,0,1-3.43.31c-.57-.06-1.15-.18-1.72-.22a9.82,9.82,0,0,0-1.71.1,23.33,23.33,0,0,1-3.43.22,16.83,16.83,0,0,1-3.44-.41v-.09a16.83,16.83,0,0,1,3.44-.41,23.33,23.33,0,0,1,3.43.22,9.82,9.82,0,0,0,1.71.1c.57,0,1.15-.16,1.72-.22a11.09,11.09,0,0,1,3.43.31Z"/></g><g class="cls-4"><path class="cls-5" d="M263.77,593.11a10.78,10.78,0,0,1,3.43-.32c.57.06,1.14.19,1.71.22a9,9,0,0,0,1.72-.1,24.69,24.69,0,0,1,3.43-.22,17.48,17.48,0,0,1,3.43.42v.08a17.48,17.48,0,0,1-3.43.42,24.69,24.69,0,0,1-3.43-.22,9,9,0,0,0-1.72-.1c-.57,0-1.14.16-1.71.22a11.07,11.07,0,0,1-3.43-.32Z"/></g><g class="cls-4"><path class="cls-5" d="M320.85,586.74a11.1,11.1,0,0,1-3.43.32c-.57-.07-1.14-.19-1.71-.22a9,9,0,0,0-1.72.09,24.71,24.71,0,0,1-3.43.23,17.48,17.48,0,0,1-3.43-.42v-.09a16.74,16.74,0,0,1,3.43-.41,24.69,24.69,0,0,1,3.43.22,9,9,0,0,0,1.72.1c.57,0,1.14-.16,1.71-.22a11.09,11.09,0,0,1,3.43.31Z"/></g><g class="cls-4"><path class="cls-5" d="M286.8,604.36a10.81,10.81,0,0,1,3.43-.32c.57.06,1.14.19,1.72.22a8.93,8.93,0,0,0,1.71-.1,24.69,24.69,0,0,1,3.43-.22,17.39,17.39,0,0,1,3.43.42v.08a17.39,17.39,0,0,1-3.43.42,24.69,24.69,0,0,1-3.43-.22,8.93,8.93,0,0,0-1.71-.1c-.58,0-1.15.16-1.72.22a11.1,11.1,0,0,1-3.43-.32Z"/></g><g class="cls-4"><path class="cls-5" d="M272.59,584.21a5.13,5.13,0,0,1,2.34-.31c.39.05.78.19,1.16.21a4.21,4.21,0,0,0,1.17-.09,11.58,11.58,0,0,1,2.33-.23,8,8,0,0,1,2.34.42v.09a8.35,8.35,0,0,1-2.34.41,10.88,10.88,0,0,1-2.33-.22,4.21,4.21,0,0,0-1.17-.1c-.38,0-.77.17-1.16.22a5.27,5.27,0,0,1-2.34-.31Z"/></g><g class="cls-4"><path class="cls-5" d="M328.61,595.86a1.32,1.32,0,0,1-1.1.32A4.08,4.08,0,0,0,327,596a1,1,0,0,0-.55.1,2.58,2.58,0,0,1-1.1.22,2.1,2.1,0,0,1-1.1-.42v-.08a2.1,2.1,0,0,1,1.1-.42,2.58,2.58,0,0,1,1.1.22,1,1,0,0,0,.55.1c.18,0,.36-.17.54-.22a1.28,1.28,0,0,1,1.1.32Z"/></g><g class="cls-4"><path class="cls-5" d="M259.17,607.9a1.33,1.33,0,0,1,1.1-.32,4.85,4.85,0,0,0,.55.22,1,1,0,0,0,.55-.1,2.55,2.55,0,0,1,1.1-.22,2.13,2.13,0,0,1,1.1.42V608a2.13,2.13,0,0,1-1.1.42,2.55,2.55,0,0,1-1.1-.22,1,1,0,0,0-.55-.1c-.18,0-.36.17-.55.22a1.3,1.3,0,0,1-1.1-.32Z"/></g><g class="cls-4"><path class="cls-5" d="M274.24,599.68a1.32,1.32,0,0,1,1.1-.31c.18,0,.37.19.55.22a1,1,0,0,0,.55-.1,2.52,2.52,0,0,1,1.1-.22,2.13,2.13,0,0,1,1.09.41v.09a2.07,2.07,0,0,1-1.09.42,2.68,2.68,0,0,1-1.1-.23,1,1,0,0,0-.55-.09,3.16,3.16,0,0,0-.55.22,1.33,1.33,0,0,1-1.1-.32Z"/></g><g class="cls-4"><path class="cls-5" d="M307.93,592.12a1.33,1.33,0,0,1-1.1.32,2.87,2.87,0,0,0-.55-.22,1,1,0,0,0-.55.09,2.52,2.52,0,0,1-1.09.23,2.07,2.07,0,0,1-1.1-.42V592a2.13,2.13,0,0,1,1.1-.41,2.5,2.5,0,0,1,1.09.22,1,1,0,0,0,.55.1,5.25,5.25,0,0,0,.55-.22,1.32,1.32,0,0,1,1.1.31Z"/></g><g class="cls-4"><path class="cls-5" d="M285,588.21a1.28,1.28,0,0,1,1.1-.31,3.66,3.66,0,0,0,.55.21,1,1,0,0,0,.55-.09,2.67,2.67,0,0,1,1.09-.23,2.07,2.07,0,0,1,1.1.42v.09a2.13,2.13,0,0,1-1.1.41,2.5,2.5,0,0,1-1.09-.22,1,1,0,0,0-.55-.1,5.25,5.25,0,0,0-.55.22,1.32,1.32,0,0,1-1.1-.31Z"/></g><g class="cls-4"><path class="cls-5" d="M300.46,581.36a1.28,1.28,0,0,1-1.1.31,4,4,0,0,0-.54-.21,1,1,0,0,0-.55.09,2.72,2.72,0,0,1-1.1.23,2.1,2.1,0,0,1-1.1-.42v-.09a2.17,2.17,0,0,1,1.1-.41,2.55,2.55,0,0,1,1.1.22,1,1,0,0,0,.55.1c.18,0,.36-.17.54-.22a1.31,1.31,0,0,1,1.1.31Z"/></g><g class="cls-4"><path class="cls-5" d="M400.09,601.88a11.07,11.07,0,0,1-3.43.31c-.57-.06-1.14-.18-1.71-.22a9.87,9.87,0,0,0-1.72.1,23.24,23.24,0,0,1-3.43.22,16.74,16.74,0,0,1-3.43-.41v-.09a16.74,16.74,0,0,1,3.43-.41,23.24,23.24,0,0,1,3.43.22,9.87,9.87,0,0,0,1.72.1c.57,0,1.14-.16,1.71-.22a11.07,11.07,0,0,1,3.43.31Z"/></g><g class="cls-4"><path class="cls-5" d="M389.72,608.26a11.09,11.09,0,0,1-3.43.31c-.57-.06-1.14-.18-1.72-.22a9.82,9.82,0,0,0-1.71.1,23.24,23.24,0,0,1-3.43.22,16.65,16.65,0,0,1-3.43-.41v-.09a16.65,16.65,0,0,1,3.43-.41,23.24,23.24,0,0,1,3.43.22,9.82,9.82,0,0,0,1.71.1c.58,0,1.15-.16,1.72-.22a11.09,11.09,0,0,1,3.43.31Z"/></g><g class="cls-4"><path class="cls-5" d="M337,593.11a10.81,10.81,0,0,1,3.43-.32c.57.06,1.14.19,1.72.22a8.93,8.93,0,0,0,1.71-.1,24.69,24.69,0,0,1,3.43-.22,17.39,17.39,0,0,1,3.43.42v.08a17.39,17.39,0,0,1-3.43.42,24.69,24.69,0,0,1-3.43-.22,8.93,8.93,0,0,0-1.71-.1c-.58,0-1.15.16-1.72.22a11.1,11.1,0,0,1-3.43-.32Z"/></g><g class="cls-4"><path class="cls-5" d="M394.05,586.74a11.07,11.07,0,0,1-3.43.32c-.57-.07-1.14-.19-1.71-.22a9,9,0,0,0-1.72.09,24.6,24.6,0,0,1-3.43.23,17.48,17.48,0,0,1-3.43-.42v-.09a16.74,16.74,0,0,1,3.43-.41,24.59,24.59,0,0,1,3.43.22,9,9,0,0,0,1.72.1c.57,0,1.14-.16,1.71-.22a11.07,11.07,0,0,1,3.43.31Z"/></g><g class="cls-4"><path class="cls-5" d="M360,604.36a10.83,10.83,0,0,1,3.43-.32c.57.06,1.15.19,1.72.22a8.93,8.93,0,0,0,1.71-.1,24.79,24.79,0,0,1,3.43-.22,17.58,17.58,0,0,1,3.44.42v.08a17.58,17.58,0,0,1-3.44.42,24.79,24.79,0,0,1-3.43-.22,8.93,8.93,0,0,0-1.71-.1c-.57,0-1.15.16-1.72.22a11.13,11.13,0,0,1-3.43-.32Z"/></g><g class="cls-4"><path class="cls-5" d="M345.8,584.21a5.07,5.07,0,0,1,2.33-.31c.39.05.78.19,1.17.21a4.13,4.13,0,0,0,1.16-.09,11.6,11.6,0,0,1,2.34-.23,8,8,0,0,1,2.33.42v.09a8.34,8.34,0,0,1-2.33.41,10.91,10.91,0,0,1-2.34-.22,4.14,4.14,0,0,0-1.16-.1c-.39,0-.78.17-1.17.22a5.21,5.21,0,0,1-2.33-.31Z"/></g><g class="cls-4"><path class="cls-5" d="M401.81,595.86a1.31,1.31,0,0,1-1.09.32,4.85,4.85,0,0,0-.55-.22,1,1,0,0,0-.55.1,2.55,2.55,0,0,1-1.1.22,2.1,2.1,0,0,1-1.1-.42v-.08a2.1,2.1,0,0,1,1.1-.42,2.55,2.55,0,0,1,1.1.22,1,1,0,0,0,.55.1c.18,0,.36-.17.55-.22a1.27,1.27,0,0,1,1.09.32Z"/></g><g class="cls-4"><path class="cls-5" d="M332.38,607.9a1.31,1.31,0,0,1,1.09-.32,4.85,4.85,0,0,0,.55.22,1,1,0,0,0,.55-.1,2.55,2.55,0,0,1,1.1-.22,2.1,2.1,0,0,1,1.1.42V608a2.1,2.1,0,0,1-1.1.42,2.55,2.55,0,0,1-1.1-.22,1,1,0,0,0-.55-.1c-.18,0-.36.17-.55.22a1.27,1.27,0,0,1-1.09-.32Z"/></g><g class="cls-4"><path class="cls-5" d="M347.44,599.68a1.33,1.33,0,0,1,1.1-.31c.18,0,.37.19.55.22a1,1,0,0,0,.55-.1,2.55,2.55,0,0,1,1.1-.22,2.2,2.2,0,0,1,1.1.41v.09a2.13,2.13,0,0,1-1.1.42,2.72,2.72,0,0,1-1.1-.23,1,1,0,0,0-.55-.09,3.16,3.16,0,0,0-.55.22,1.33,1.33,0,0,1-1.1-.32Z"/></g><g class="cls-4"><path class="cls-5" d="M381.13,592.12a1.32,1.32,0,0,1-1.1.32,3.07,3.07,0,0,0-.54-.22,1,1,0,0,0-.55.09,2.59,2.59,0,0,1-1.1.23,2.1,2.1,0,0,1-1.1-.42V592a2.17,2.17,0,0,1,1.1-.41,2.58,2.58,0,0,1,1.1.22,1,1,0,0,0,.55.1c.18,0,.36-.17.54-.22a1.31,1.31,0,0,1,1.1.31Z"/></g><g class="cls-4"><path class="cls-5" d="M358.18,588.21a1.29,1.29,0,0,1,1.1-.31,4.13,4.13,0,0,0,.55.21,1,1,0,0,0,.55-.09,2.72,2.72,0,0,1,1.1-.23,2.13,2.13,0,0,1,1.1.42v.09a2.2,2.2,0,0,1-1.1.41,2.55,2.55,0,0,1-1.1-.22,1,1,0,0,0-.55-.1c-.18,0-.37.17-.55.22a1.33,1.33,0,0,1-1.1-.31Z"/></g><g class="cls-4"><path class="cls-5" d="M373.67,581.36a1.29,1.29,0,0,1-1.1.31,4.72,4.72,0,0,0-.55-.21,1,1,0,0,0-.55.09,2.72,2.72,0,0,1-1.1.23,2.13,2.13,0,0,1-1.1-.42v-.09a2.2,2.2,0,0,1,1.1-.41,2.55,2.55,0,0,1,1.1.22,1,1,0,0,0,.55.1c.18,0,.36-.17.55-.22a1.33,1.33,0,0,1,1.1.31Z"/></g><g class="cls-4"><path class="cls-5" d="M473.3,601.88a11.16,11.16,0,0,1-3.44.31c-.57-.06-1.14-.18-1.71-.22a10,10,0,0,0-1.72.1,23.16,23.16,0,0,1-3.43.22,16.82,16.82,0,0,1-3.43-.41v-.09a16.82,16.82,0,0,1,3.43-.41,23.16,23.16,0,0,1,3.43.22,10,10,0,0,0,1.72.1c.57,0,1.14-.16,1.71-.22a11.16,11.16,0,0,1,3.44.31Z"/></g><g class="cls-4"><path class="cls-5" d="M462.92,608.26a11.07,11.07,0,0,1-3.43.31c-.57-.06-1.14-.18-1.71-.22a9.93,9.93,0,0,0-1.72.1,23.24,23.24,0,0,1-3.43.22,16.74,16.74,0,0,1-3.43-.41v-.09a16.74,16.74,0,0,1,3.43-.41,23.24,23.24,0,0,1,3.43.22,9.93,9.93,0,0,0,1.72.1c.57,0,1.14-.16,1.71-.22a11.07,11.07,0,0,1,3.43.31Z"/></g><g class="cls-4"><path class="cls-5" d="M410.17,593.11a10.83,10.83,0,0,1,3.43-.32c.57.06,1.15.19,1.72.22a8.93,8.93,0,0,0,1.71-.1,24.79,24.79,0,0,1,3.43-.22,17.58,17.58,0,0,1,3.44.42v.08a17.58,17.58,0,0,1-3.44.42,24.79,24.79,0,0,1-3.43-.22,8.93,8.93,0,0,0-1.71-.1c-.57,0-1.15.16-1.72.22a11.13,11.13,0,0,1-3.43-.32Z"/></g><g class="cls-4"><path class="cls-5" d="M467.26,586.74a11.13,11.13,0,0,1-3.43.32c-.58-.07-1.15-.19-1.72-.22a8.92,8.92,0,0,0-1.71.09,24.85,24.85,0,0,1-3.44.23,17.57,17.57,0,0,1-3.43-.42v-.09a16.82,16.82,0,0,1,3.43-.41,24.83,24.83,0,0,1,3.44.22,8.93,8.93,0,0,0,1.71.1c.57,0,1.14-.16,1.72-.22a11.12,11.12,0,0,1,3.43.31Z"/></g><g class="cls-4"><path class="cls-5" d="M433.2,604.36a10.87,10.87,0,0,1,3.44-.32c.57.06,1.14.19,1.71.22a9.08,9.08,0,0,0,1.72-.1,24.59,24.59,0,0,1,3.43-.22,17.57,17.57,0,0,1,3.43.42v.08a17.57,17.57,0,0,1-3.43.42,24.59,24.59,0,0,1-3.43-.22,9.08,9.08,0,0,0-1.72-.1c-.57,0-1.14.16-1.71.22a11.17,11.17,0,0,1-3.44-.32Z"/></g><g class="cls-4"><path class="cls-5" d="M419,584.21a5.09,5.09,0,0,1,2.33-.31c.39.05.78.19,1.17.21a4.21,4.21,0,0,0,1.17-.09,11.44,11.44,0,0,1,2.33-.23,8,8,0,0,1,2.33.42v.09a8.28,8.28,0,0,1-2.33.41,10.76,10.76,0,0,1-2.33-.22,4.21,4.21,0,0,0-1.17-.1c-.39,0-.78.17-1.17.22a5.23,5.23,0,0,1-2.33-.31Z"/></g><g class="cls-4"><path class="cls-5" d="M475,595.86a1.33,1.33,0,0,1-1.1.32,4.2,4.2,0,0,0-.55-.22,1,1,0,0,0-.55.1,2.55,2.55,0,0,1-1.1.22,2.07,2.07,0,0,1-1.09-.42v-.08a2.07,2.07,0,0,1,1.09-.42,2.55,2.55,0,0,1,1.1.22,1,1,0,0,0,.55.1c.18,0,.37-.17.55-.22a1.3,1.3,0,0,1,1.1.32Z"/></g><g class="cls-4"><path class="cls-5" d="M405.58,607.9a1.33,1.33,0,0,1,1.1-.32,3.71,3.71,0,0,0,.55.22,1,1,0,0,0,.54-.1,2.58,2.58,0,0,1,1.1-.22,2.1,2.1,0,0,1,1.1.42V608a2.1,2.1,0,0,1-1.1.42,2.58,2.58,0,0,1-1.1-.22,1,1,0,0,0-.54-.1,5.25,5.25,0,0,0-.55.22,1.29,1.29,0,0,1-1.1-.32Z"/></g><g class="cls-4"><path class="cls-5" d="M420.65,599.68a1.3,1.3,0,0,1,1.09-.31c.19,0,.37.19.55.22a1,1,0,0,0,.55-.1,2.55,2.55,0,0,1,1.1-.22,2.17,2.17,0,0,1,1.1.41v.09a2.1,2.1,0,0,1-1.1.42,2.72,2.72,0,0,1-1.1-.23,1,1,0,0,0-.55-.09,3.5,3.5,0,0,0-.55.22,1.31,1.31,0,0,1-1.09-.32Z"/></g><g class="cls-4"><path class="cls-5" d="M454.34,592.12a1.33,1.33,0,0,1-1.1.32,3.5,3.5,0,0,0-.55-.22,1,1,0,0,0-.55.09,2.56,2.56,0,0,1-1.1.23,2.13,2.13,0,0,1-1.1-.42V592a2.2,2.2,0,0,1,1.1-.41,2.55,2.55,0,0,1,1.1.22,1,1,0,0,0,.55.1c.18,0,.36-.17.55-.22a1.33,1.33,0,0,1,1.1.31Z"/></g><g class="cls-4"><path class="cls-5" d="M431.39,588.21a1.26,1.26,0,0,1,1.09-.31,4.72,4.72,0,0,0,.55.21,1,1,0,0,0,.55-.09,2.72,2.72,0,0,1,1.1-.23,2.1,2.1,0,0,1,1.1.42v.09a2.17,2.17,0,0,1-1.1.41,2.55,2.55,0,0,1-1.1-.22,1,1,0,0,0-.55-.1c-.18,0-.36.17-.55.22a1.3,1.3,0,0,1-1.09-.31Z"/></g><g class="cls-4"><path class="cls-5" d="M446.87,581.36a1.28,1.28,0,0,1-1.1.31,4.13,4.13,0,0,0-.55-.21,1,1,0,0,0-.55.09,2.68,2.68,0,0,1-1.1.23,2.07,2.07,0,0,1-1.09-.42v-.09a2.13,2.13,0,0,1,1.09-.41,2.52,2.52,0,0,1,1.1.22,1,1,0,0,0,.55.1c.18,0,.37-.17.55-.22a1.32,1.32,0,0,1,1.1.31Z"/></g><g class="cls-4"><path class="cls-5" d="M546.5,601.88a11.12,11.12,0,0,1-3.43.31c-.57-.06-1.15-.18-1.72-.22a9.82,9.82,0,0,0-1.71.1,23.33,23.33,0,0,1-3.43.22,16.83,16.83,0,0,1-3.44-.41v-.09a16.83,16.83,0,0,1,3.44-.41,23.33,23.33,0,0,1,3.43.22,9.82,9.82,0,0,0,1.71.1c.57,0,1.15-.16,1.72-.22a11.12,11.12,0,0,1,3.43.31Z"/></g><g class="cls-4"><path class="cls-5" d="M536.13,608.26a11.12,11.12,0,0,1-3.43.31c-.58-.06-1.15-.18-1.72-.22a10,10,0,0,0-1.72.1,23.16,23.16,0,0,1-3.43.22,16.82,16.82,0,0,1-3.43-.41v-.09a16.82,16.82,0,0,1,3.43-.41,23.16,23.16,0,0,1,3.43.22,10,10,0,0,0,1.72.1c.57,0,1.14-.16,1.72-.22a11.12,11.12,0,0,1,3.43.31Z"/></g><g class="cls-4"><path class="cls-5" d="M483.37,593.11a10.83,10.83,0,0,1,3.43-.32c.58.06,1.15.19,1.72.22a9.08,9.08,0,0,0,1.72-.1,24.59,24.59,0,0,1,3.43-.22,17.57,17.57,0,0,1,3.43.42v.08a17.57,17.57,0,0,1-3.43.42,24.59,24.59,0,0,1-3.43-.22,9.08,9.08,0,0,0-1.72-.1c-.57,0-1.14.16-1.72.22a11.13,11.13,0,0,1-3.43-.32Z"/></g><g class="cls-4"><path class="cls-5" d="M540.46,586.74a11.1,11.1,0,0,1-3.43.32c-.57-.07-1.15-.19-1.72-.22a8.92,8.92,0,0,0-1.71.09,24.81,24.81,0,0,1-3.43.23,17.39,17.39,0,0,1-3.43-.42v-.09a16.65,16.65,0,0,1,3.43-.41,24.79,24.79,0,0,1,3.43.22,8.93,8.93,0,0,0,1.71.1c.57,0,1.15-.16,1.72-.22a11.09,11.09,0,0,1,3.43.31Z"/></g><g class="cls-4"><path class="cls-5" d="M506.41,604.36a10.78,10.78,0,0,1,3.43-.32c.57.06,1.14.19,1.71.22a9,9,0,0,0,1.72-.1,24.69,24.69,0,0,1,3.43-.22,17.48,17.48,0,0,1,3.43.42v.08a17.48,17.48,0,0,1-3.43.42,24.69,24.69,0,0,1-3.43-.22,9,9,0,0,0-1.72-.1c-.57,0-1.14.16-1.71.22a11.07,11.07,0,0,1-3.43-.32Z"/></g><g class="cls-4"><path class="cls-5" d="M492.2,584.21a5.13,5.13,0,0,1,2.34-.31c.38.05.77.19,1.16.21a4.21,4.21,0,0,0,1.17-.09,11.51,11.51,0,0,1,2.33-.23,7.9,7.9,0,0,1,2.33.42v.09a8.22,8.22,0,0,1-2.33.41,10.82,10.82,0,0,1-2.33-.22,4.21,4.21,0,0,0-1.17-.1c-.39,0-.78.17-1.16.22a5.27,5.27,0,0,1-2.34-.31Z"/></g><g class="cls-4"><path class="cls-5" d="M548.22,595.86a1.33,1.33,0,0,1-1.1.32,3.71,3.71,0,0,0-.55-.22,1,1,0,0,0-.55.1,2.5,2.5,0,0,1-1.09.22,2.07,2.07,0,0,1-1.1-.42v-.08a2.07,2.07,0,0,1,1.1-.42,2.5,2.5,0,0,1,1.09.22,1,1,0,0,0,.55.1,5.25,5.25,0,0,0,.55-.22,1.29,1.29,0,0,1,1.1.32Z"/></g><g class="cls-4"><path class="cls-5" d="M478.78,607.9a1.33,1.33,0,0,1,1.1-.32,4.2,4.2,0,0,0,.55.22,1,1,0,0,0,.55-.1,2.52,2.52,0,0,1,1.1-.22,2.07,2.07,0,0,1,1.09.42V608a2.07,2.07,0,0,1-1.09.42,2.52,2.52,0,0,1-1.1-.22,1,1,0,0,0-.55-.1c-.18,0-.37.17-.55.22a1.29,1.29,0,0,1-1.1-.32Z"/></g><g class="cls-4"><path class="cls-5" d="M493.85,599.68a1.31,1.31,0,0,1,1.1-.31,5.25,5.25,0,0,0,.55.22,1,1,0,0,0,.54-.1,2.58,2.58,0,0,1,1.1-.22,2.17,2.17,0,0,1,1.1.41v.09a2.1,2.1,0,0,1-1.1.42A2.75,2.75,0,0,1,496,600a.94.94,0,0,0-.54-.09,2.87,2.87,0,0,0-.55.22,1.32,1.32,0,0,1-1.1-.32Z"/></g><g class="cls-4"><path class="cls-5" d="M527.54,592.12a1.33,1.33,0,0,1-1.1.32,3.16,3.16,0,0,0-.55-.22,1,1,0,0,0-.55.09,2.53,2.53,0,0,1-1.1.23,2.07,2.07,0,0,1-1.09-.42V592a2.13,2.13,0,0,1,1.09-.41,2.52,2.52,0,0,1,1.1.22,1,1,0,0,0,.55.1c.18,0,.37-.17.55-.22a1.32,1.32,0,0,1,1.1.31Z"/></g><g class="cls-4"><path class="cls-5" d="M504.59,588.21a1.28,1.28,0,0,1,1.1-.31,3.66,3.66,0,0,0,.55.21.94.94,0,0,0,.54-.09,2.75,2.75,0,0,1,1.1-.23,2.1,2.1,0,0,1,1.1.42v.09a2.17,2.17,0,0,1-1.1.41,2.58,2.58,0,0,1-1.1-.22,1,1,0,0,0-.54-.1,5.25,5.25,0,0,0-.55.22,1.31,1.31,0,0,1-1.1-.31Z"/></g><g class="cls-4"><path class="cls-5" d="M520.07,581.36a1.28,1.28,0,0,1-1.1.31,3.66,3.66,0,0,0-.55-.21,1,1,0,0,0-.55.09,2.67,2.67,0,0,1-1.09.23,2.07,2.07,0,0,1-1.1-.42v-.09a2.13,2.13,0,0,1,1.1-.41,2.5,2.5,0,0,1,1.09.22,1,1,0,0,0,.55.1A5.25,5.25,0,0,0,519,581a1.32,1.32,0,0,1,1.1.31Z"/></g><g class="cls-4"><path class="cls-5" d="M619.7,601.88a11.09,11.09,0,0,1-3.43.31c-.57-.06-1.14-.18-1.72-.22a9.82,9.82,0,0,0-1.71.1,23.33,23.33,0,0,1-3.43.22,16.65,16.65,0,0,1-3.43-.41v-.09a16.65,16.65,0,0,1,3.43-.41,23.33,23.33,0,0,1,3.43.22,9.82,9.82,0,0,0,1.71.1c.58,0,1.15-.16,1.72-.22a11.09,11.09,0,0,1,3.43.31Z"/></g><g class="cls-4"><path class="cls-5" d="M609.33,608.26a11.12,11.12,0,0,1-3.43.31c-.57-.06-1.15-.18-1.72-.22a9.82,9.82,0,0,0-1.71.1,23.33,23.33,0,0,1-3.43.22,16.83,16.83,0,0,1-3.44-.41v-.09a16.83,16.83,0,0,1,3.44-.41,23.33,23.33,0,0,1,3.43.22,9.82,9.82,0,0,0,1.71.1c.57,0,1.15-.16,1.72-.22a11.12,11.12,0,0,1,3.43.31Z"/></g><g class="cls-4"><path class="cls-5" d="M556.58,593.11a10.78,10.78,0,0,1,3.43-.32c.57.06,1.14.19,1.71.22a9,9,0,0,0,1.72-.1,24.69,24.69,0,0,1,3.43-.22,17.48,17.48,0,0,1,3.43.42v.08a17.48,17.48,0,0,1-3.43.42,24.69,24.69,0,0,1-3.43-.22,9,9,0,0,0-1.72-.1c-.57,0-1.14.16-1.71.22a11.07,11.07,0,0,1-3.43-.32Z"/></g><g class="cls-4"><path class="cls-5" d="M613.66,586.74a11.1,11.1,0,0,1-3.43.32c-.57-.07-1.14-.19-1.71-.22a9,9,0,0,0-1.72.09,24.71,24.71,0,0,1-3.43.23,17.48,17.48,0,0,1-3.43-.42v-.09a16.74,16.74,0,0,1,3.43-.41,24.69,24.69,0,0,1,3.43.22,9,9,0,0,0,1.72.1c.57,0,1.14-.16,1.71-.22a11.09,11.09,0,0,1,3.43.31Z"/></g><g class="cls-4"><path class="cls-5" d="M579.61,604.36A10.81,10.81,0,0,1,583,604c.57.06,1.14.19,1.72.22a8.93,8.93,0,0,0,1.71-.1,24.69,24.69,0,0,1,3.43-.22,17.39,17.39,0,0,1,3.43.42v.08a17.39,17.39,0,0,1-3.43.42,24.69,24.69,0,0,1-3.43-.22,8.93,8.93,0,0,0-1.71-.1c-.58,0-1.15.16-1.72.22a11.1,11.1,0,0,1-3.43-.32Z"/></g><g class="cls-4"><path class="cls-5" d="M565.4,584.21a5.13,5.13,0,0,1,2.34-.31c.39.05.78.19,1.16.21a4.21,4.21,0,0,0,1.17-.09,11.58,11.58,0,0,1,2.33-.23,8,8,0,0,1,2.34.42v.09a8.35,8.35,0,0,1-2.34.41,10.88,10.88,0,0,1-2.33-.22,4.21,4.21,0,0,0-1.17-.1c-.38,0-.77.17-1.16.22a5.27,5.27,0,0,1-2.34-.31Z"/></g><g class="cls-4"><path class="cls-5" d="M621.42,595.86a1.32,1.32,0,0,1-1.1.32,3.71,3.71,0,0,0-.55-.22,1,1,0,0,0-.54.1,2.58,2.58,0,0,1-1.1.22,2.1,2.1,0,0,1-1.1-.42v-.08a2.1,2.1,0,0,1,1.1-.42,2.58,2.58,0,0,1,1.1.22,1,1,0,0,0,.54.1,5.25,5.25,0,0,0,.55-.22,1.28,1.28,0,0,1,1.1.32Z"/></g><g class="cls-4"><path class="cls-5" d="M552,607.9a1.33,1.33,0,0,1,1.1-.32,4.2,4.2,0,0,0,.55.22,1,1,0,0,0,.55-.1,2.55,2.55,0,0,1,1.1-.22,2.13,2.13,0,0,1,1.1.42V608a2.13,2.13,0,0,1-1.1.42,2.55,2.55,0,0,1-1.1-.22,1,1,0,0,0-.55-.1c-.18,0-.37.17-.55.22A1.3,1.3,0,0,1,552,608Z"/></g><g class="cls-4"><path class="cls-5" d="M567.05,599.68a1.32,1.32,0,0,1,1.1-.31,5.25,5.25,0,0,0,.55.22,1,1,0,0,0,.55-.1,2.5,2.5,0,0,1,1.09-.22,2.13,2.13,0,0,1,1.1.41v.09a2.07,2.07,0,0,1-1.1.42,2.67,2.67,0,0,1-1.09-.23,1,1,0,0,0-.55-.09,2.87,2.87,0,0,0-.55.22,1.33,1.33,0,0,1-1.1-.32Z"/></g><g class="cls-4"><path class="cls-5" d="M600.74,592.12a1.33,1.33,0,0,1-1.1.32,2.87,2.87,0,0,0-.55-.22,1,1,0,0,0-.55.09,2.52,2.52,0,0,1-1.09.23,2.07,2.07,0,0,1-1.1-.42V592a2.13,2.13,0,0,1,1.1-.41,2.5,2.5,0,0,1,1.09.22,1,1,0,0,0,.55.1,5.25,5.25,0,0,0,.55-.22,1.32,1.32,0,0,1,1.1.31Z"/></g><g class="cls-4"><path class="cls-5" d="M577.79,588.21a1.28,1.28,0,0,1,1.1-.31,3.66,3.66,0,0,0,.55.21A1,1,0,0,0,580,588a2.67,2.67,0,0,1,1.09-.23,2.07,2.07,0,0,1,1.1.42v.09a2.13,2.13,0,0,1-1.1.41,2.5,2.5,0,0,1-1.09-.22,1,1,0,0,0-.55-.1,5.25,5.25,0,0,0-.55.22,1.32,1.32,0,0,1-1.1-.31Z"/></g><g class="cls-4"><path class="cls-5" d="M593.27,581.36a1.28,1.28,0,0,1-1.1.31,4,4,0,0,0-.54-.21,1,1,0,0,0-.55.09,2.75,2.75,0,0,1-1.1.23,2.1,2.1,0,0,1-1.1-.42v-.09a2.17,2.17,0,0,1,1.1-.41,2.58,2.58,0,0,1,1.1.22,1,1,0,0,0,.55.1c.18,0,.36-.17.54-.22a1.31,1.31,0,0,1,1.1.31Z"/></g><g class="cls-4"><path class="cls-5" d="M184.25,601.88a11.09,11.09,0,0,1-3.43.31c-.57-.06-1.14-.18-1.72-.22a9.82,9.82,0,0,0-1.71.1,23.33,23.33,0,0,1-3.43.22,16.65,16.65,0,0,1-3.43-.41v-.09a16.65,16.65,0,0,1,3.43-.41,23.33,23.33,0,0,1,3.43.22,9.82,9.82,0,0,0,1.71.1c.58,0,1.15-.16,1.72-.22a11.09,11.09,0,0,1,3.43.31Z"/></g><g class="cls-4"><path class="cls-5" d="M173.88,608.26a11.12,11.12,0,0,1-3.43.31c-.57-.06-1.15-.18-1.72-.22a9.82,9.82,0,0,0-1.71.1,23.33,23.33,0,0,1-3.43.22,16.83,16.83,0,0,1-3.44-.41v-.09a16.83,16.83,0,0,1,3.44-.41A23.33,23.33,0,0,1,167,608a9.82,9.82,0,0,0,1.71.1c.57,0,1.15-.16,1.72-.22a11.12,11.12,0,0,1,3.43.31Z"/></g><g class="cls-4"><path class="cls-5" d="M121.13,593.11a10.78,10.78,0,0,1,3.43-.32c.57.06,1.14.19,1.71.22a9,9,0,0,0,1.72-.1,24.69,24.69,0,0,1,3.43-.22,17.48,17.48,0,0,1,3.43.42v.08a17.48,17.48,0,0,1-3.43.42,24.69,24.69,0,0,1-3.43-.22,9,9,0,0,0-1.72-.1c-.57,0-1.14.16-1.71.22a11.07,11.07,0,0,1-3.43-.32Z"/></g><g class="cls-4"><path class="cls-5" d="M178.21,586.74a11.1,11.1,0,0,1-3.43.32c-.57-.07-1.14-.19-1.71-.22a9,9,0,0,0-1.72.09,24.71,24.71,0,0,1-3.43.23,17.48,17.48,0,0,1-3.43-.42v-.09a16.74,16.74,0,0,1,3.43-.41,24.69,24.69,0,0,1,3.43.22,9,9,0,0,0,1.72.1c.57,0,1.14-.16,1.71-.22a11.09,11.09,0,0,1,3.43.31Z"/></g><g class="cls-4"><path class="cls-5" d="M144.16,604.36a10.81,10.81,0,0,1,3.43-.32c.57.06,1.14.19,1.72.22a8.93,8.93,0,0,0,1.71-.1,24.69,24.69,0,0,1,3.43-.22,17.39,17.39,0,0,1,3.43.42v.08a17.39,17.39,0,0,1-3.43.42,24.69,24.69,0,0,1-3.43-.22,8.93,8.93,0,0,0-1.71-.1c-.58,0-1.15.16-1.72.22a11.1,11.1,0,0,1-3.43-.32Z"/></g><g class="cls-4"><path class="cls-5" d="M130,584.21a5.13,5.13,0,0,1,2.34-.31c.39.05.78.19,1.16.21a4.21,4.21,0,0,0,1.17-.09,11.58,11.58,0,0,1,2.33-.23,8,8,0,0,1,2.34.42v.09a8.35,8.35,0,0,1-2.34.41,10.88,10.88,0,0,1-2.33-.22,4.21,4.21,0,0,0-1.17-.1c-.38,0-.77.17-1.16.22a5.27,5.27,0,0,1-2.34-.31Z"/></g><g class="cls-4"><path class="cls-5" d="M186,595.86a1.32,1.32,0,0,1-1.1.32,3.71,3.71,0,0,0-.55-.22,1,1,0,0,0-.54.1,2.58,2.58,0,0,1-1.1.22,2.1,2.1,0,0,1-1.1-.42v-.08a2.1,2.1,0,0,1,1.1-.42,2.58,2.58,0,0,1,1.1.22,1,1,0,0,0,.54.1,5.25,5.25,0,0,0,.55-.22,1.28,1.28,0,0,1,1.1.32Z"/></g><g class="cls-4"><path class="cls-5" d="M116.53,607.9a1.33,1.33,0,0,1,1.1-.32,4.2,4.2,0,0,0,.55.22,1,1,0,0,0,.55-.1,2.55,2.55,0,0,1,1.1-.22,2.13,2.13,0,0,1,1.1.42V608a2.13,2.13,0,0,1-1.1.42,2.55,2.55,0,0,1-1.1-.22,1,1,0,0,0-.55-.1c-.18,0-.37.17-.55.22a1.3,1.3,0,0,1-1.1-.32Z"/></g><g class="cls-4"><path class="cls-5" d="M131.6,599.68a1.32,1.32,0,0,1,1.1-.31c.18,0,.37.19.55.22a1,1,0,0,0,.55-.1,2.52,2.52,0,0,1,1.1-.22,2.13,2.13,0,0,1,1.09.41v.09a2.07,2.07,0,0,1-1.09.42,2.68,2.68,0,0,1-1.1-.23,1,1,0,0,0-.55-.09,3.16,3.16,0,0,0-.55.22,1.33,1.33,0,0,1-1.1-.32Z"/></g><g class="cls-4"><path class="cls-5" d="M165.29,592.12a1.33,1.33,0,0,1-1.1.32,2.87,2.87,0,0,0-.55-.22,1,1,0,0,0-.55.09,2.52,2.52,0,0,1-1.09.23,2.07,2.07,0,0,1-1.1-.42V592a2.13,2.13,0,0,1,1.1-.41,2.5,2.5,0,0,1,1.09.22,1,1,0,0,0,.55.1,5.25,5.25,0,0,0,.55-.22,1.32,1.32,0,0,1,1.1.31Z"/></g><g class="cls-4"><path class="cls-5" d="M142.34,588.21a1.28,1.28,0,0,1,1.1-.31,3.66,3.66,0,0,0,.55.21,1,1,0,0,0,.55-.09,2.67,2.67,0,0,1,1.09-.23,2.07,2.07,0,0,1,1.1.42v.09a2.13,2.13,0,0,1-1.1.41,2.5,2.5,0,0,1-1.09-.22,1,1,0,0,0-.55-.1,5.25,5.25,0,0,0-.55.22,1.32,1.32,0,0,1-1.1-.31Z"/></g><g class="cls-4"><path class="cls-5" d="M157.82,581.36a1.28,1.28,0,0,1-1.1.31,4,4,0,0,0-.54-.21,1,1,0,0,0-.55.09,2.75,2.75,0,0,1-1.1.23,2.1,2.1,0,0,1-1.1-.42v-.09a2.17,2.17,0,0,1,1.1-.41,2.58,2.58,0,0,1,1.1.22,1,1,0,0,0,.55.1c.18,0,.36-.17.54-.22a1.31,1.31,0,0,1,1.1.31Z"/></g></g></g></svg>