<svg xmlns="http://www.w3.org/2000/svg" viewBox="0 0 1080 1080"><defs><style>.cls-1{isolation:isolate;}.cls-2{fill:#9e9e9e;}.cls-3{fill:#d3d3d3;}.cls-4{fill:#54696f;}.cls-5{fill:none;stroke:#2e518f;stroke-miterlimit:10;}.cls-6{mix-blend-mode:screen;}.cls-7{fill:#fff;}</style></defs><g class="cls-1"><g id="Capa_1" data-name="Capa 1"><rect class="cls-2" x="724.06" y="300.66" width="37.5" height="133.79"/><rect class="cls-3" x="730.07" y="300.66" width="9.06" height="133.79"/><rect class="cls-4" x="667.93" y="247.24" width="155.33" height="110.36" rx="4.38"/><rect class="cls-5" x="664.03" y="243.4" width="155.33" height="110.36" rx="4.38"/><g class="cls-6"><path class="cls-4" d="M789.73,338.62H685.35V268.48a10,10,0,0,1,10.09-9.94H799.83v70.14A10,10,0,0,1,789.73,338.62Z"/></g><path class="cls-5" d="M785.13,341.91H678V266a10.57,10.57,0,0,1,10.36-10.76H795.49v75.91A10.56,10.56,0,0,1,785.13,341.91Z"/><path class="cls-7" d="M737.66,291.24a5.34,5.34,0,0,0-1.25-.59c-.47-.15-.95-.29-1.44-.41l-1.43-.35a9.23,9.23,0,0,1-1.25-.4,2.76,2.76,0,0,1-.89-.55,1,1,0,0,1-.33-.71,2.48,2.48,0,0,1,.11-.73,1.3,1.3,0,0,1,.44-.62,2.81,2.81,0,0,1,.92-.49,4.7,4.7,0,0,1,1.46-.19,5.44,5.44,0,0,1,1.45.17,2.18,2.18,0,0,1,1.81,1.87h1.32a3,3,0,0,0-1.14-2.25,5.09,5.09,0,0,0-3.35-1,5,5,0,0,0-3.21.87,2.81,2.81,0,0,0-1.06,2.27,2.1,2.1,0,0,0,.57,1.55,4.47,4.47,0,0,0,1.44.93,12.41,12.41,0,0,0,1.87.57c.67.15,1.29.31,1.87.48a5.27,5.27,0,0,1,1.45.65,1.27,1.27,0,0,1,.57,1.09c0,1.33-1.06,2-3.19,2a4.81,4.81,0,0,1-2.45-.53,2.13,2.13,0,0,1-1.14-1.78h-1.34a3.58,3.58,0,0,0,1.27,2.54,5.78,5.78,0,0,0,3.64,1,5.63,5.63,0,0,0,3.3-.84,2.79,2.79,0,0,0,1.2-2.44A2.4,2.4,0,0,0,737.66,291.24Z"/><polygon class="cls-7" points="746.43 290.52 742.36 285.13 740.87 285.13 740.87 296.49 742.15 296.49 742.15 287.09 746.43 292.5 750.63 287.09 750.63 296.49 751.92 296.49 751.92 285.13 750.42 285.13 746.43 290.52"/><path class="cls-7" d="M759.79,285.13h-1.61l-4.82,11.36h1.42l1.39-3.29h5.63l1.39,3.29h1.42ZM756.67,292l2.32-5.55L761.3,292Z"/><path class="cls-7" d="M767.34,292.13h3.95l2.74,4.36h1.53l-3-4.58a5.59,5.59,0,0,0,1-.32,2.89,2.89,0,0,0,1.77-2.9,3.29,3.29,0,0,0-1.05-2.59,4,4,0,0,0-2.78-1h-5.43v11.36h1.28Zm0-5.78h4a2.94,2.94,0,0,1,2,.63,2.12,2.12,0,0,1,.73,1.71,2.09,2.09,0,0,1-.25,1.09,2.69,2.69,0,0,1-2.51,1.14h-3.93Z"/><polygon class="cls-7" points="780.19 296.49 781.48 296.49 781.48 286.37 785.44 286.37 785.44 285.13 776.23 285.13 776.23 286.37 780.19 286.37 780.19 296.49"/><polygon class="cls-7" points="737.33 303.38 730.72 303.38 730.72 298.33 729.43 298.33 729.43 309.69 730.72 309.69 730.72 304.63 737.33 304.63 737.33 309.69 738.61 309.69 738.61 298.33 737.33 298.33 737.33 303.38"/><polygon class="cls-7" points="745.39 303.86 741.55 298.33 739.99 298.33 744.76 305.2 744.76 309.69 746.04 309.69 746.04 305.2 750.8 298.33 749.24 298.33 745.39 303.86"/><path class="cls-7" d="M758.93,298.72a5.08,5.08,0,0,0-2-.39h-4.78v11.36H757a5.26,5.26,0,0,0,2-.38,5,5,0,0,0,1.66-1.13,6.23,6.23,0,0,0,0-8.34A4.92,4.92,0,0,0,758.93,298.72Zm.89,8.43a3.61,3.61,0,0,1-2.9,1.32h-3.45v-8.92h3.45a3.61,3.61,0,0,1,2.9,1.32,5.1,5.1,0,0,1,0,6.28Z"/><path class="cls-7" d="M771.11,304.78a2.87,2.87,0,0,0,1.77-2.9,3.32,3.32,0,0,0-1-2.59,4,4,0,0,0-2.78-1h-5.44v11.36h1.29v-4.36h3.94l2.75,4.36h1.52l-3-4.58A4.92,4.92,0,0,0,771.11,304.78Zm-2.28-.66H764.9v-4.57h4a2.9,2.9,0,0,1,2,.63,2.37,2.37,0,0,1,.48,2.8A2.68,2.68,0,0,1,768.83,304.12Z"/><path class="cls-7" d="M783.85,299.89a6,6,0,0,0-8.34,0,6.1,6.1,0,0,0,0,8.24,6,6,0,0,0,8.34,0,6.13,6.13,0,0,0,0-8.24Zm-.89,7.37a4.74,4.74,0,0,1-6.56,0,5,5,0,0,1,0-6.49,4.74,4.74,0,0,1,6.56,0,5,5,0,0,1,0,6.49Z"/><rect class="cls-7" x="726.06" y="282.32" width="0.76" height="30.19"/><path class="cls-7" d="M715,283c-.09,4-2.45,6.55-4.26,9.39l-1,1.49,2.47,3.8c.57-.81,1.25-1.79,1.76-2.57a16.58,16.58,0,0,0,2.11-3.58l3.05,5.11c-.83,1.51-1.88,2.87-2.78,4.3-2.31,3.28-4.69,6.51-6.91,9.84-2,2.93-1.91,6-.14,9.65h.07c.58-3.58,2.54-5.91,4.23-8.39,1.93-2.82,4.26-5.83,5.93-8.38,3.43-4.64,3.43-7.44,1.07-12.11Z"/><path class="cls-7" d="M708.25,302.51l1-1.49-2.47-3.8c-.57.81-1.25,1.79-1.76,2.57a16,16,0,0,0-2.16,3.7l-3.21-5.21c.81-1.52,1.84-2.89,2.73-4.34,2.26-3.3,4.59-6.56,6.77-9.92,1.92-3,1.83-6,0-9.65h-.07c-.53,3.59-2.46,5.94-4.12,8.44-1.9,2.85-4.19,5.89-5.82,8.46-3.37,4.68-3.34,7.48-.91,12.13l5.66,8.47v0l0,.06C704.08,307.92,706.44,305.35,708.25,302.51Z"/></g></g></svg>