<svg id="Capa_1" data-name="Capa 1" xmlns="http://www.w3.org/2000/svg" viewBox="0 0 1080 1080"><defs><style>.cls-1{fill:#54696f;}.cls-2{fill:#9b9b9b;stroke:#595959;stroke-miterlimit:10;stroke-width:4px;}.cls-3{fill:#253133;}</style></defs><rect class="cls-1" x="501.51" y="409.43" width="20.94" height="213.88"/><path class="cls-2" d="M512,681.16h0c-10.6,0-19.2-7.25-19.2-16.19v-47.6c0-4.07,3.92-7.37,8.74-7.37h20.91c4.83,0,8.74,3.3,8.74,7.37V665C531.17,673.91,522.58,681.16,512,681.16Z"/><path class="cls-3" d="M501.32,668.18c-.94,0-1.7-.5-1.7-1.12V633c0-.62.76-1.13,1.7-1.13s1.71.51,1.71,1.13v34C503,667.68,502.27,668.18,501.32,668.18Z"/><path class="cls-3" d="M512,673.29c-1,0-1.71-.57-1.71-1.28V633.18c0-.7.76-1.28,1.71-1.28s1.7.58,1.7,1.28V672C513.68,672.72,512.92,673.29,512,673.29Z"/><path class="cls-3" d="M522.63,668.18c-.94,0-1.71-.5-1.71-1.12V633c0-.62.77-1.13,1.71-1.13s1.7.51,1.7,1.13v34C524.33,667.68,523.57,668.18,522.63,668.18Z"/></svg>