<svg xmlns="http://www.w3.org/2000/svg" viewBox="0 0 1080 1080"><defs><style>.cls-1{isolation:isolate;}.cls-2{fill:#94b45f;}.cls-3{fill:#996651;}.cls-4{mix-blend-mode:multiply;}.cls-5{fill:#984b2a;}</style></defs><g class="cls-1"><g id="Capa_1" data-name="Capa 1"><path class="cls-2" d="M194.95,434.45H743.4a2.33,2.33,0,0,1,2.33,2.33v10a0,0,0,0,1,0,0H192.61a0,0,0,0,1,0,0v-10A2.33,2.33,0,0,1,194.95,434.45Z"/><path class="cls-3" d="M192.61,446.82V475.7c0,1.61.76,2.92,1.7,2.92H745.74v-31.8Z"/><g class="cls-4"><path class="cls-5" d="M374.93,469.26a11.09,11.09,0,0,1-3.43.31c-.57-.06-1.14-.19-1.71-.22a9,9,0,0,0-1.72.1,24.69,24.69,0,0,1-3.43.22,16.74,16.74,0,0,1-3.43-.41v-.09a17.48,17.48,0,0,1,3.43-.42,24.71,24.71,0,0,1,3.43.23,9,9,0,0,0,1.72.09c.57,0,1.14-.15,1.71-.22a11.1,11.1,0,0,1,3.43.32Z"/></g><g class="cls-4"><path class="cls-5" d="M364.56,475.64a11.09,11.09,0,0,1-3.43.31c-.57-.06-1.14-.18-1.72-.22a8.93,8.93,0,0,0-1.71.1,23.33,23.33,0,0,1-3.43.22,16.65,16.65,0,0,1-3.43-.41v-.09a17.39,17.39,0,0,1,3.43-.42,24.81,24.81,0,0,1,3.43.23,8.92,8.92,0,0,0,1.71.09c.58,0,1.15-.15,1.72-.21a10.8,10.8,0,0,1,3.43.31Z"/></g><g class="cls-4"><path class="cls-5" d="M311.81,460.48a11.07,11.07,0,0,1,3.43-.31c.57.06,1.14.19,1.71.22a9,9,0,0,0,1.72-.1,24.69,24.69,0,0,1,3.43-.22,17.46,17.46,0,0,1,3.43.41v.09a17.48,17.48,0,0,1-3.43.42,23.26,23.26,0,0,1-3.43-.23,9,9,0,0,0-1.72-.09c-.57,0-1.14.15-1.71.22a11.07,11.07,0,0,1-3.43-.32Z"/></g><g class="cls-4"><path class="cls-5" d="M368.89,454.12a11.07,11.07,0,0,1-3.43.31c-.57-.06-1.14-.18-1.71-.21a9,9,0,0,0-1.72.09,23.24,23.24,0,0,1-3.43.22,16.74,16.74,0,0,1-3.43-.41V454a16.74,16.74,0,0,1,3.43-.41,23.24,23.24,0,0,1,3.43.22,9.93,9.93,0,0,0,1.72.1c.57,0,1.14-.16,1.71-.22a11.07,11.07,0,0,1,3.43.31Z"/></g><g class="cls-4"><path class="cls-5" d="M334.84,471.74a10.81,10.81,0,0,1,3.43-.32c.57.06,1.15.19,1.72.22a8.93,8.93,0,0,0,1.71-.1,24.79,24.79,0,0,1,3.43-.22,16.67,16.67,0,0,1,3.43.42v.08a17.39,17.39,0,0,1-3.43.42,23.35,23.35,0,0,1-3.43-.23,8.92,8.92,0,0,0-1.71-.09c-.57,0-1.15.15-1.72.22a11.1,11.1,0,0,1-3.43-.32Z"/></g><g class="cls-4"><path class="cls-5" d="M320.64,451.59a5.22,5.22,0,0,1,2.33-.32c.39.06.78.2,1.17.22a4.16,4.16,0,0,0,1.16-.09,10.89,10.89,0,0,1,2.33-.23,8,8,0,0,1,2.34.42v.09a8.35,8.35,0,0,1-2.34.41,10.88,10.88,0,0,1-2.33-.22,4.18,4.18,0,0,0-1.16-.1c-.39,0-.78.17-1.17.22a5.21,5.21,0,0,1-2.33-.31Z"/></g><g class="cls-4"><path class="cls-5" d="M376.65,463.24a1.31,1.31,0,0,1-1.09.32,3.5,3.5,0,0,0-.55-.22,1,1,0,0,0-.55.09,2.56,2.56,0,0,1-1.1.23,2.1,2.1,0,0,1-1.1-.42v-.08a2.1,2.1,0,0,1,1.1-.42,2.55,2.55,0,0,1,1.1.22,1,1,0,0,0,.55.1c.18,0,.36-.17.55-.22a1.27,1.27,0,0,1,1.09.32Z"/></g><g class="cls-4"><path class="cls-5" d="M307.22,475.28a1.27,1.27,0,0,1,1.09-.32c.19.05.37.19.55.22a1,1,0,0,0,.55-.1,2.55,2.55,0,0,1,1.1-.22,2.1,2.1,0,0,1,1.1.42v.08a2.1,2.1,0,0,1-1.1.42,2.56,2.56,0,0,1-1.1-.23,1.05,1.05,0,0,0-.55-.09,4.85,4.85,0,0,0-.55.22,1.31,1.31,0,0,1-1.09-.32Z"/></g><g class="cls-4"><path class="cls-5" d="M322.28,467.06a1.32,1.32,0,0,1,1.1-.31c.18.05.37.19.55.22a1.08,1.08,0,0,0,.55-.1,2.52,2.52,0,0,1,1.1-.22,2.13,2.13,0,0,1,1.09.41v.09a2,2,0,0,1-1.09.41,2.52,2.52,0,0,1-1.1-.22,1,1,0,0,0-.55-.09,4.13,4.13,0,0,0-.55.21,1.28,1.28,0,0,1-1.1-.31Z"/></g><g class="cls-4"><path class="cls-5" d="M356,459.5a1.28,1.28,0,0,1-1.1.31,3.66,3.66,0,0,0-.55-.21.94.94,0,0,0-.54.09,2.75,2.75,0,0,1-1.1.23,2.1,2.1,0,0,1-1.1-.42v-.09a2.17,2.17,0,0,1,1.1-.41,2.58,2.58,0,0,1,1.1.22,1,1,0,0,0,.54.1,5.25,5.25,0,0,0,.55-.22,1.31,1.31,0,0,1,1.1.31Z"/></g><g class="cls-4"><path class="cls-5" d="M333,455.59a1.33,1.33,0,0,1,1.1-.32,3.16,3.16,0,0,0,.55.22,1.08,1.08,0,0,0,.55-.09,2.53,2.53,0,0,1,1.1-.23,2.07,2.07,0,0,1,1.09.42v.08a2.07,2.07,0,0,1-1.09.42,2.52,2.52,0,0,1-1.1-.22,1,1,0,0,0-.55-.1c-.18,0-.37.17-.55.22a1.29,1.29,0,0,1-1.1-.32Z"/></g><g class="cls-4"><path class="cls-5" d="M348.5,448.74a1.3,1.3,0,0,1-1.09.31c-.19-.05-.37-.19-.55-.22a1.06,1.06,0,0,0-.55.1,2.55,2.55,0,0,1-1.1.22,2.17,2.17,0,0,1-1.1-.41v-.09a2.08,2.08,0,0,1,1.1-.41,2.55,2.55,0,0,1,1.1.22,1.06,1.06,0,0,0,.55.1c.18,0,.36-.17.55-.22a1.3,1.3,0,0,1,1.09.31Z"/></g><g class="cls-4"><path class="cls-5" d="M307.69,469.26a11.09,11.09,0,0,1-3.43.31c-.57-.06-1.14-.19-1.72-.22a8.93,8.93,0,0,0-1.71.1,24.79,24.79,0,0,1-3.43.22,16.65,16.65,0,0,1-3.43-.41v-.09a17.39,17.39,0,0,1,3.43-.42,24.81,24.81,0,0,1,3.43.23,8.92,8.92,0,0,0,1.71.09c.58,0,1.15-.15,1.72-.22a11.1,11.1,0,0,1,3.43.32Z"/></g><g class="cls-4"><path class="cls-5" d="M297.32,475.64a11.12,11.12,0,0,1-3.43.31c-.57-.06-1.15-.18-1.72-.22a8.93,8.93,0,0,0-1.71.1,23.38,23.38,0,0,1-3.44.22,16.82,16.82,0,0,1-3.43-.41v-.09a17.57,17.57,0,0,1,3.43-.42,24.85,24.85,0,0,1,3.44.23,8.92,8.92,0,0,0,1.71.09c.57,0,1.15-.15,1.72-.21a10.82,10.82,0,0,1,3.43.31Z"/></g><g class="cls-4"><path class="cls-5" d="M244.57,460.48a11.07,11.07,0,0,1,3.43-.31c.57.06,1.14.19,1.71.22a9,9,0,0,0,1.72-.1,24.59,24.59,0,0,1,3.43-.22,17.46,17.46,0,0,1,3.43.41v.09a17.48,17.48,0,0,1-3.43.42,23.16,23.16,0,0,1-3.43-.23,9,9,0,0,0-1.72-.09c-.57,0-1.14.15-1.71.22a11.07,11.07,0,0,1-3.43-.32Z"/></g><g class="cls-4"><path class="cls-5" d="M301.65,454.12a11.09,11.09,0,0,1-3.43.31c-.57-.06-1.14-.18-1.72-.21a8.92,8.92,0,0,0-1.71.09,23.24,23.24,0,0,1-3.43.22,16.65,16.65,0,0,1-3.43-.41V454a16.65,16.65,0,0,1,3.43-.41,23.24,23.24,0,0,1,3.43.22,9.82,9.82,0,0,0,1.71.1c.58,0,1.15-.16,1.72-.22a11.09,11.09,0,0,1,3.43.31Z"/></g><g class="cls-4"><path class="cls-5" d="M267.6,471.74a10.81,10.81,0,0,1,3.43-.32c.57.06,1.14.19,1.71.22a9,9,0,0,0,1.72-.1,24.69,24.69,0,0,1,3.43-.22,16.75,16.75,0,0,1,3.43.42v.08a17.48,17.48,0,0,1-3.43.42,23.26,23.26,0,0,1-3.43-.23,9,9,0,0,0-1.72-.09c-.57,0-1.14.15-1.71.22a11.1,11.1,0,0,1-3.43-.32Z"/></g><g class="cls-4"><path class="cls-5" d="M253.39,451.59a5.28,5.28,0,0,1,2.34-.32c.39.06.77.2,1.16.22a4.21,4.21,0,0,0,1.17-.09,10.89,10.89,0,0,1,2.33-.23,8,8,0,0,1,2.34.42v.09a8.35,8.35,0,0,1-2.34.41,10.88,10.88,0,0,1-2.33-.22,4.21,4.21,0,0,0-1.17-.1c-.39,0-.77.17-1.16.22a5.27,5.27,0,0,1-2.34-.31Z"/></g><g class="cls-4"><path class="cls-5" d="M309.41,463.24a1.32,1.32,0,0,1-1.1.32,2.87,2.87,0,0,0-.55-.22.94.94,0,0,0-.54.09,2.59,2.59,0,0,1-1.1.23,2.1,2.1,0,0,1-1.1-.42v-.08a2.1,2.1,0,0,1,1.1-.42,2.58,2.58,0,0,1,1.1.22,1,1,0,0,0,.54.1,5.25,5.25,0,0,0,.55-.22,1.28,1.28,0,0,1,1.1.32Z"/></g><g class="cls-4"><path class="cls-5" d="M240,475.28a1.3,1.3,0,0,1,1.1-.32c.18.05.37.19.55.22a1,1,0,0,0,.55-.1,2.55,2.55,0,0,1,1.1-.22,2.13,2.13,0,0,1,1.1.42v.08a2.13,2.13,0,0,1-1.1.42,2.56,2.56,0,0,1-1.1-.23,1.07,1.07,0,0,0-.55-.09,4.2,4.2,0,0,0-.55.22,1.33,1.33,0,0,1-1.1-.32Z"/></g><g class="cls-4"><path class="cls-5" d="M255,467.06a1.32,1.32,0,0,1,1.1-.31,5.25,5.25,0,0,0,.55.22,1.1,1.1,0,0,0,.55-.1,2.5,2.5,0,0,1,1.09-.22,2.13,2.13,0,0,1,1.1.41v.09a2,2,0,0,1-1.1.41,2.5,2.5,0,0,1-1.09-.22,1,1,0,0,0-.55-.09,3.66,3.66,0,0,0-.55.21,1.28,1.28,0,0,1-1.1-.31Z"/></g><g class="cls-4"><path class="cls-5" d="M288.73,459.5a1.28,1.28,0,0,1-1.1.31,3.66,3.66,0,0,0-.55-.21,1,1,0,0,0-.55.09,2.67,2.67,0,0,1-1.09.23,2.07,2.07,0,0,1-1.1-.42v-.09a2.13,2.13,0,0,1,1.1-.41,2.5,2.5,0,0,1,1.09.22,1,1,0,0,0,.55.1,5.25,5.25,0,0,0,.55-.22,1.32,1.32,0,0,1,1.1.31Z"/></g><g class="cls-4"><path class="cls-5" d="M265.78,455.59a1.33,1.33,0,0,1,1.1-.32,2.87,2.87,0,0,0,.55.22,1.08,1.08,0,0,0,.55-.09,2.52,2.52,0,0,1,1.09-.23,2.07,2.07,0,0,1,1.1.42v.08a2.07,2.07,0,0,1-1.1.42,2.5,2.5,0,0,1-1.09-.22,1,1,0,0,0-.55-.1,5.25,5.25,0,0,0-.55.22,1.29,1.29,0,0,1-1.1-.32Z"/></g><g class="cls-4"><path class="cls-5" d="M281.26,448.74a1.31,1.31,0,0,1-1.1.31c-.18-.05-.36-.19-.54-.22a1.06,1.06,0,0,0-.55.1,2.58,2.58,0,0,1-1.1.22,2.17,2.17,0,0,1-1.1-.41v-.09a2.08,2.08,0,0,1,1.1-.41,2.58,2.58,0,0,1,1.1.22,1.06,1.06,0,0,0,.55.1c.18,0,.36-.17.54-.22a1.31,1.31,0,0,1,1.1.31Z"/></g><g class="cls-4"><path class="cls-5" d="M240.45,469.26a11.12,11.12,0,0,1-3.43.31c-.57-.06-1.15-.19-1.72-.22a8.93,8.93,0,0,0-1.71.1,24.79,24.79,0,0,1-3.43.22,16.83,16.83,0,0,1-3.44-.41v-.09a17.58,17.58,0,0,1,3.44-.42,24.81,24.81,0,0,1,3.43.23,8.92,8.92,0,0,0,1.71.09c.57,0,1.15-.15,1.72-.22a11.13,11.13,0,0,1,3.43.32Z"/></g><g class="cls-4"><path class="cls-5" d="M230.08,475.64a11.16,11.16,0,0,1-3.44.31c-.57-.06-1.14-.18-1.71-.22a9.08,9.08,0,0,0-1.72.1,23.16,23.16,0,0,1-3.43.22,16.82,16.82,0,0,1-3.43-.41v-.09a17.57,17.57,0,0,1,3.43-.42,24.6,24.6,0,0,1,3.43.23,9.06,9.06,0,0,0,1.72.09c.57,0,1.14-.15,1.71-.21a10.86,10.86,0,0,1,3.44.31Z"/></g><g class="cls-4"><path class="cls-5" d="M234.41,454.12a11.09,11.09,0,0,1-3.43.31c-.57-.06-1.15-.18-1.72-.21a8.92,8.92,0,0,0-1.71.09,23.33,23.33,0,0,1-3.43.22,16.65,16.65,0,0,1-3.43-.41V454a16.65,16.65,0,0,1,3.43-.41,23.33,23.33,0,0,1,3.43.22,9.82,9.82,0,0,0,1.71.1c.57,0,1.15-.16,1.72-.22a11.09,11.09,0,0,1,3.43.31Z"/></g><g class="cls-4"><path class="cls-5" d="M200.36,471.74a10.78,10.78,0,0,1,3.43-.32c.57.06,1.14.19,1.71.22a9,9,0,0,0,1.72-.1,24.69,24.69,0,0,1,3.43-.22,16.75,16.75,0,0,1,3.43.42v.08a17.48,17.48,0,0,1-3.43.42,23.26,23.26,0,0,1-3.43-.23,9,9,0,0,0-1.72-.09c-.57,0-1.14.15-1.71.22a11.07,11.07,0,0,1-3.43-.32Z"/></g><g class="cls-4"><path class="cls-5" d="M242.17,463.24a1.33,1.33,0,0,1-1.1.32,2.87,2.87,0,0,0-.55-.22,1,1,0,0,0-.55.09,2.52,2.52,0,0,1-1.09.23,2.07,2.07,0,0,1-1.1-.42v-.08a2.07,2.07,0,0,1,1.1-.42A2.5,2.5,0,0,1,240,463a1,1,0,0,0,.55.1,5.25,5.25,0,0,0,.55-.22,1.29,1.29,0,0,1,1.1.32Z"/></g><g class="cls-4"><path class="cls-5" d="M197,476a1.31,1.31,0,0,1,1.09-.32,3.5,3.5,0,0,0,.55.22,1,1,0,0,0,.55-.09,2.72,2.72,0,0,1,1.1-.23,2.1,2.1,0,0,1,1.1.42v.09a2.17,2.17,0,0,1-1.1.41,2.55,2.55,0,0,1-1.1-.22,1,1,0,0,0-.55-.1c-.18,0-.36.17-.55.22a1.3,1.3,0,0,1-1.09-.31Z"/></g><g class="cls-4"><path class="cls-5" d="M193.75,451.59a1.33,1.33,0,0,1,1.1-.32,3.16,3.16,0,0,0,.55.22,1,1,0,0,0,.55-.09,2.53,2.53,0,0,1,1.1-.23,2.07,2.07,0,0,1,1.09.42v.09a2.13,2.13,0,0,1-1.09.41,2.52,2.52,0,0,1-1.1-.22,1,1,0,0,0-.55-.1c-.18,0-.37.17-.55.22a1.32,1.32,0,0,1-1.1-.31Z"/></g><g class="cls-4"><path class="cls-5" d="M193.75,466.14a1.32,1.32,0,0,1,1.1-.31c.18.05.37.19.55.22a1,1,0,0,0,.55-.1,2.52,2.52,0,0,1,1.1-.22,2.13,2.13,0,0,1,1.09.41v.09a2.07,2.07,0,0,1-1.09.42,2.68,2.68,0,0,1-1.1-.23,1,1,0,0,0-.55-.09,3.16,3.16,0,0,0-.55.22,1.33,1.33,0,0,1-1.1-.32Z"/></g><g class="cls-4"><path class="cls-5" d="M221.49,459.5a1.28,1.28,0,0,1-1.1.31,4.13,4.13,0,0,0-.55-.21,1,1,0,0,0-.55.09,2.68,2.68,0,0,1-1.1.23,2.07,2.07,0,0,1-1.09-.42v-.09a2.13,2.13,0,0,1,1.09-.41,2.52,2.52,0,0,1,1.1.22,1,1,0,0,0,.55.1c.18,0,.37-.17.55-.22a1.32,1.32,0,0,1,1.1.31Z"/></g><g class="cls-4"><path class="cls-5" d="M198.54,455.59a1.32,1.32,0,0,1,1.1-.32,3.07,3.07,0,0,0,.54.22,1.05,1.05,0,0,0,.55-.09,2.59,2.59,0,0,1,1.1-.23,2.1,2.1,0,0,1,1.1.42v.08a2.1,2.1,0,0,1-1.1.42,2.58,2.58,0,0,1-1.1-.22,1,1,0,0,0-.55-.1c-.18,0-.36.17-.54.22a1.28,1.28,0,0,1-1.1-.32Z"/></g><g class="cls-4"><path class="cls-5" d="M214,448.74a1.32,1.32,0,0,1-1.1.31,5.25,5.25,0,0,0-.55-.22,1.1,1.1,0,0,0-.55.1,2.5,2.5,0,0,1-1.09.22,2.13,2.13,0,0,1-1.1-.41v-.09a2,2,0,0,1,1.1-.41,2.5,2.5,0,0,1,1.09.22,1.1,1.1,0,0,0,.55.1,5.25,5.25,0,0,0,.55-.22,1.32,1.32,0,0,1,1.1.31Z"/></g><g class="cls-4"><path class="cls-5" d="M448.13,469.26a11.07,11.07,0,0,1-3.43.31c-.57-.06-1.14-.19-1.71-.22a9,9,0,0,0-1.72.1,24.59,24.59,0,0,1-3.43.22,16.74,16.74,0,0,1-3.43-.41v-.09a17.48,17.48,0,0,1,3.43-.42,24.6,24.6,0,0,1,3.43.23,9,9,0,0,0,1.72.09c.57,0,1.14-.15,1.71-.22a11.07,11.07,0,0,1,3.43.32Z"/></g><g class="cls-4"><path class="cls-5" d="M437.76,475.64a11.09,11.09,0,0,1-3.43.31c-.57-.06-1.14-.18-1.71-.22a9,9,0,0,0-1.72.1,23.24,23.24,0,0,1-3.43.22,16.74,16.74,0,0,1-3.43-.41v-.09a17.48,17.48,0,0,1,3.43-.42,24.71,24.71,0,0,1,3.43.23,9,9,0,0,0,1.72.09c.57,0,1.14-.15,1.71-.21a10.8,10.8,0,0,1,3.43.31Z"/></g><g class="cls-4"><path class="cls-5" d="M385,460.48a11.09,11.09,0,0,1,3.43-.31c.57.06,1.14.19,1.72.22a8.93,8.93,0,0,0,1.71-.1,24.79,24.79,0,0,1,3.43-.22,17.37,17.37,0,0,1,3.43.41v.09a17.39,17.39,0,0,1-3.43.42,23.35,23.35,0,0,1-3.43-.23,8.92,8.92,0,0,0-1.71-.09c-.58,0-1.15.15-1.72.22a11.1,11.1,0,0,1-3.43-.32Z"/></g><g class="cls-4"><path class="cls-5" d="M442.1,454.12a11.16,11.16,0,0,1-3.44.31c-.57-.06-1.14-.18-1.71-.21a9.06,9.06,0,0,0-1.72.09,23.16,23.16,0,0,1-3.43.22,16.82,16.82,0,0,1-3.43-.41V454a16.82,16.82,0,0,1,3.43-.41,23.16,23.16,0,0,1,3.43.22,10,10,0,0,0,1.72.1c.57,0,1.14-.16,1.71-.22a11.16,11.16,0,0,1,3.44.31Z"/></g><g class="cls-4"><path class="cls-5" d="M408,471.74a10.83,10.83,0,0,1,3.43-.32c.58.06,1.15.19,1.72.22a8.93,8.93,0,0,0,1.71-.1,24.83,24.83,0,0,1,3.44-.22,16.84,16.84,0,0,1,3.43.42v.08a17.57,17.57,0,0,1-3.43.42,23.39,23.39,0,0,1-3.44-.23,8.92,8.92,0,0,0-1.71-.09c-.57,0-1.14.15-1.72.22a11.13,11.13,0,0,1-3.43-.32Z"/></g><g class="cls-4"><path class="cls-5" d="M393.84,451.59a5.24,5.24,0,0,1,2.33-.32c.39.06.78.2,1.17.22a4.11,4.11,0,0,0,1.16-.09,10.92,10.92,0,0,1,2.34-.23,8,8,0,0,1,2.33.42v.09a8.34,8.34,0,0,1-2.33.41,10.91,10.91,0,0,1-2.34-.22,4.11,4.11,0,0,0-1.16-.1c-.39,0-.78.17-1.17.22a5.23,5.23,0,0,1-2.33-.31Z"/></g><g class="cls-4"><path class="cls-5" d="M449.86,463.24a1.33,1.33,0,0,1-1.1.32,3.5,3.5,0,0,0-.55-.22,1,1,0,0,0-.55.09,2.56,2.56,0,0,1-1.1.23,2.13,2.13,0,0,1-1.1-.42v-.08a2.13,2.13,0,0,1,1.1-.42,2.55,2.55,0,0,1,1.1.22,1,1,0,0,0,.55.1c.18,0,.36-.17.55-.22a1.3,1.3,0,0,1,1.1.32Z"/></g><g class="cls-4"><path class="cls-5" d="M380.42,475.28a1.28,1.28,0,0,1,1.1-.32c.18.05.36.19.54.22a1,1,0,0,0,.55-.1,2.58,2.58,0,0,1,1.1-.22,2.1,2.1,0,0,1,1.1.42v.08a2.1,2.1,0,0,1-1.1.42,2.59,2.59,0,0,1-1.1-.23,1.05,1.05,0,0,0-.55-.09,4.08,4.08,0,0,0-.54.22,1.32,1.32,0,0,1-1.1-.32Z"/></g><g class="cls-4"><path class="cls-5" d="M395.48,467.06a1.33,1.33,0,0,1,1.1-.31c.19.05.37.19.55.22a1.08,1.08,0,0,0,.55-.1,2.55,2.55,0,0,1,1.1-.22,2.2,2.2,0,0,1,1.1.41v.09a2,2,0,0,1-1.1.41,2.55,2.55,0,0,1-1.1-.22,1,1,0,0,0-.55-.09,4.72,4.72,0,0,0-.55.21,1.29,1.29,0,0,1-1.1-.31Z"/></g><g class="cls-4"><path class="cls-5" d="M429.17,459.5a1.26,1.26,0,0,1-1.09.31,4.72,4.72,0,0,0-.55-.21,1,1,0,0,0-.55.09,2.72,2.72,0,0,1-1.1.23,2.1,2.1,0,0,1-1.1-.42v-.09a2.17,2.17,0,0,1,1.1-.41,2.55,2.55,0,0,1,1.1.22,1,1,0,0,0,.55.1c.18,0,.36-.17.55-.22a1.3,1.3,0,0,1,1.09.31Z"/></g><g class="cls-4"><path class="cls-5" d="M406.22,455.59a1.33,1.33,0,0,1,1.1-.32,3.5,3.5,0,0,0,.55.22,1.07,1.07,0,0,0,.55-.09,2.56,2.56,0,0,1,1.1-.23,2.13,2.13,0,0,1,1.1.42v.08a2.13,2.13,0,0,1-1.1.42,2.55,2.55,0,0,1-1.1-.22,1,1,0,0,0-.55-.1c-.18,0-.36.17-.55.22a1.3,1.3,0,0,1-1.1-.32Z"/></g><g class="cls-4"><path class="cls-5" d="M421.71,448.74a1.33,1.33,0,0,1-1.1.31c-.18-.05-.37-.19-.55-.22a1.08,1.08,0,0,0-.55.1,2.55,2.55,0,0,1-1.1.22,2.2,2.2,0,0,1-1.1-.41v-.09a2.11,2.11,0,0,1,1.1-.41,2.55,2.55,0,0,1,1.1.22,1.08,1.08,0,0,0,.55.1c.18,0,.37-.17.55-.22a1.33,1.33,0,0,1,1.1.31Z"/></g><g class="cls-4"><path class="cls-5" d="M521.34,469.26a11.12,11.12,0,0,1-3.43.31c-.58-.06-1.15-.19-1.72-.22a9.08,9.08,0,0,0-1.72.1,24.59,24.59,0,0,1-3.43.22,16.82,16.82,0,0,1-3.43-.41v-.09a17.57,17.57,0,0,1,3.43-.42,24.6,24.6,0,0,1,3.43.23,9.06,9.06,0,0,0,1.72.09c.57,0,1.14-.15,1.72-.22a11.13,11.13,0,0,1,3.43.32Z"/></g><g class="cls-4"><path class="cls-5" d="M511,475.64a11.07,11.07,0,0,1-3.43.31c-.57-.06-1.14-.18-1.71-.22a9,9,0,0,0-1.72.1,23.16,23.16,0,0,1-3.43.22,16.74,16.74,0,0,1-3.43-.41v-.09a17.48,17.48,0,0,1,3.43-.42,24.6,24.6,0,0,1,3.43.23,9,9,0,0,0,1.72.09c.57,0,1.14-.15,1.71-.21a10.77,10.77,0,0,1,3.43.31Z"/></g><g class="cls-4"><path class="cls-5" d="M458.21,460.48a11.12,11.12,0,0,1,3.43-.31c.58.06,1.15.19,1.72.22a8.93,8.93,0,0,0,1.71-.1,24.83,24.83,0,0,1,3.44-.22,17.55,17.55,0,0,1,3.43.41v.09a17.57,17.57,0,0,1-3.43.42,23.39,23.39,0,0,1-3.44-.23,8.92,8.92,0,0,0-1.71-.09c-.57,0-1.14.15-1.72.22a11.13,11.13,0,0,1-3.43-.32Z"/></g><g class="cls-4"><path class="cls-5" d="M515.3,454.12a11.12,11.12,0,0,1-3.43.31c-.57-.06-1.15-.18-1.72-.21a8.92,8.92,0,0,0-1.71.09,23.33,23.33,0,0,1-3.43.22,16.83,16.83,0,0,1-3.44-.41V454a16.83,16.83,0,0,1,3.44-.41,23.33,23.33,0,0,1,3.43.22,9.82,9.82,0,0,0,1.71.1c.57,0,1.15-.16,1.72-.22a11.12,11.12,0,0,1,3.43.31Z"/></g><g class="cls-4"><path class="cls-5" d="M481.25,471.74a10.78,10.78,0,0,1,3.43-.32c.57.06,1.14.19,1.71.22a9,9,0,0,0,1.72-.1,24.59,24.59,0,0,1,3.43-.22,16.75,16.75,0,0,1,3.43.42v.08a17.48,17.48,0,0,1-3.43.42,23.16,23.16,0,0,1-3.43-.23,9,9,0,0,0-1.72-.09c-.57,0-1.14.15-1.71.22a11.07,11.07,0,0,1-3.43-.32Z"/></g><g class="cls-4"><path class="cls-5" d="M467,451.59a5.25,5.25,0,0,1,2.33-.32c.39.06.78.2,1.17.22a4.21,4.21,0,0,0,1.17-.09,10.77,10.77,0,0,1,2.33-.23,7.9,7.9,0,0,1,2.33.42v.09a8.22,8.22,0,0,1-2.33.41,10.76,10.76,0,0,1-2.33-.22,4.21,4.21,0,0,0-1.17-.1c-.39,0-.78.17-1.17.22a5.24,5.24,0,0,1-2.33-.31Z"/></g><g class="cls-4"><path class="cls-5" d="M523.06,463.24a1.33,1.33,0,0,1-1.1.32,3.16,3.16,0,0,0-.55-.22,1,1,0,0,0-.55.09,2.53,2.53,0,0,1-1.1.23,2.07,2.07,0,0,1-1.09-.42v-.08a2.07,2.07,0,0,1,1.09-.42,2.52,2.52,0,0,1,1.1.22,1,1,0,0,0,.55.1c.18,0,.37-.17.55-.22a1.29,1.29,0,0,1,1.1.32Z"/></g><g class="cls-4"><path class="cls-5" d="M453.62,475.28a1.29,1.29,0,0,1,1.1-.32,5.25,5.25,0,0,0,.55.22,1,1,0,0,0,.55-.1,2.5,2.5,0,0,1,1.09-.22,2.07,2.07,0,0,1,1.1.42v.08a2.07,2.07,0,0,1-1.1.42,2.52,2.52,0,0,1-1.09-.23,1.08,1.08,0,0,0-.55-.09,3.71,3.71,0,0,0-.55.22,1.33,1.33,0,0,1-1.1-.32Z"/></g><g class="cls-4"><path class="cls-5" d="M468.69,467.06a1.31,1.31,0,0,1,1.1-.31c.18.05.36.19.54.22a1.06,1.06,0,0,0,.55-.1,2.58,2.58,0,0,1,1.1-.22,2.17,2.17,0,0,1,1.1.41v.09a2,2,0,0,1-1.1.41,2.58,2.58,0,0,1-1.1-.22,1,1,0,0,0-.55-.09,4,4,0,0,0-.54.21,1.28,1.28,0,0,1-1.1-.31Z"/></g><g class="cls-4"><path class="cls-5" d="M502.38,459.5a1.29,1.29,0,0,1-1.1.31,4.13,4.13,0,0,0-.55-.21,1,1,0,0,0-.55.09,2.72,2.72,0,0,1-1.1.23,2.13,2.13,0,0,1-1.1-.42v-.09a2.2,2.2,0,0,1,1.1-.41,2.55,2.55,0,0,1,1.1.22,1,1,0,0,0,.55.1c.18,0,.37-.17.55-.22a1.33,1.33,0,0,1,1.1.31Z"/></g><g class="cls-4"><path class="cls-5" d="M479.43,455.59a1.31,1.31,0,0,1,1.09-.32,3.5,3.5,0,0,0,.55.22,1.05,1.05,0,0,0,.55-.09,2.56,2.56,0,0,1,1.1-.23,2.1,2.1,0,0,1,1.1.42v.08a2.1,2.1,0,0,1-1.1.42,2.55,2.55,0,0,1-1.1-.22,1,1,0,0,0-.55-.1c-.18,0-.36.17-.55.22a1.27,1.27,0,0,1-1.09-.32Z"/></g><g class="cls-4"><path class="cls-5" d="M494.91,448.74a1.32,1.32,0,0,1-1.1.31c-.18-.05-.37-.19-.55-.22a1.1,1.1,0,0,0-.55.1,2.52,2.52,0,0,1-1.1.22,2.13,2.13,0,0,1-1.09-.41v-.09a2,2,0,0,1,1.09-.41,2.52,2.52,0,0,1,1.1.22,1.1,1.1,0,0,0,.55.1c.18,0,.37-.17.55-.22a1.32,1.32,0,0,1,1.1.31Z"/></g><g class="cls-4"><path class="cls-5" d="M594.54,469.26a11.09,11.09,0,0,1-3.43.31c-.57-.06-1.15-.19-1.72-.22a8.93,8.93,0,0,0-1.71.1,24.79,24.79,0,0,1-3.43.22,16.65,16.65,0,0,1-3.43-.41v-.09a17.39,17.39,0,0,1,3.43-.42,24.81,24.81,0,0,1,3.43.23,8.92,8.92,0,0,0,1.71.09c.57,0,1.15-.15,1.72-.22a11.1,11.1,0,0,1,3.43.32Z"/></g><g class="cls-4"><path class="cls-5" d="M584.17,475.64a11.12,11.12,0,0,1-3.43.31c-.58-.06-1.15-.18-1.72-.22a8.93,8.93,0,0,0-1.71.1,23.38,23.38,0,0,1-3.44.22,16.82,16.82,0,0,1-3.43-.41v-.09a17.57,17.57,0,0,1,3.43-.42,24.85,24.85,0,0,1,3.44.23,8.92,8.92,0,0,0,1.71.09c.57,0,1.14-.15,1.72-.21a10.82,10.82,0,0,1,3.43.31Z"/></g><g class="cls-4"><path class="cls-5" d="M531.41,460.48a11.16,11.16,0,0,1,3.44-.31c.57.06,1.14.19,1.71.22a9.08,9.08,0,0,0,1.72-.1,24.59,24.59,0,0,1,3.43-.22,17.55,17.55,0,0,1,3.43.41v.09a17.57,17.57,0,0,1-3.43.42,23.16,23.16,0,0,1-3.43-.23,9.06,9.06,0,0,0-1.72-.09c-.57,0-1.14.15-1.71.22a11.17,11.17,0,0,1-3.44-.32Z"/></g><g class="cls-4"><path class="cls-5" d="M588.5,454.12a11.09,11.09,0,0,1-3.43.31c-.57-.06-1.14-.18-1.72-.21a8.92,8.92,0,0,0-1.71.09,23.33,23.33,0,0,1-3.43.22,16.65,16.65,0,0,1-3.43-.41V454a16.65,16.65,0,0,1,3.43-.41,23.33,23.33,0,0,1,3.43.22,9.82,9.82,0,0,0,1.71.1c.58,0,1.15-.16,1.72-.22a11.09,11.09,0,0,1,3.43.31Z"/></g><g class="cls-4"><path class="cls-5" d="M554.45,471.74a10.78,10.78,0,0,1,3.43-.32c.57.06,1.14.19,1.71.22a9,9,0,0,0,1.72-.1,24.69,24.69,0,0,1,3.43-.22,16.75,16.75,0,0,1,3.43.42v.08a17.48,17.48,0,0,1-3.43.42,23.26,23.26,0,0,1-3.43-.23,9,9,0,0,0-1.72-.09c-.57,0-1.14.15-1.71.22a11.07,11.07,0,0,1-3.43-.32Z"/></g><g class="cls-4"><path class="cls-5" d="M540.24,451.59a5.28,5.28,0,0,1,2.34-.32,11.3,11.3,0,0,0,1.16.22,4.21,4.21,0,0,0,1.17-.09,10.83,10.83,0,0,1,2.33-.23,8,8,0,0,1,2.34.42v.09a8.35,8.35,0,0,1-2.34.41,10.82,10.82,0,0,1-2.33-.22,4.21,4.21,0,0,0-1.17-.1c-.39,0-.78.17-1.16.22a5.27,5.27,0,0,1-2.34-.31Z"/></g><g class="cls-4"><path class="cls-5" d="M596.26,463.24a1.33,1.33,0,0,1-1.1.32,2.87,2.87,0,0,0-.55-.22,1,1,0,0,0-.55.09,2.52,2.52,0,0,1-1.09.23,2.07,2.07,0,0,1-1.1-.42v-.08a2.07,2.07,0,0,1,1.1-.42,2.5,2.5,0,0,1,1.09.22,1,1,0,0,0,.55.1,5.25,5.25,0,0,0,.55-.22,1.29,1.29,0,0,1,1.1.32Z"/></g><g class="cls-4"><path class="cls-5" d="M526.82,475.28a1.29,1.29,0,0,1,1.1-.32c.18.05.37.19.55.22a1,1,0,0,0,.55-.1,2.52,2.52,0,0,1,1.1-.22,2.07,2.07,0,0,1,1.09.42v.08a2.07,2.07,0,0,1-1.09.42,2.53,2.53,0,0,1-1.1-.23,1.07,1.07,0,0,0-.55-.09,4.2,4.2,0,0,0-.55.22,1.33,1.33,0,0,1-1.1-.32Z"/></g><g class="cls-4"><path class="cls-5" d="M541.89,467.06a1.32,1.32,0,0,1,1.1-.31,5.25,5.25,0,0,0,.55.22,1.1,1.1,0,0,0,.55-.1,2.5,2.5,0,0,1,1.09-.22,2.13,2.13,0,0,1,1.1.41v.09a2,2,0,0,1-1.1.41,2.5,2.5,0,0,1-1.09-.22,1,1,0,0,0-.55-.09,3.66,3.66,0,0,0-.55.21,1.28,1.28,0,0,1-1.1-.31Z"/></g><g class="cls-4"><path class="cls-5" d="M575.58,459.5a1.28,1.28,0,0,1-1.1.31,4.13,4.13,0,0,0-.55-.21,1,1,0,0,0-.55.09,2.68,2.68,0,0,1-1.1.23,2.07,2.07,0,0,1-1.09-.42v-.09a2.13,2.13,0,0,1,1.09-.41,2.52,2.52,0,0,1,1.1.22,1,1,0,0,0,.55.1c.18,0,.37-.17.55-.22a1.32,1.32,0,0,1,1.1.31Z"/></g><g class="cls-4"><path class="cls-5" d="M552.63,455.59a1.33,1.33,0,0,1,1.1-.32,2.87,2.87,0,0,0,.55.22,1.08,1.08,0,0,0,.55-.09,2.52,2.52,0,0,1,1.09-.23,2.07,2.07,0,0,1,1.1.42v.08a2.07,2.07,0,0,1-1.1.42,2.5,2.5,0,0,1-1.09-.22,1,1,0,0,0-.55-.1,5.25,5.25,0,0,0-.55.22,1.29,1.29,0,0,1-1.1-.32Z"/></g><g class="cls-4"><path class="cls-5" d="M568.11,448.74a1.31,1.31,0,0,1-1.1.31,5.25,5.25,0,0,0-.55-.22,1,1,0,0,0-.54.1,2.58,2.58,0,0,1-1.1.22,2.17,2.17,0,0,1-1.1-.41v-.09a2.08,2.08,0,0,1,1.1-.41,2.58,2.58,0,0,1,1.1.22,1,1,0,0,0,.54.1,5.25,5.25,0,0,0,.55-.22,1.31,1.31,0,0,1,1.1.31Z"/></g><g class="cls-4"><path class="cls-5" d="M667.74,469.26a11.09,11.09,0,0,1-3.43.31c-.57-.06-1.14-.19-1.71-.22a9,9,0,0,0-1.72.1,24.69,24.69,0,0,1-3.43.22,16.74,16.74,0,0,1-3.43-.41v-.09a17.48,17.48,0,0,1,3.43-.42,24.71,24.71,0,0,1,3.43.23,9,9,0,0,0,1.72.09c.57,0,1.14-.15,1.71-.22a11.1,11.1,0,0,1,3.43.32Z"/></g><g class="cls-4"><path class="cls-5" d="M657.37,475.64a11.09,11.09,0,0,1-3.43.31c-.57-.06-1.15-.18-1.72-.22a8.93,8.93,0,0,0-1.71.1,23.33,23.33,0,0,1-3.43.22,16.65,16.65,0,0,1-3.43-.41v-.09a17.39,17.39,0,0,1,3.43-.42,24.81,24.81,0,0,1,3.43.23,8.92,8.92,0,0,0,1.71.09c.57,0,1.15-.15,1.72-.21a10.8,10.8,0,0,1,3.43.31Z"/></g><g class="cls-4"><path class="cls-5" d="M604.62,460.48a11.07,11.07,0,0,1,3.43-.31c.57.06,1.14.19,1.71.22a9,9,0,0,0,1.72-.1,24.69,24.69,0,0,1,3.43-.22,17.46,17.46,0,0,1,3.43.41v.09a17.48,17.48,0,0,1-3.43.42,23.26,23.26,0,0,1-3.43-.23,9,9,0,0,0-1.72-.09c-.57,0-1.14.15-1.71.22a11.07,11.07,0,0,1-3.43-.32Z"/></g><g class="cls-4"><path class="cls-5" d="M661.7,454.12a11.07,11.07,0,0,1-3.43.31c-.57-.06-1.14-.18-1.71-.21a9,9,0,0,0-1.72.09,23.24,23.24,0,0,1-3.43.22,16.74,16.74,0,0,1-3.43-.41V454a16.74,16.74,0,0,1,3.43-.41,23.24,23.24,0,0,1,3.43.22,9.87,9.87,0,0,0,1.72.1c.57,0,1.14-.16,1.71-.22a11.07,11.07,0,0,1,3.43.31Z"/></g><g class="cls-4"><path class="cls-5" d="M627.65,471.74a10.81,10.81,0,0,1,3.43-.32c.57.06,1.14.19,1.72.22a8.93,8.93,0,0,0,1.71-.1,24.79,24.79,0,0,1,3.43-.22,16.67,16.67,0,0,1,3.43.42v.08a17.39,17.39,0,0,1-3.43.42,23.35,23.35,0,0,1-3.43-.23,8.92,8.92,0,0,0-1.71-.09c-.58,0-1.15.15-1.72.22a11.1,11.1,0,0,1-3.43-.32Z"/></g><g class="cls-4"><path class="cls-5" d="M613.45,451.59a5.22,5.22,0,0,1,2.33-.32c.39.06.78.2,1.17.22a4.16,4.16,0,0,0,1.16-.09,10.89,10.89,0,0,1,2.33-.23,8,8,0,0,1,2.34.42v.09a8.35,8.35,0,0,1-2.34.41,10.88,10.88,0,0,1-2.33-.22,4.18,4.18,0,0,0-1.16-.1c-.39,0-.78.17-1.17.22a5.21,5.21,0,0,1-2.33-.31Z"/></g><g class="cls-4"><path class="cls-5" d="M669.46,463.24a1.32,1.32,0,0,1-1.1.32,3.07,3.07,0,0,0-.54-.22,1,1,0,0,0-.55.09,2.59,2.59,0,0,1-1.1.23,2.1,2.1,0,0,1-1.1-.42v-.08a2.1,2.1,0,0,1,1.1-.42,2.58,2.58,0,0,1,1.1.22,1,1,0,0,0,.55.1c.18,0,.36-.17.54-.22a1.28,1.28,0,0,1,1.1.32Z"/></g><g class="cls-4"><path class="cls-5" d="M600,475.28a1.3,1.3,0,0,1,1.1-.32c.19.05.37.19.55.22a1,1,0,0,0,.55-.1,2.55,2.55,0,0,1,1.1-.22,2.13,2.13,0,0,1,1.1.42v.08a2.13,2.13,0,0,1-1.1.42,2.56,2.56,0,0,1-1.1-.23,1.07,1.07,0,0,0-.55-.09,4.85,4.85,0,0,0-.55.22,1.33,1.33,0,0,1-1.1-.32Z"/></g><g class="cls-4"><path class="cls-5" d="M615.09,467.06a1.32,1.32,0,0,1,1.1-.31c.18.05.37.19.55.22a1.08,1.08,0,0,0,.55-.1,2.52,2.52,0,0,1,1.1-.22,2.13,2.13,0,0,1,1.09.41v.09a2,2,0,0,1-1.09.41,2.52,2.52,0,0,1-1.1-.22,1,1,0,0,0-.55-.09,4.13,4.13,0,0,0-.55.21,1.28,1.28,0,0,1-1.1-.31Z"/></g><g class="cls-4"><path class="cls-5" d="M648.78,459.5a1.28,1.28,0,0,1-1.1.31,3.66,3.66,0,0,0-.55-.21,1,1,0,0,0-.55.09,2.67,2.67,0,0,1-1.09.23,2.1,2.1,0,0,1-1.1-.42v-.09a2.17,2.17,0,0,1,1.1-.41,2.5,2.5,0,0,1,1.09.22,1,1,0,0,0,.55.1,5.25,5.25,0,0,0,.55-.22,1.32,1.32,0,0,1,1.1.31Z"/></g><g class="cls-4"><path class="cls-5" d="M625.83,455.59a1.33,1.33,0,0,1,1.1-.32,3.16,3.16,0,0,0,.55.22,1.08,1.08,0,0,0,.55-.09,2.53,2.53,0,0,1,1.1-.23,2.07,2.07,0,0,1,1.09.42v.08a2.07,2.07,0,0,1-1.09.42,2.52,2.52,0,0,1-1.1-.22,1,1,0,0,0-.55-.1c-.18,0-.37.17-.55.22a1.29,1.29,0,0,1-1.1-.32Z"/></g><g class="cls-4"><path class="cls-5" d="M641.31,448.74a1.3,1.3,0,0,1-1.09.31c-.19-.05-.37-.19-.55-.22a1.06,1.06,0,0,0-.55.1,2.55,2.55,0,0,1-1.1.22,2.17,2.17,0,0,1-1.1-.41v-.09a2.08,2.08,0,0,1,1.1-.41,2.55,2.55,0,0,1,1.1.22,1.06,1.06,0,0,0,.55.1c.18,0,.36-.17.55-.22a1.3,1.3,0,0,1,1.09.31Z"/></g><g class="cls-4"><path class="cls-5" d="M740.94,469.26a11.07,11.07,0,0,1-3.43.31c-.57-.06-1.14-.19-1.71-.22a9,9,0,0,0-1.72.1,24.69,24.69,0,0,1-3.43.22,16.74,16.74,0,0,1-3.43-.41v-.09a17.48,17.48,0,0,1,3.43-.42,24.71,24.71,0,0,1,3.43.23,9,9,0,0,0,1.72.09c.57,0,1.14-.15,1.71-.22a11.07,11.07,0,0,1,3.43.32Z"/></g><g class="cls-4"><path class="cls-5" d="M730.57,475.64a11.09,11.09,0,0,1-3.43.31c-.57-.06-1.14-.18-1.71-.22a9,9,0,0,0-1.72.1,23.24,23.24,0,0,1-3.43.22,16.74,16.74,0,0,1-3.43-.41v-.09a17.48,17.48,0,0,1,3.43-.42,24.71,24.71,0,0,1,3.43.23,9,9,0,0,0,1.72.09c.57,0,1.14-.15,1.71-.21a10.8,10.8,0,0,1,3.43.31Z"/></g><g class="cls-4"><path class="cls-5" d="M677.82,460.48a11.09,11.09,0,0,1,3.43-.31c.57.06,1.14.19,1.72.22a8.93,8.93,0,0,0,1.71-.1,24.79,24.79,0,0,1,3.43-.22,17.37,17.37,0,0,1,3.43.41v.09a17.39,17.39,0,0,1-3.43.42,23.35,23.35,0,0,1-3.43-.23,8.92,8.92,0,0,0-1.71-.09c-.58,0-1.15.15-1.72.22a11.1,11.1,0,0,1-3.43-.32Z"/></g><g class="cls-4"><path class="cls-5" d="M734.91,454.12a11.16,11.16,0,0,1-3.44.31c-.57-.06-1.14-.18-1.71-.21a9.06,9.06,0,0,0-1.72.09,23.16,23.16,0,0,1-3.43.22,16.82,16.82,0,0,1-3.43-.41V454a16.82,16.82,0,0,1,3.43-.41,23.16,23.16,0,0,1,3.43.22,10,10,0,0,0,1.72.1c.57,0,1.14-.16,1.71-.22a11.16,11.16,0,0,1,3.44.31Z"/></g><g class="cls-4"><path class="cls-5" d="M700.85,471.74a10.83,10.83,0,0,1,3.43-.32c.58.06,1.15.19,1.72.22a8.93,8.93,0,0,0,1.71-.1,24.83,24.83,0,0,1,3.44-.22,16.84,16.84,0,0,1,3.43.42v.08a17.57,17.57,0,0,1-3.43.42,23.39,23.39,0,0,1-3.44-.23,8.92,8.92,0,0,0-1.71-.09c-.57,0-1.14.15-1.72.22a11.13,11.13,0,0,1-3.43-.32Z"/></g><g class="cls-4"><path class="cls-5" d="M686.65,451.59a5.24,5.24,0,0,1,2.33-.32c.39.06.78.2,1.17.22a4.11,4.11,0,0,0,1.16-.09,10.92,10.92,0,0,1,2.34-.23,8,8,0,0,1,2.33.42v.09a8.34,8.34,0,0,1-2.33.41,10.91,10.91,0,0,1-2.34-.22,4.11,4.11,0,0,0-1.16-.1c-.39,0-.78.17-1.17.22a5.23,5.23,0,0,1-2.33-.31Z"/></g><g class="cls-4"><path class="cls-5" d="M742.67,463.24a1.33,1.33,0,0,1-1.1.32,3.5,3.5,0,0,0-.55-.22,1,1,0,0,0-.55.09,2.56,2.56,0,0,1-1.1.23,2.13,2.13,0,0,1-1.1-.42v-.08a2.13,2.13,0,0,1,1.1-.42,2.55,2.55,0,0,1,1.1.22,1,1,0,0,0,.55.1c.18,0,.36-.17.55-.22a1.3,1.3,0,0,1,1.1.32Z"/></g><g class="cls-4"><path class="cls-5" d="M673.23,475.28a1.28,1.28,0,0,1,1.1-.32c.18.05.36.19.54.22a1,1,0,0,0,.55-.1,2.58,2.58,0,0,1,1.1-.22,2.1,2.1,0,0,1,1.1.42v.08a2.1,2.1,0,0,1-1.1.42,2.59,2.59,0,0,1-1.1-.23,1.05,1.05,0,0,0-.55-.09,4.08,4.08,0,0,0-.54.22,1.32,1.32,0,0,1-1.1-.32Z"/></g><g class="cls-4"><path class="cls-5" d="M688.29,467.06a1.33,1.33,0,0,1,1.1-.31c.19.05.37.19.55.22a1.08,1.08,0,0,0,.55-.1,2.55,2.55,0,0,1,1.1-.22,2.2,2.2,0,0,1,1.1.41v.09a2,2,0,0,1-1.1.41,2.55,2.55,0,0,1-1.1-.22,1,1,0,0,0-.55-.09,4.72,4.72,0,0,0-.55.21,1.29,1.29,0,0,1-1.1-.31Z"/></g><g class="cls-4"><path class="cls-5" d="M722,459.5a1.26,1.26,0,0,1-1.09.31,4.72,4.72,0,0,0-.55-.21,1,1,0,0,0-.55.09,2.72,2.72,0,0,1-1.1.23,2.1,2.1,0,0,1-1.1-.42v-.09a2.17,2.17,0,0,1,1.1-.41,2.55,2.55,0,0,1,1.1.22,1,1,0,0,0,.55.1c.18,0,.36-.17.55-.22a1.3,1.3,0,0,1,1.09.31Z"/></g><g class="cls-4"><path class="cls-5" d="M699,455.59a1.33,1.33,0,0,1,1.1-.32,3.5,3.5,0,0,0,.55.22,1.07,1.07,0,0,0,.55-.09,2.56,2.56,0,0,1,1.1-.23,2.13,2.13,0,0,1,1.1.42v.08a2.13,2.13,0,0,1-1.1.42,2.55,2.55,0,0,1-1.1-.22,1,1,0,0,0-.55-.1c-.18,0-.36.17-.55.22a1.3,1.3,0,0,1-1.1-.32Z"/></g><g class="cls-4"><path class="cls-5" d="M714.52,448.74a1.33,1.33,0,0,1-1.1.31c-.18-.05-.37-.19-.55-.22a1.08,1.08,0,0,0-.55.1,2.55,2.55,0,0,1-1.1.22,2.2,2.2,0,0,1-1.1-.41v-.09a2.11,2.11,0,0,1,1.1-.41,2.55,2.55,0,0,1,1.1.22,1.08,1.08,0,0,0,.55.1c.18,0,.37-.17.55-.22a1.33,1.33,0,0,1,1.1.31Z"/></g></g></g></svg>