<svg xmlns="http://www.w3.org/2000/svg" viewBox="0 0 1080 1080"><defs><style>.cls-1{isolation:isolate;}.cls-2{fill:#68311d;}.cls-3{fill:#441f14;}.cls-4,.cls-5{fill:#00beff;}.cls-20,.cls-5{mix-blend-mode:screen;}.cls-6{fill:#94b45f;}.cls-7{fill:#996651;}.cls-8{mix-blend-mode:multiply;}.cls-9{fill:#984b2a;}.cls-10{fill:#415257;}.cls-11{fill:#253133;}.cls-12{fill:#a57c5e;}.cls-13,.cls-14,.cls-17,.cls-19{fill:none;}.cls-13,.cls-14{stroke:#54696f;}.cls-13,.cls-17,.cls-19,.cls-22{stroke-miterlimit:10;}.cls-13{stroke-width:3px;}.cls-14{stroke-linecap:square;stroke-linejoin:round;stroke-width:11px;}.cls-15{fill:#9e9e9e;}.cls-16{fill:#d3d3d3;}.cls-17{stroke:#ff5252;}.cls-18{fill:#54696f;}.cls-19{stroke:#2e518f;}.cls-21{fill:#fff;}.cls-22{fill:#9b9b9b;stroke:#595959;stroke-width:4px;}</style></defs><g class="cls-1"><g id="Capa_1" data-name="Capa 1"><rect class="cls-2" x="601.54" y="593.27" width="223.04" height="115.51"/><rect class="cls-2" x="383.99" y="593.27" width="223.04" height="115.51"/><path class="cls-3" d="M784.49,674.73c0-3.34,4-5.88,7.17-5.88a6.15,6.15,0,0,1,6.23,5.88c0,3.33-3,7.55-6.23,7.55S784.49,678.06,784.49,674.73Z"/><path class="cls-3" d="M672,644.88c0-3.34,4-5.87,7.17-5.87a6.14,6.14,0,0,1,6.23,5.87c0,3.34-3,7.56-6.23,7.56S672,648.22,672,644.88Z"/><path class="cls-3" d="M707.72,627.49c0-3.34,4-5.87,7.17-5.87a6.14,6.14,0,0,1,6.22,5.87c0,3.34-3,7.56-6.22,7.56S707.72,630.83,707.72,627.49Z"/><path class="cls-3" d="M607.38,607.54c0-3.34,4-5.87,7.17-5.87a6.14,6.14,0,0,1,6.22,5.87c0,3.34-3,7.56-6.22,7.56S607.38,610.88,607.38,607.54Z"/><path class="cls-3" d="M695.36,607.54c0-3.34,4-5.87,7.17-5.87a6.15,6.15,0,0,1,6.23,5.87c0,3.34-3,7.56-6.23,7.56S695.36,610.88,695.36,607.54Z"/><path class="cls-3" d="M723.63,633.49c0-3.34,4-5.87,7.18-5.87a6.14,6.14,0,0,1,6.22,5.87c0,3.33-3,7.56-6.22,7.56S723.63,636.82,723.63,633.49Z"/><path class="cls-3" d="M745.84,607.54c0-3.34,4-5.87,7.17-5.87a6.14,6.14,0,0,1,6.23,5.87c0,3.34-3,7.56-6.23,7.56S745.84,610.88,745.84,607.54Z"/><path class="cls-3" d="M624.11,617.35c0-3.33,4-5.87,7.18-5.87a6.15,6.15,0,0,1,6.22,5.87c0,3.34-3,7.56-6.22,7.56S624.11,620.69,624.11,617.35Z"/><path class="cls-3" d="M665.33,627.49c0-3.34,4-5.87,7.17-5.87a6.14,6.14,0,0,1,6.23,5.87c0,3.34-3,7.56-6.23,7.56S665.33,630.83,665.33,627.49Z"/><path class="cls-3" d="M716.93,649.61c0-3.33,4-5.87,7.18-5.87a6.15,6.15,0,0,1,6.22,5.87c0,3.34-3,7.56-6.22,7.56S716.93,653,716.93,649.61Z"/><path class="cls-3" d="M752.54,653.63c0-3.34,4-5.87,7.17-5.87a6.14,6.14,0,0,1,6.23,5.87c0,3.34-3,7.56-6.23,7.56S752.54,657,752.54,653.63Z"/><path class="cls-3" d="M749.29,686c0-7.88,9.81-16,17.37-16s16.11,8.14,16.11,16-8.56,10.84-16.11,10.84S749.29,693.9,749.29,686Z"/><path class="cls-3" d="M614.08,695.29c0-7.88,9.8-16,17.36-16s16.11,8.14,16.11,16-8.55,10.84-16.11,10.84S614.08,703.16,614.08,695.29Z"/><path class="cls-3" d="M770.87,653.61c0-6.14,5.19-13.55,11.08-13.55s11.12,7.41,11.12,13.55-5.23,14-11.12,14S770.87,659.75,770.87,653.61Z"/><path class="cls-3" d="M610.49,645.51c0-6.14,5.19-13.56,11.08-13.56s11.12,7.42,11.12,13.56-5.22,14-11.12,14S610.49,651.64,610.49,645.51Z"/><path class="cls-3" d="M782,629.51c0-4.93,3.49-10.44,8.23-10.44s10.21,5.51,10.21,10.44-5.47,8.08-10.21,8.08S782,634.45,782,629.51Z"/><path class="cls-3" d="M669.51,612.66c0-4.94,3.49-10.44,8.23-10.44S688,607.72,688,612.66s-5.47,8.08-10.21,8.08S669.51,617.6,669.51,612.66Z"/><path class="cls-3" d="M612.37,672.46c0-4.94,3.5-10.44,8.24-10.44s10.2,5.5,10.2,10.44-5.47,8.08-10.2,8.08S612.37,677.4,612.37,672.46Z"/><path class="cls-3" d="M657.77,693.88c0-4.93,3.49-10.44,8.23-10.44s10.21,5.51,10.21,10.44S670.74,702,666,702,657.77,698.82,657.77,693.88Z"/><path class="cls-3" d="M667,670c0-4.93,3.49-10.44,8.23-10.44s10.21,5.51,10.21,10.44-5.47,8.09-10.21,8.09S667,675,667,670Z"/><path class="cls-3" d="M705.2,675.28c0-4.93,3.49-10.44,8.23-10.44s10.2,5.51,10.2,10.44-5.46,8.08-10.2,8.08S705.2,680.22,705.2,675.28Z"/><path class="cls-3" d="M638.33,665.07c0-6.27,6.55-10.6,12.58-10.6s8.92,4.33,8.92,10.6-2.9,10.5-8.92,10.5S638.33,671.34,638.33,665.07Z"/><path class="cls-3" d="M644.32,611.53c0-6.27,6.56-10.6,12.58-10.6s8.92,4.33,8.92,10.6-2.9,10.5-8.92,10.5S644.32,617.8,644.32,611.53Z"/><path class="cls-3" d="M714.42,608.43c0-6.27,6.55-10.6,12.57-10.6s8.92,4.33,8.92,10.6-2.9,10.5-8.92,10.5S714.42,614.71,714.42,608.43Z"/><path class="cls-3" d="M797.83,650.6c0-6.27,6.55-10.6,12.57-10.6s8.92,4.33,8.92,10.6-2.9,10.5-8.92,10.5S797.83,656.87,797.83,650.6Z"/><path class="cls-3" d="M685.6,627.13c0-5.87,6-8.2,11.6-8.2s7.92,2.33,7.92,8.2-2.28,10.61-7.92,10.61S685.6,633,685.6,627.13Z"/><path class="cls-3" d="M766,614.61c0-5.87,6-8.2,11.6-8.2s7.92,2.33,7.92,8.2-2.28,10.6-7.92,10.6S766,620.48,766,614.61Z"/><path class="cls-3" d="M638.28,638.05c0-5.14,5.55-11,10.48-11s11.12,5.91,11.12,11-6.19,10.14-11.12,10.14S638.28,643.19,638.28,638.05Z"/><path class="cls-3" d="M797.78,608.84c0-5.14,5.54-11.05,10.47-11.05s11.12,5.91,11.12,11.05S813.19,619,808.25,619,797.78,614,797.78,608.84Z"/><path class="cls-3" d="M740.57,630.07c0-7.67,5.24-11.87,12.6-11.87s11.33,4.2,11.33,11.87-4,15.65-11.33,15.65S740.57,637.75,740.57,630.07Z"/><path class="cls-3" d="M728.59,667.21c0-7.74,5.77-15.15,13.2-15.15s10.75,7.41,10.75,15.15-3.32,10.87-10.75,10.87S728.59,675,728.59,667.21Z"/><path class="cls-3" d="M796.6,691.86c0-7.74,5.77-15.15,13.2-15.15s10.75,7.41,10.75,15.15-3.32,10.87-10.75,10.87S796.6,699.6,796.6,691.86Z"/><path class="cls-3" d="M681.56,689.23c0-5.93,2.61-11.38,8.31-11.38s12.19,5.45,12.19,11.38-6.49,8.66-12.19,8.66S681.56,695.17,681.56,689.23Z"/><path class="cls-3" d="M725.16,694.07c0-5.94,2.61-11.39,8.31-11.39s12.19,5.45,12.19,11.39-6.49,8.66-12.19,8.66S725.16,700,725.16,694.07Z"/><path class="cls-3" d="M689.38,655.83c0-5.94,2.61-11.38,8.31-11.38s12.18,5.44,12.18,11.38-6.48,8.66-12.18,8.66S689.38,661.77,689.38,655.83Z"/><path class="cls-3" d="M566.94,627.32c0,3.33,4,5.87,7.17,5.87a6.15,6.15,0,0,0,6.23-5.87c0-3.34-3-7.56-6.23-7.56S566.94,624,566.94,627.32Z"/><path class="cls-3" d="M454.48,657.16c0,3.34,4,5.88,7.17,5.88a6.15,6.15,0,0,0,6.23-5.88c0-3.33-3-7.55-6.23-7.55S454.48,653.83,454.48,657.16Z"/><path class="cls-3" d="M490.17,674.55c0,3.34,4,5.87,7.17,5.87a6.14,6.14,0,0,0,6.22-5.87c0-3.33-3-7.56-6.22-7.56S490.17,671.22,490.17,674.55Z"/><path class="cls-3" d="M389.83,694.5c0,3.34,4,5.87,7.17,5.87a6.14,6.14,0,0,0,6.22-5.87c0-3.33-3-7.56-6.22-7.56S389.83,691.17,389.83,694.5Z"/><path class="cls-3" d="M477.81,694.5c0,3.34,4,5.87,7.17,5.87a6.15,6.15,0,0,0,6.23-5.87c0-3.33-3-7.56-6.23-7.56S477.81,691.17,477.81,694.5Z"/><path class="cls-3" d="M506.08,668.56c0,3.33,4,5.87,7.18,5.87a6.15,6.15,0,0,0,6.22-5.87c0-3.34-3-7.56-6.22-7.56S506.08,665.22,506.08,668.56Z"/><path class="cls-3" d="M528.29,694.5c0,3.34,4,5.87,7.17,5.87a6.14,6.14,0,0,0,6.23-5.87c0-3.33-3-7.56-6.23-7.56S528.29,691.17,528.29,694.5Z"/><path class="cls-3" d="M406.56,684.69c0,3.34,4,5.87,7.18,5.87a6.14,6.14,0,0,0,6.22-5.87c0-3.34-3-7.56-6.22-7.56S406.56,681.35,406.56,684.69Z"/><path class="cls-3" d="M447.78,674.55c0,3.34,4,5.87,7.17,5.87a6.14,6.14,0,0,0,6.23-5.87c0-3.33-3-7.56-6.23-7.56S447.78,671.22,447.78,674.55Z"/><path class="cls-3" d="M499.38,652.43c0,3.34,4,5.87,7.18,5.87a6.14,6.14,0,0,0,6.22-5.87c0-3.34-3-7.56-6.22-7.56S499.38,649.09,499.38,652.43Z"/><path class="cls-3" d="M535,648.41c0,3.34,4,5.88,7.17,5.88a6.15,6.15,0,0,0,6.23-5.88c0-3.33-3-7.55-6.23-7.55S535,645.08,535,648.41Z"/><path class="cls-3" d="M531.74,616c0,7.87,9.81,16,17.37,16s16.11-8.14,16.11-16-8.56-10.85-16.11-10.85S531.74,608.14,531.74,616Z"/><path class="cls-3" d="M396.53,606.76c0,7.87,9.8,16,17.36,16s16.11-8.14,16.11-16-8.55-10.85-16.11-10.85S396.53,598.88,396.53,606.76Z"/><path class="cls-3" d="M553.32,648.43c0,6.14,5.19,13.55,11.08,13.55s11.12-7.41,11.12-13.55-5.23-14-11.12-14S553.32,642.29,553.32,648.43Z"/><path class="cls-3" d="M392.94,656.54c0,6.14,5.19,13.55,11.08,13.55s11.12-7.41,11.12-13.55-5.22-14-11.12-14S392.94,650.4,392.94,656.54Z"/><path class="cls-3" d="M564.42,672.53c0,4.94,3.49,10.44,8.23,10.44s10.21-5.5,10.21-10.44-5.47-8.08-10.21-8.08S564.42,667.59,564.42,672.53Z"/><path class="cls-3" d="M452,689.38c0,4.94,3.49,10.44,8.23,10.44s10.21-5.5,10.21-10.44-5.47-8.08-10.21-8.08S452,684.44,452,689.38Z"/><path class="cls-3" d="M394.82,629.58c0,4.94,3.5,10.44,8.23,10.44s10.21-5.5,10.21-10.44-5.47-8.08-10.21-8.08S394.82,624.64,394.82,629.58Z"/><path class="cls-3" d="M440.22,608.16c0,4.94,3.49,10.44,8.23,10.44s10.21-5.5,10.21-10.44-5.47-8.08-10.21-8.08S440.22,603.22,440.22,608.16Z"/><path class="cls-3" d="M449.44,632c0,4.94,3.49,10.44,8.23,10.44S467.88,637,467.88,632s-5.47-8.08-10.21-8.08S449.44,627.07,449.44,632Z"/><path class="cls-3" d="M487.64,626.76c0,4.94,3.5,10.44,8.24,10.44s10.2-5.5,10.2-10.44-5.46-8.08-10.2-8.08S487.64,621.82,487.64,626.76Z"/><path class="cls-3" d="M420.78,637c0,6.27,6.55,10.6,12.58,10.6s8.92-4.33,8.92-10.6-2.9-10.5-8.92-10.5S420.78,630.7,420.78,637Z"/><path class="cls-3" d="M426.77,690.51c0,6.27,6.56,10.6,12.58,10.6s8.92-4.33,8.92-10.6-2.9-10.5-8.92-10.5S426.77,684.24,426.77,690.51Z"/><path class="cls-3" d="M496.86,693.61c0,6.27,6.56,10.6,12.58,10.6s8.92-4.33,8.92-10.6-2.9-10.5-8.92-10.5S496.86,687.34,496.86,693.61Z"/><path class="cls-3" d="M580.28,651.45c0,6.27,6.55,10.59,12.57,10.59s8.92-4.32,8.92-10.59-2.9-10.5-8.92-10.5S580.28,645.17,580.28,651.45Z"/><path class="cls-3" d="M468.05,674.91c0,5.87,6,8.2,11.6,8.2s7.92-2.33,7.92-8.2-2.28-10.6-7.92-10.6S468.05,669,468.05,674.91Z"/><path class="cls-3" d="M548.48,687.43c0,5.88,6,8.2,11.6,8.2s7.92-2.32,7.92-8.2-2.28-10.6-7.92-10.6S548.48,681.56,548.48,687.43Z"/><path class="cls-3" d="M420.73,664c0,5.14,5.55,11,10.48,11s11.12-5.91,11.12-11-6.19-10.13-11.12-10.13S420.73,658.85,420.73,664Z"/><path class="cls-3" d="M580.22,693.2c0,5.14,5.55,11,10.48,11s11.12-5.91,11.12-11-6.19-10.13-11.12-10.13S580.22,688.06,580.22,693.2Z"/><path class="cls-3" d="M523,672c0,7.67,5.24,11.88,12.6,11.88S547,679.64,547,672s-4-15.65-11.33-15.65S523,664.3,523,672Z"/><path class="cls-3" d="M511,634.83c0,7.74,5.77,15.15,13.2,15.15S535,642.57,535,634.83,531.67,624,524.24,624,511,627.09,511,634.83Z"/><path class="cls-3" d="M579.05,610.19c0,7.74,5.77,15.14,13.2,15.14S603,617.93,603,610.19s-3.32-10.87-10.75-10.87S579.05,602.45,579.05,610.19Z"/><path class="cls-3" d="M464,612.81c0,5.94,2.61,11.38,8.31,11.38s12.19-5.44,12.19-11.38-6.49-8.66-12.19-8.66S464,606.87,464,612.81Z"/><path class="cls-3" d="M507.61,608c0,5.94,2.61,11.38,8.31,11.38s12.19-5.44,12.19-11.38-6.49-8.66-12.19-8.66S507.61,602,507.61,608Z"/><path class="cls-3" d="M471.83,646.21c0,5.94,2.61,11.38,8.31,11.38s12.18-5.44,12.18-11.38-6.48-8.66-12.18-8.66S471.83,640.27,471.83,646.21Z"/><rect class="cls-2" x="383.99" y="478.62" width="223.04" height="115.51"/><path class="cls-3" d="M424.09,512.67c0,3.33-4,5.87-7.18,5.87a6.15,6.15,0,0,1-6.22-5.87c0-3.34,3-7.56,6.22-7.56S424.09,509.33,424.09,512.67Z"/><path class="cls-3" d="M536.55,542.51c0,3.34-4,5.87-7.18,5.87a6.14,6.14,0,0,1-6.22-5.87c0-3.33,3-7.55,6.22-7.55S536.55,539.18,536.55,542.51Z"/><path class="cls-3" d="M500.86,559.9c0,3.34-4,5.87-7.17,5.87a6.14,6.14,0,0,1-6.22-5.87c0-3.34,3-7.56,6.22-7.56S500.86,556.56,500.86,559.9Z"/><path class="cls-3" d="M601.2,579.85c0,3.34-4,5.87-7.17,5.87a6.15,6.15,0,0,1-6.23-5.87c0-3.34,3-7.56,6.23-7.56S601.2,576.51,601.2,579.85Z"/><path class="cls-3" d="M513.22,579.85c0,3.34-4,5.87-7.17,5.87a6.14,6.14,0,0,1-6.23-5.87c0-3.34,3-7.56,6.23-7.56S513.22,576.51,513.22,579.85Z"/><path class="cls-3" d="M485,553.9c0,3.34-4,5.88-7.18,5.88a6.15,6.15,0,0,1-6.22-5.88c0-3.33,3-7.55,6.22-7.55S485,550.57,485,553.9Z"/><path class="cls-3" d="M462.74,579.85c0,3.34-4,5.87-7.18,5.87a6.14,6.14,0,0,1-6.22-5.87c0-3.34,3-7.56,6.22-7.56S462.74,576.51,462.74,579.85Z"/><path class="cls-3" d="M584.47,570c0,3.34-4,5.87-7.18,5.87a6.14,6.14,0,0,1-6.22-5.87c0-3.34,3-7.56,6.22-7.56S584.47,566.7,584.47,570Z"/><path class="cls-3" d="M543.25,559.9c0,3.34-4,5.87-7.18,5.87a6.14,6.14,0,0,1-6.22-5.87c0-3.34,3-7.56,6.22-7.56S543.25,556.56,543.25,559.9Z"/><path class="cls-3" d="M491.64,537.78c0,3.34-4,5.87-7.17,5.87a6.14,6.14,0,0,1-6.22-5.87c0-3.34,3-7.56,6.22-7.56S491.64,534.44,491.64,537.78Z"/><path class="cls-3" d="M456,533.76c0,3.34-4,5.87-7.17,5.87a6.14,6.14,0,0,1-6.23-5.87c0-3.33,3-7.56,6.23-7.56S456,530.43,456,533.76Z"/><path class="cls-3" d="M459.29,501.37c0,7.87-9.81,16-17.37,16s-16.11-8.14-16.11-16,8.56-10.85,16.11-10.85S459.29,493.49,459.29,501.37Z"/><path class="cls-3" d="M594.5,492.11c0,7.87-9.8,16-17.36,16S561,500,561,492.11s8.55-10.85,16.11-10.85S594.5,484.23,594.5,492.11Z"/><path class="cls-3" d="M437.71,533.78c0,6.14-5.19,13.55-11.08,13.55s-11.12-7.41-11.12-13.55,5.22-14,11.12-14S437.71,527.64,437.71,533.78Z"/><path class="cls-3" d="M598.09,541.89c0,6.14-5.19,13.55-11.08,13.55s-11.12-7.41-11.12-13.55,5.22-14,11.12-14S598.09,535.75,598.09,541.89Z"/><path class="cls-3" d="M426.61,557.88c0,4.94-3.49,10.44-8.23,10.44s-10.21-5.5-10.21-10.44,5.47-8.08,10.21-8.08S426.61,552.94,426.61,557.88Z"/><path class="cls-3" d="M539.07,574.73c0,4.94-3.49,10.44-8.23,10.44s-10.21-5.5-10.21-10.44,5.47-8.08,10.21-8.08S539.07,569.79,539.07,574.73Z"/><path class="cls-3" d="M596.21,514.93c0,4.94-3.5,10.44-8.24,10.44s-10.2-5.5-10.2-10.44,5.47-8.08,10.2-8.08S596.21,510,596.21,514.93Z"/><path class="cls-3" d="M550.81,493.51c0,4.94-3.49,10.44-8.23,10.44s-10.21-5.5-10.21-10.44,5.47-8.08,10.21-8.08S550.81,488.57,550.81,493.51Z"/><path class="cls-3" d="M541.59,517.36c0,4.93-3.49,10.44-8.23,10.44s-10.21-5.51-10.21-10.44,5.47-8.08,10.21-8.08S541.59,512.42,541.59,517.36Z"/><path class="cls-3" d="M503.38,512.11c0,4.94-3.49,10.44-8.23,10.44s-10.2-5.5-10.2-10.44,5.46-8.08,10.2-8.08S503.38,507.17,503.38,512.11Z"/><path class="cls-3" d="M570.25,522.32c0,6.27-6.56,10.6-12.58,10.6s-8.92-4.33-8.92-10.6,2.9-10.5,8.92-10.5S570.25,516.05,570.25,522.32Z"/><path class="cls-3" d="M564.25,575.86c0,6.27-6.55,10.6-12.57,10.6s-8.92-4.33-8.92-10.6,2.9-10.5,8.92-10.5S564.25,569.59,564.25,575.86Z"/><path class="cls-3" d="M494.16,579c0,6.27-6.55,10.6-12.57,10.6s-8.92-4.33-8.92-10.6,2.9-10.5,8.92-10.5S494.16,572.69,494.16,579Z"/><path class="cls-3" d="M410.75,536.79c0,6.28-6.55,10.6-12.57,10.6s-8.92-4.32-8.92-10.6,2.9-10.49,8.92-10.49S410.75,530.52,410.75,536.79Z"/><path class="cls-3" d="M523,560.26c0,5.87-6,8.2-11.6,8.2s-7.92-2.33-7.92-8.2,2.28-10.6,7.92-10.6S523,554.39,523,560.26Z"/><path class="cls-3" d="M442.55,572.78c0,5.87-6,8.2-11.6,8.2s-7.92-2.33-7.92-8.2,2.28-10.6,7.92-10.6S442.55,566.91,442.55,572.78Z"/><path class="cls-3" d="M570.3,549.34c0,5.14-5.55,11-10.48,11s-11.12-5.91-11.12-11,6.19-10.13,11.12-10.13S570.3,544.2,570.3,549.34Z"/><path class="cls-3" d="M410.8,578.55c0,5.14-5.54,11.05-10.47,11.05s-11.12-5.91-11.12-11.05,6.18-10.13,11.12-10.13S410.8,573.41,410.8,578.55Z"/><path class="cls-3" d="M468,557.32c0,7.67-5.24,11.88-12.6,11.88s-11.33-4.21-11.33-11.88,4-15.65,11.33-15.65S468,549.65,468,557.32Z"/><path class="cls-3" d="M480,520.18c0,7.74-5.78,15.15-13.2,15.15S456,527.92,456,520.18s3.32-10.87,10.75-10.87S480,512.44,480,520.18Z"/><path class="cls-3" d="M412,495.53c0,7.74-5.77,15.15-13.2,15.15S388,503.27,388,495.53s3.32-10.86,10.75-10.86S412,487.79,412,495.53Z"/><path class="cls-3" d="M527,498.16c0,5.94-2.61,11.38-8.31,11.38s-12.19-5.44-12.19-11.38,6.49-8.66,12.19-8.66S527,492.22,527,498.16Z"/><path class="cls-3" d="M483.42,493.33c0,5.94-2.61,11.38-8.31,11.38s-12.19-5.44-12.19-11.38,6.49-8.66,12.19-8.66S483.42,487.39,483.42,493.33Z"/><path class="cls-3" d="M519.2,531.56c0,5.94-2.61,11.38-8.31,11.38s-12.18-5.44-12.18-11.38,6.48-8.66,12.18-8.66S519.2,525.62,519.2,531.56Z"/><rect class="cls-2" x="601.54" y="478.62" width="223.04" height="115.51"/><path class="cls-3" d="M641.64,560.08c0-3.34-4-5.88-7.18-5.88a6.15,6.15,0,0,0-6.22,5.88c0,3.33,3,7.55,6.22,7.55S641.64,563.41,641.64,560.08Z"/><path class="cls-3" d="M754.1,530.23c0-3.34-4-5.87-7.18-5.87a6.14,6.14,0,0,0-6.22,5.87c0,3.33,3,7.56,6.22,7.56S754.1,533.56,754.1,530.23Z"/><path class="cls-3" d="M718.41,512.84c0-3.34-4-5.87-7.17-5.87a6.14,6.14,0,0,0-6.22,5.87c0,3.34,3,7.56,6.22,7.56S718.41,516.18,718.41,512.84Z"/><path class="cls-3" d="M818.75,492.89c0-3.34-4-5.87-7.17-5.87a6.14,6.14,0,0,0-6.22,5.87c0,3.34,3,7.56,6.22,7.56S818.75,496.23,818.75,492.89Z"/><path class="cls-3" d="M730.77,492.89c0-3.34-4-5.87-7.17-5.87a6.14,6.14,0,0,0-6.23,5.87c0,3.34,3,7.56,6.23,7.56S730.77,496.23,730.77,492.89Z"/><path class="cls-3" d="M702.5,518.84c0-3.34-4-5.88-7.18-5.88a6.15,6.15,0,0,0-6.22,5.88c0,3.33,3,7.55,6.22,7.55S702.5,522.17,702.5,518.84Z"/><path class="cls-3" d="M680.29,492.89c0-3.34-4-5.87-7.18-5.87a6.14,6.14,0,0,0-6.22,5.87c0,3.34,3,7.56,6.22,7.56S680.29,496.23,680.29,492.89Z"/><path class="cls-3" d="M802,502.7c0-3.33-4-5.87-7.18-5.87a6.15,6.15,0,0,0-6.22,5.87c0,3.34,3,7.56,6.22,7.56S802,506,802,502.7Z"/><path class="cls-3" d="M760.8,512.84c0-3.34-4-5.87-7.17-5.87a6.14,6.14,0,0,0-6.23,5.87c0,3.34,3,7.56,6.23,7.56S760.8,516.18,760.8,512.84Z"/><path class="cls-3" d="M709.19,535c0-3.34-4-5.87-7.17-5.87A6.14,6.14,0,0,0,695.8,535c0,3.34,3,7.56,6.22,7.56S709.19,538.3,709.19,535Z"/><path class="cls-3" d="M673.59,539c0-3.34-4-5.87-7.17-5.87a6.14,6.14,0,0,0-6.23,5.87c0,3.33,3,7.56,6.23,7.56S673.59,542.31,673.59,539Z"/><path class="cls-3" d="M676.84,571.38c0-7.88-9.81-16-17.37-16s-16.11,8.14-16.11,16,8.56,10.84,16.11,10.84S676.84,579.25,676.84,571.38Z"/><path class="cls-3" d="M812.05,580.64c0-7.88-9.8-16-17.36-16s-16.11,8.14-16.11,16,8.55,10.84,16.11,10.84S812.05,588.51,812.05,580.64Z"/><path class="cls-3" d="M655.26,539c0-6.14-5.19-13.55-11.08-13.55s-11.12,7.41-11.12,13.55,5.22,14,11.12,14S655.26,545.1,655.26,539Z"/><path class="cls-3" d="M815.64,530.86c0-6.14-5.19-13.56-11.08-13.56s-11.12,7.42-11.12,13.56,5.22,14,11.12,14S815.64,537,815.64,530.86Z"/><path class="cls-3" d="M644.16,514.86c0-4.93-3.49-10.44-8.23-10.44s-10.21,5.51-10.21,10.44,5.47,8.08,10.21,8.08S644.16,519.8,644.16,514.86Z"/><path class="cls-3" d="M756.62,498c0-4.94-3.49-10.44-8.23-10.44s-10.21,5.5-10.21,10.44,5.47,8.08,10.21,8.08S756.62,503,756.62,498Z"/><path class="cls-3" d="M813.76,557.81c0-4.94-3.5-10.44-8.24-10.44s-10.2,5.5-10.2,10.44,5.47,8.08,10.2,8.08S813.76,562.75,813.76,557.81Z"/><path class="cls-3" d="M768.36,579.23c0-4.93-3.49-10.44-8.23-10.44s-10.21,5.51-10.21,10.44,5.47,8.08,10.21,8.08S768.36,584.17,768.36,579.23Z"/><path class="cls-3" d="M759.14,555.38c0-4.93-3.49-10.44-8.23-10.44s-10.21,5.51-10.21,10.44,5.47,8.08,10.21,8.08S759.14,560.32,759.14,555.38Z"/><path class="cls-3" d="M720.93,560.63c0-4.93-3.49-10.44-8.23-10.44s-10.2,5.51-10.2,10.44,5.46,8.08,10.2,8.08S720.93,565.57,720.93,560.63Z"/><path class="cls-3" d="M787.8,550.42c0-6.27-6.56-10.6-12.58-10.6s-8.92,4.33-8.92,10.6,2.9,10.5,8.92,10.5S787.8,556.69,787.8,550.42Z"/><path class="cls-3" d="M781.8,496.88c0-6.27-6.55-10.6-12.57-10.6s-8.92,4.33-8.92,10.6,2.9,10.5,8.92,10.5S781.8,503.15,781.8,496.88Z"/><path class="cls-3" d="M711.71,493.78c0-6.27-6.55-10.6-12.57-10.6s-8.92,4.33-8.92,10.6,2.9,10.5,8.92,10.5S711.71,500.06,711.71,493.78Z"/><path class="cls-3" d="M628.3,536c0-6.28-6.55-10.6-12.57-10.6s-8.92,4.32-8.92,10.6,2.9,10.5,8.92,10.5S628.3,542.22,628.3,536Z"/><path class="cls-3" d="M740.53,512.48c0-5.87-6-8.2-11.6-8.2s-7.92,2.33-7.92,8.2,2.28,10.6,7.92,10.6S740.53,518.35,740.53,512.48Z"/><path class="cls-3" d="M660.1,500c0-5.87-6-8.2-11.6-8.2s-7.92,2.33-7.92,8.2,2.28,10.6,7.92,10.6S660.1,505.83,660.1,500Z"/><path class="cls-3" d="M787.85,523.4c0-5.14-5.55-11-10.48-11s-11.12,5.91-11.12,11,6.19,10.14,11.12,10.14S787.85,528.54,787.85,523.4Z"/><path class="cls-3" d="M628.35,494.19c0-5.14-5.54-11.05-10.47-11.05s-11.12,5.91-11.12,11.05,6.18,10.14,11.12,10.14S628.35,499.33,628.35,494.19Z"/><path class="cls-3" d="M685.56,515.42c0-7.67-5.24-11.88-12.6-11.88s-11.33,4.21-11.33,11.88,4,15.65,11.33,15.65S685.56,523.1,685.56,515.42Z"/><path class="cls-3" d="M697.54,552.56c0-7.74-5.78-15.15-13.2-15.15s-10.75,7.41-10.75,15.15,3.32,10.87,10.75,10.87S697.54,560.3,697.54,552.56Z"/><path class="cls-3" d="M629.53,577.21c0-7.74-5.77-15.15-13.2-15.15s-10.75,7.41-10.75,15.15,3.32,10.86,10.75,10.86S629.53,585,629.53,577.21Z"/><path class="cls-3" d="M744.57,574.58c0-5.93-2.61-11.38-8.31-11.38s-12.19,5.45-12.19,11.38,6.49,8.66,12.19,8.66S744.57,580.52,744.57,574.58Z"/><path class="cls-3" d="M701,579.41c0-5.93-2.61-11.38-8.31-11.38s-12.19,5.45-12.19,11.38,6.49,8.66,12.19,8.66S701,585.35,701,579.41Z"/><path class="cls-3" d="M736.75,541.18c0-5.94-2.61-11.38-8.31-11.38s-12.18,5.44-12.18,11.38,6.48,8.66,12.18,8.66S736.75,547.12,736.75,541.18Z"/><path class="cls-4" d="M810.8,816.25h-413A13.78,13.78,0,0,1,384,802.46V668.15h440.6V802.46A13.79,13.79,0,0,1,810.8,816.25Z"/><path class="cls-5" d="M808.66,767.66a1.67,1.67,0,1,1,1.67,1.71A1.7,1.7,0,0,1,808.66,767.66Z"/><path class="cls-5" d="M793.35,790.39a1.5,1.5,0,1,1,1.5,1.54A1.52,1.52,0,0,1,793.35,790.39Z"/><path class="cls-5" d="M791.59,767.66a3.26,3.26,0,1,1,3.26,3.34A3.31,3.31,0,0,1,791.59,767.66Z"/><ellipse class="cls-5" cx="775.22" cy="760.71" rx="2.86" ry="2.93"/><path class="cls-5" d="M767.69,797.17a1.36,1.36,0,1,1,1.35,1.39A1.37,1.37,0,0,1,767.69,797.17Z"/><path class="cls-5" d="M800.23,802.17a3.38,3.38,0,1,1,3.38,3.47A3.42,3.42,0,0,1,800.23,802.17Z"/><path class="cls-5" d="M434.32,767.66a1.67,1.67,0,1,1,1.67,1.71A1.7,1.7,0,0,1,434.32,767.66Z"/><path class="cls-5" d="M419,790.39a1.5,1.5,0,1,1,1.5,1.54A1.52,1.52,0,0,1,419,790.39Z"/><path class="cls-5" d="M417.26,767.66a3.26,3.26,0,1,1,3.26,3.34A3.31,3.31,0,0,1,417.26,767.66Z"/><path class="cls-5" d="M398,760.71a2.86,2.86,0,1,1,2.86,2.94A2.89,2.89,0,0,1,398,760.71Z"/><path class="cls-5" d="M393.35,797.17a1.36,1.36,0,1,1,1.35,1.39A1.38,1.38,0,0,1,393.35,797.17Z"/><path class="cls-5" d="M425.89,802.17a3.38,3.38,0,1,1,3.38,3.47A3.42,3.42,0,0,1,425.89,802.17Z"/><path class="cls-5" d="M457.86,762.39a1.72,1.72,0,1,1,1.67-1.72A1.7,1.7,0,0,1,457.86,762.39Z"/><path class="cls-5" d="M480,778.11a1.54,1.54,0,1,1,1.5-1.54A1.52,1.52,0,0,1,480,778.11Z"/><ellipse class="cls-5" cx="457.86" cy="776.57" rx="3.26" ry="3.35"/><ellipse class="cls-5" cx="451.1" cy="796.72" rx="2.86" ry="2.93"/><path class="cls-5" d="M486.6,804.46a1.39,1.39,0,1,1,1.35-1.39A1.37,1.37,0,0,1,486.6,804.46Z"/><path class="cls-5" d="M491.47,771a3.47,3.47,0,1,1,3.38-3.46A3.42,3.42,0,0,1,491.47,771Z"/><path class="cls-5" d="M541.79,767.66a1.68,1.68,0,1,1,1.67,1.71A1.7,1.7,0,0,1,541.79,767.66Z"/><path class="cls-5" d="M526.49,790.39a1.5,1.5,0,1,1,1.5,1.54A1.52,1.52,0,0,1,526.49,790.39Z"/><path class="cls-5" d="M524.73,767.66A3.26,3.26,0,1,1,528,771,3.31,3.31,0,0,1,524.73,767.66Z"/><ellipse class="cls-5" cx="508.36" cy="760.71" rx="2.86" ry="2.93"/><ellipse class="cls-5" cx="502.18" cy="797.17" rx="1.36" ry="1.39"/><path class="cls-5" d="M533.37,802.17a3.38,3.38,0,1,1,3.37,3.47A3.42,3.42,0,0,1,533.37,802.17Z"/><path class="cls-5" d="M590.79,767.66a1.68,1.68,0,1,1,1.68,1.71A1.7,1.7,0,0,1,590.79,767.66Z"/><path class="cls-5" d="M575.49,790.39a1.5,1.5,0,1,1,1.5,1.54A1.52,1.52,0,0,1,575.49,790.39Z"/><path class="cls-5" d="M573.73,767.66A3.26,3.26,0,1,1,577,771,3.31,3.31,0,0,1,573.73,767.66Z"/><path class="cls-5" d="M554.51,760.71a2.86,2.86,0,1,1,2.85,2.94A2.89,2.89,0,0,1,554.51,760.71Z"/><path class="cls-5" d="M549.82,797.17a1.36,1.36,0,1,1,1.36,1.39A1.38,1.38,0,0,1,549.82,797.17Z"/><path class="cls-5" d="M582.37,802.17a3.38,3.38,0,1,1,3.37,3.47A3.42,3.42,0,0,1,582.37,802.17Z"/><path class="cls-5" d="M614.34,762.39a1.72,1.72,0,1,1,1.67-1.72A1.7,1.7,0,0,1,614.34,762.39Z"/><path class="cls-5" d="M636.48,778.11a1.54,1.54,0,1,1,1.5-1.54A1.52,1.52,0,0,1,636.48,778.11Z"/><ellipse class="cls-5" cx="614.34" cy="776.57" rx="3.26" ry="3.35"/><ellipse class="cls-5" cx="607.57" cy="796.72" rx="2.86" ry="2.93"/><path class="cls-5" d="M643.07,804.46a1.39,1.39,0,1,1,1.36-1.39A1.37,1.37,0,0,1,643.07,804.46Z"/><path class="cls-5" d="M648,771a3.47,3.47,0,1,1,3.37-3.46A3.42,3.42,0,0,1,648,771Z"/><path class="cls-5" d="M698.27,767.66a1.67,1.67,0,1,1,1.67,1.71A1.69,1.69,0,0,1,698.27,767.66Z"/><path class="cls-5" d="M683,790.39a1.5,1.5,0,1,1,1.5,1.54A1.52,1.52,0,0,1,683,790.39Z"/><path class="cls-5" d="M681.2,767.66a3.26,3.26,0,1,1,3.26,3.34A3.31,3.31,0,0,1,681.2,767.66Z"/><ellipse class="cls-5" cx="664.83" cy="760.71" rx="2.86" ry="2.93"/><ellipse class="cls-5" cx="658.65" cy="797.17" rx="1.36" ry="1.39"/><path class="cls-5" d="M689.84,802.17a3.38,3.38,0,1,1,3.38,3.47A3.42,3.42,0,0,1,689.84,802.17Z"/><path class="cls-5" d="M715.51,795.76a1.68,1.68,0,1,1-1.68-1.71A1.7,1.7,0,0,1,715.51,795.76Z"/><path class="cls-5" d="M730.81,773a1.5,1.5,0,1,1-1.5-1.54A1.52,1.52,0,0,1,730.81,773Z"/><ellipse class="cls-5" cx="729.31" cy="795.76" rx="3.26" ry="3.35"/><path class="cls-5" d="M751.79,802.71a2.86,2.86,0,1,1-2.85-2.94A2.89,2.89,0,0,1,751.79,802.71Z"/><path class="cls-5" d="M756.48,766.25a1.36,1.36,0,1,1-1.36-1.39A1.38,1.38,0,0,1,756.48,766.25Z"/><path class="cls-5" d="M723.93,761.25a3.38,3.38,0,1,1-3.37-3.47A3.42,3.42,0,0,1,723.93,761.25Z"/><ellipse class="cls-5" cx="810.33" cy="709.48" rx="1.67" ry="1.72"/><path class="cls-5" d="M793.35,732.22a1.5,1.5,0,1,1,1.5,1.54A1.52,1.52,0,0,1,793.35,732.22Z"/><path class="cls-5" d="M791.59,709.48a3.26,3.26,0,1,1,3.26,3.35A3.3,3.3,0,0,1,791.59,709.48Z"/><ellipse class="cls-5" cx="775.22" cy="702.54" rx="2.86" ry="2.93"/><path class="cls-5" d="M767.69,739a1.36,1.36,0,1,1,2.71,0,1.36,1.36,0,1,1-2.71,0Z"/><path class="cls-5" d="M800.23,744a3.38,3.38,0,1,1,3.38,3.47A3.43,3.43,0,0,1,800.23,744Z"/><path class="cls-5" d="M434.32,709.48A1.67,1.67,0,1,1,436,711.2,1.7,1.7,0,0,1,434.32,709.48Z"/><path class="cls-5" d="M419,732.22a1.5,1.5,0,1,1,1.5,1.54A1.52,1.52,0,0,1,419,732.22Z"/><ellipse class="cls-5" cx="420.52" cy="709.48" rx="3.26" ry="3.35"/><path class="cls-5" d="M398,702.54a2.86,2.86,0,1,1,2.86,2.93A2.89,2.89,0,0,1,398,702.54Z"/><path class="cls-5" d="M393.35,739a1.36,1.36,0,1,1,1.35,1.4A1.37,1.37,0,0,1,393.35,739Z"/><path class="cls-5" d="M425.89,744a3.38,3.38,0,1,1,3.38,3.47A3.43,3.43,0,0,1,425.89,744Z"/><path class="cls-5" d="M457.86,704.22a1.72,1.72,0,1,1,1.67-1.72A1.7,1.7,0,0,1,457.86,704.22Z"/><path class="cls-5" d="M480,719.93a1.54,1.54,0,1,1,1.5-1.54A1.52,1.52,0,0,1,480,719.93Z"/><ellipse class="cls-5" cx="457.86" cy="718.39" rx="3.26" ry="3.35"/><ellipse class="cls-5" cx="451.1" cy="738.55" rx="2.86" ry="2.93"/><path class="cls-5" d="M486.6,746.29A1.39,1.39,0,1,1,488,744.9,1.37,1.37,0,0,1,486.6,746.29Z"/><path class="cls-5" d="M491.47,712.87a3.47,3.47,0,1,1,3.38-3.47A3.42,3.42,0,0,1,491.47,712.87Z"/><path class="cls-5" d="M541.79,709.48a1.68,1.68,0,1,1,1.67,1.72A1.7,1.7,0,0,1,541.79,709.48Z"/><path class="cls-5" d="M526.49,732.22a1.5,1.5,0,1,1,1.5,1.54A1.52,1.52,0,0,1,526.49,732.22Z"/><path class="cls-5" d="M524.73,709.48a3.26,3.26,0,1,1,3.26,3.35A3.3,3.3,0,0,1,524.73,709.48Z"/><ellipse class="cls-5" cx="508.36" cy="702.54" rx="2.86" ry="2.93"/><path class="cls-5" d="M500.82,739a1.36,1.36,0,1,1,1.36,1.4A1.37,1.37,0,0,1,500.82,739Z"/><path class="cls-5" d="M533.37,744a3.38,3.38,0,1,1,3.37,3.47A3.43,3.43,0,0,1,533.37,744Z"/><path class="cls-5" d="M590.79,709.48a1.68,1.68,0,1,1,1.68,1.72A1.7,1.7,0,0,1,590.79,709.48Z"/><path class="cls-5" d="M575.49,732.22a1.5,1.5,0,1,1,1.5,1.54A1.52,1.52,0,0,1,575.49,732.22Z"/><ellipse class="cls-5" cx="576.99" cy="709.48" rx="3.26" ry="3.35"/><path class="cls-5" d="M554.51,702.54a2.86,2.86,0,1,1,2.85,2.93A2.89,2.89,0,0,1,554.51,702.54Z"/><path class="cls-5" d="M549.82,739a1.36,1.36,0,1,1,1.36,1.4A1.37,1.37,0,0,1,549.82,739Z"/><path class="cls-5" d="M582.37,744a3.38,3.38,0,1,1,3.37,3.47A3.43,3.43,0,0,1,582.37,744Z"/><path class="cls-5" d="M614.34,704.22A1.72,1.72,0,1,1,616,702.5,1.7,1.7,0,0,1,614.34,704.22Z"/><path class="cls-5" d="M636.48,719.93a1.54,1.54,0,1,1,1.5-1.54A1.52,1.52,0,0,1,636.48,719.93Z"/><ellipse class="cls-5" cx="614.34" cy="718.39" rx="3.26" ry="3.35"/><ellipse class="cls-5" cx="607.57" cy="738.55" rx="2.86" ry="2.93"/><path class="cls-5" d="M643.07,746.29a1.39,1.39,0,1,1,1.36-1.39A1.37,1.37,0,0,1,643.07,746.29Z"/><path class="cls-5" d="M648,712.87a3.47,3.47,0,1,1,3.37-3.47A3.42,3.42,0,0,1,648,712.87Z"/><path class="cls-5" d="M698.27,709.48a1.67,1.67,0,1,1,1.67,1.72A1.69,1.69,0,0,1,698.27,709.48Z"/><path class="cls-5" d="M683,732.22a1.5,1.5,0,1,1,1.5,1.54A1.52,1.52,0,0,1,683,732.22Z"/><ellipse class="cls-5" cx="684.46" cy="709.48" rx="3.26" ry="3.35"/><ellipse class="cls-5" cx="664.83" cy="702.54" rx="2.86" ry="2.93"/><path class="cls-5" d="M657.3,739a1.36,1.36,0,1,1,2.71,0,1.36,1.36,0,1,1-2.71,0Z"/><path class="cls-5" d="M689.84,744a3.38,3.38,0,1,1,3.38,3.47A3.43,3.43,0,0,1,689.84,744Z"/><path class="cls-5" d="M715.51,737.59a1.68,1.68,0,1,1-1.68-1.72A1.7,1.7,0,0,1,715.51,737.59Z"/><path class="cls-5" d="M730.81,714.85a1.5,1.5,0,1,1-1.5-1.54A1.52,1.52,0,0,1,730.81,714.85Z"/><ellipse class="cls-5" cx="729.31" cy="737.59" rx="3.26" ry="3.35"/><path class="cls-5" d="M751.79,744.53a2.86,2.86,0,1,1-2.85-2.93A2.89,2.89,0,0,1,751.79,744.53Z"/><path class="cls-5" d="M756.48,708.08a1.36,1.36,0,1,1-1.36-1.39A1.37,1.37,0,0,1,756.48,708.08Z"/><path class="cls-5" d="M723.93,703.07a3.38,3.38,0,1,1-3.37-3.46A3.42,3.42,0,0,1,723.93,703.07Z"/><ellipse class="cls-5" cx="816.26" cy="680.57" rx="1.67" ry="1.72"/><path class="cls-5" d="M793.35,687.92a1.5,1.5,0,1,1,1.5,1.54A1.52,1.52,0,0,1,793.35,687.92Z"/><path class="cls-5" d="M797.52,680.57a3.26,3.26,0,1,1,3.26,3.35A3.31,3.31,0,0,1,797.52,680.57Z"/><ellipse class="cls-5" cx="781.15" cy="673.62" rx="2.86" ry="2.93"/><path class="cls-5" d="M767.69,694.7a1.36,1.36,0,1,1,1.35,1.39A1.37,1.37,0,0,1,767.69,694.7Z"/><path class="cls-5" d="M800.23,699.7a3.38,3.38,0,1,1,3.38,3.47A3.42,3.42,0,0,1,800.23,699.7Z"/><path class="cls-5" d="M433.86,680.51a1.67,1.67,0,1,1,1.67,1.72A1.7,1.7,0,0,1,433.86,680.51Z"/><path class="cls-5" d="M419,687.22a1.5,1.5,0,1,1,1.5,1.54A1.52,1.52,0,0,1,419,687.22Z"/><path class="cls-5" d="M416.8,680.51a3.26,3.26,0,1,1,3.26,3.35A3.31,3.31,0,0,1,416.8,680.51Z"/><ellipse class="cls-5" cx="400.43" cy="673.57" rx="2.86" ry="2.93"/><path class="cls-5" d="M393.35,694a1.36,1.36,0,1,1,1.35,1.39A1.38,1.38,0,0,1,393.35,694Z"/><path class="cls-5" d="M425.89,699a3.38,3.38,0,1,1,3.38,3.47A3.42,3.42,0,0,1,425.89,699Z"/><path class="cls-5" d="M460.6,674.16a1.74,1.74,0,0,1-1-2.23,1.66,1.66,0,0,1,2.16-1,1.75,1.75,0,0,1,1,2.23A1.67,1.67,0,0,1,460.6,674.16Z"/><path class="cls-5" d="M491.67,686.55a1.54,1.54,0,1,1,1.5-1.54A1.52,1.52,0,0,1,491.67,686.55Z"/><path class="cls-5" d="M469.53,688.36a3.35,3.35,0,1,1,3.26-3.35A3.31,3.31,0,0,1,469.53,688.36Z"/><ellipse class="cls-5" cx="451.1" cy="692.33" rx="2.86" ry="2.93"/><path class="cls-5" d="M486.6,700.07a1.39,1.39,0,1,1,1.35-1.39A1.37,1.37,0,0,1,486.6,700.07Z"/><path class="cls-5" d="M503.14,679.49a3.47,3.47,0,1,1,3.38-3.47A3.42,3.42,0,0,1,503.14,679.49Z"/><path class="cls-5" d="M526.49,682.06a1.5,1.5,0,1,1,1.5,1.54A1.52,1.52,0,0,1,526.49,682.06Z"/><ellipse class="cls-5" cx="502.18" cy="688.83" rx="1.36" ry="1.39"/><path class="cls-5" d="M533.37,693.84a3.38,3.38,0,1,1,3.37,3.46A3.42,3.42,0,0,1,533.37,693.84Z"/><path class="cls-5" d="M565.17,680.52a1.68,1.68,0,1,1,1.68,1.72A1.7,1.7,0,0,1,565.17,680.52Z"/><path class="cls-5" d="M575.49,685.68a1.5,1.5,0,1,1,1.5,1.54A1.52,1.52,0,0,1,575.49,685.68Z"/><ellipse class="cls-5" cx="551.37" cy="680.52" rx="3.26" ry="3.35"/><path class="cls-5" d="M528.89,673.57a2.86,2.86,0,1,1,2.85,2.94A2.89,2.89,0,0,1,528.89,673.57Z"/><path class="cls-5" d="M549.82,692.46a1.36,1.36,0,1,1,1.36,1.39A1.37,1.37,0,0,1,549.82,692.46Z"/><path class="cls-5" d="M582.37,697.46a3.38,3.38,0,1,1,3.37,3.47A3.42,3.42,0,0,1,582.37,697.46Z"/><path class="cls-5" d="M595.38,676.56a1.72,1.72,0,1,1,1.67-1.72A1.7,1.7,0,0,1,595.38,676.56Z"/><path class="cls-5" d="M645.43,683.66a1.55,1.55,0,1,1,1.5-1.55A1.53,1.53,0,0,1,645.43,683.66Z"/><path class="cls-5" d="M623.29,685.46a3.35,3.35,0,1,1,3.26-3.35A3.31,3.31,0,0,1,623.29,685.46Z"/><ellipse class="cls-5" cx="607.57" cy="691.79" rx="2.86" ry="2.93"/><path class="cls-5" d="M643.07,699.53a1.39,1.39,0,1,1,1.36-1.39A1.37,1.37,0,0,1,643.07,699.53Z"/><path class="cls-5" d="M656.91,676.59a3.47,3.47,0,1,1,3.37-3.46A3.42,3.42,0,0,1,656.91,676.59Z"/><path class="cls-5" d="M718.55,673.54a1.67,1.67,0,1,1,1.67,1.72A1.7,1.7,0,0,1,718.55,673.54Z"/><path class="cls-5" d="M683,682.06a1.5,1.5,0,1,1,1.5,1.54A1.52,1.52,0,0,1,683,682.06Z"/><path class="cls-5" d="M693.33,673.26a3.26,3.26,0,1,1,3.26,3.35A3.3,3.3,0,0,1,693.33,673.26Z"/><path class="cls-5" d="M670.9,675.12a2.86,2.86,0,1,1,2.86,2.94A2.89,2.89,0,0,1,670.9,675.12Z"/><ellipse class="cls-5" cx="658.65" cy="688.83" rx="1.36" ry="1.39"/><path class="cls-5" d="M689.84,693.84a3.38,3.38,0,1,1,3.38,3.46A3.42,3.42,0,0,1,689.84,693.84Z"/><path class="cls-5" d="M715.51,691.83a1.68,1.68,0,1,1-1.68-1.72A1.7,1.7,0,0,1,715.51,691.83Z"/><path class="cls-5" d="M742.29,684.44a1.5,1.5,0,1,1-1.5-1.54A1.52,1.52,0,0,1,742.29,684.44Z"/><path class="cls-5" d="M732.57,691.83a3.26,3.26,0,1,1-3.26-3.35A3.31,3.31,0,0,1,732.57,691.83Z"/><path class="cls-5" d="M751.79,698.78a2.86,2.86,0,1,1-2.85-2.94A2.89,2.89,0,0,1,751.79,698.78Z"/><path class="cls-5" d="M768,677.67a1.36,1.36,0,1,1-1.36-1.39A1.37,1.37,0,0,1,768,677.67Z"/><path class="cls-5" d="M735.41,672.66A3.38,3.38,0,1,1,732,669.2,3.42,3.42,0,0,1,735.41,672.66Z"/><path class="cls-6" d="M273.8,434.45H822.25a2.33,2.33,0,0,1,2.33,2.33v10a0,0,0,0,1,0,0H271.46a0,0,0,0,1,0,0v-10A2.33,2.33,0,0,1,273.8,434.45Z"/><path class="cls-7" d="M271.46,446.82V475.7c0,1.61.76,2.92,1.7,2.92H824.59v-31.8Z"/><g class="cls-8"><path class="cls-9" d="M453.78,469.26a11.09,11.09,0,0,1-3.43.31c-.57-.06-1.15-.19-1.72-.22a8.93,8.93,0,0,0-1.71.1,24.79,24.79,0,0,1-3.43.22,16.65,16.65,0,0,1-3.43-.41v-.09a17.39,17.39,0,0,1,3.43-.42,24.81,24.81,0,0,1,3.43.23,8.92,8.92,0,0,0,1.71.09c.57,0,1.15-.15,1.72-.22a11.1,11.1,0,0,1,3.43.32Z"/></g><g class="cls-8"><path class="cls-9" d="M443.41,475.64A11.12,11.12,0,0,1,440,476c-.58-.06-1.15-.18-1.72-.22a8.93,8.93,0,0,0-1.71.1,23.38,23.38,0,0,1-3.44.22,16.82,16.82,0,0,1-3.43-.41v-.09a17.57,17.57,0,0,1,3.43-.42,24.85,24.85,0,0,1,3.44.23,8.92,8.92,0,0,0,1.71.09c.57,0,1.14-.15,1.72-.21a10.82,10.82,0,0,1,3.43.31Z"/></g><g class="cls-8"><path class="cls-9" d="M390.66,460.48a11.07,11.07,0,0,1,3.43-.31c.57.06,1.14.19,1.71.22a9,9,0,0,0,1.72-.1,24.59,24.59,0,0,1,3.43-.22,17.46,17.46,0,0,1,3.43.41v.09A17.48,17.48,0,0,1,401,461a23.16,23.16,0,0,1-3.43-.23,9,9,0,0,0-1.72-.09c-.57,0-1.14.15-1.71.22a11.07,11.07,0,0,1-3.43-.32Z"/></g><g class="cls-8"><path class="cls-9" d="M447.74,454.12a11.09,11.09,0,0,1-3.43.31c-.57-.06-1.14-.18-1.72-.21a8.92,8.92,0,0,0-1.71.09,23.24,23.24,0,0,1-3.43.22,16.65,16.65,0,0,1-3.43-.41V454a16.65,16.65,0,0,1,3.43-.41,23.24,23.24,0,0,1,3.43.22,9.82,9.82,0,0,0,1.71.1c.58,0,1.15-.16,1.72-.22a11.09,11.09,0,0,1,3.43.31Z"/></g><g class="cls-8"><path class="cls-9" d="M413.69,471.74a10.81,10.81,0,0,1,3.43-.32c.57.06,1.14.19,1.71.22a9,9,0,0,0,1.72-.1,24.69,24.69,0,0,1,3.43-.22,16.75,16.75,0,0,1,3.43.42v.08a17.48,17.48,0,0,1-3.43.42,23.26,23.26,0,0,1-3.43-.23,9,9,0,0,0-1.72-.09c-.57,0-1.14.15-1.71.22a11.1,11.1,0,0,1-3.43-.32Z"/></g><g class="cls-8"><path class="cls-9" d="M399.48,451.59a5.28,5.28,0,0,1,2.34-.32c.39.06.77.2,1.16.22a4.21,4.21,0,0,0,1.17-.09,10.83,10.83,0,0,1,2.33-.23,8,8,0,0,1,2.34.42v.09a8.35,8.35,0,0,1-2.34.41,10.82,10.82,0,0,1-2.33-.22,4.21,4.21,0,0,0-1.17-.1c-.39,0-.77.17-1.16.22a5.27,5.27,0,0,1-2.34-.31Z"/></g><g class="cls-8"><path class="cls-9" d="M455.5,463.24a1.33,1.33,0,0,1-1.1.32,2.87,2.87,0,0,0-.55-.22,1,1,0,0,0-.55.09,2.52,2.52,0,0,1-1.09.23,2.07,2.07,0,0,1-1.1-.42v-.08a2.07,2.07,0,0,1,1.1-.42,2.5,2.5,0,0,1,1.09.22,1,1,0,0,0,.55.1,5.25,5.25,0,0,0,.55-.22,1.29,1.29,0,0,1,1.1.32Z"/></g><g class="cls-8"><path class="cls-9" d="M386.06,475.28a1.29,1.29,0,0,1,1.1-.32c.18.05.37.19.55.22a1,1,0,0,0,.55-.1,2.52,2.52,0,0,1,1.1-.22,2.07,2.07,0,0,1,1.09.42v.08a2.07,2.07,0,0,1-1.09.42,2.53,2.53,0,0,1-1.1-.23,1.07,1.07,0,0,0-.55-.09,4.2,4.2,0,0,0-.55.22,1.33,1.33,0,0,1-1.1-.32Z"/></g><g class="cls-8"><path class="cls-9" d="M401.13,467.06a1.32,1.32,0,0,1,1.1-.31,5.25,5.25,0,0,0,.55.22,1.1,1.1,0,0,0,.55-.1,2.5,2.5,0,0,1,1.09-.22,2.13,2.13,0,0,1,1.1.41v.09a2,2,0,0,1-1.1.41,2.5,2.5,0,0,1-1.09-.22,1,1,0,0,0-.55-.09,3.66,3.66,0,0,0-.55.21,1.28,1.28,0,0,1-1.1-.31Z"/></g><g class="cls-8"><path class="cls-9" d="M434.82,459.5a1.28,1.28,0,0,1-1.1.31,4.13,4.13,0,0,0-.55-.21,1,1,0,0,0-.55.09,2.67,2.67,0,0,1-1.09.23,2.07,2.07,0,0,1-1.1-.42v-.09a2.13,2.13,0,0,1,1.1-.41,2.5,2.5,0,0,1,1.09.22,1,1,0,0,0,.55.1c.18,0,.37-.17.55-.22a1.32,1.32,0,0,1,1.1.31Z"/></g><g class="cls-8"><path class="cls-9" d="M411.87,455.59a1.33,1.33,0,0,1,1.1-.32,2.87,2.87,0,0,0,.55.22,1.08,1.08,0,0,0,.55-.09,2.52,2.52,0,0,1,1.09-.23,2.07,2.07,0,0,1,1.1.42v.08a2.07,2.07,0,0,1-1.1.42,2.5,2.5,0,0,1-1.09-.22,1,1,0,0,0-.55-.1,5.25,5.25,0,0,0-.55.22,1.29,1.29,0,0,1-1.1-.32Z"/></g><g class="cls-8"><path class="cls-9" d="M427.35,448.74a1.31,1.31,0,0,1-1.1.31,5.25,5.25,0,0,0-.55-.22,1,1,0,0,0-.54.1,2.58,2.58,0,0,1-1.1.22,2.17,2.17,0,0,1-1.1-.41v-.09a2.08,2.08,0,0,1,1.1-.41,2.58,2.58,0,0,1,1.1.22,1,1,0,0,0,.54.1,5.25,5.25,0,0,0,.55-.22,1.31,1.31,0,0,1,1.1.31Z"/></g><g class="cls-8"><path class="cls-9" d="M386.54,469.26a11.12,11.12,0,0,1-3.43.31c-.58-.06-1.15-.19-1.72-.22a8.93,8.93,0,0,0-1.71.1,24.83,24.83,0,0,1-3.44.22,16.82,16.82,0,0,1-3.43-.41v-.09a17.57,17.57,0,0,1,3.43-.42,24.85,24.85,0,0,1,3.44.23,8.92,8.92,0,0,0,1.71.09c.57,0,1.14-.15,1.72-.22a11.13,11.13,0,0,1,3.43.32Z"/></g><g class="cls-8"><path class="cls-9" d="M376.17,475.64a11.16,11.16,0,0,1-3.44.31c-.57-.06-1.14-.18-1.71-.22a9.08,9.08,0,0,0-1.72.1,23.16,23.16,0,0,1-3.43.22,16.82,16.82,0,0,1-3.43-.41v-.09a17.57,17.57,0,0,1,3.43-.42,24.6,24.6,0,0,1,3.43.23,9.06,9.06,0,0,0,1.72.09c.57,0,1.14-.15,1.71-.21a10.86,10.86,0,0,1,3.44.31Z"/></g><g class="cls-8"><path class="cls-9" d="M323.41,460.48a11.12,11.12,0,0,1,3.43-.31c.58.06,1.15.19,1.72.22a9.08,9.08,0,0,0,1.72-.1,24.59,24.59,0,0,1,3.43-.22,17.55,17.55,0,0,1,3.43.41v.09a17.57,17.57,0,0,1-3.43.42,23.16,23.16,0,0,1-3.43-.23,9.06,9.06,0,0,0-1.72-.09c-.57,0-1.14.15-1.72.22a11.13,11.13,0,0,1-3.43-.32Z"/></g><g class="cls-8"><path class="cls-9" d="M380.5,454.12a11.09,11.09,0,0,1-3.43.31c-.57-.06-1.15-.18-1.72-.21a8.92,8.92,0,0,0-1.71.09,23.33,23.33,0,0,1-3.43.22,16.65,16.65,0,0,1-3.43-.41V454a16.65,16.65,0,0,1,3.43-.41,23.33,23.33,0,0,1,3.43.22,9.82,9.82,0,0,0,1.71.1c.57,0,1.15-.16,1.72-.22a11.09,11.09,0,0,1,3.43.31Z"/></g><g class="cls-8"><path class="cls-9" d="M346.45,471.74a10.78,10.78,0,0,1,3.43-.32c.57.06,1.14.19,1.71.22a9,9,0,0,0,1.72-.1,24.69,24.69,0,0,1,3.43-.22,16.75,16.75,0,0,1,3.43.42v.08a17.48,17.48,0,0,1-3.43.42,23.26,23.26,0,0,1-3.43-.23,9,9,0,0,0-1.72-.09c-.57,0-1.14.15-1.71.22a11.07,11.07,0,0,1-3.43-.32Z"/></g><g class="cls-8"><path class="cls-9" d="M332.24,451.59a5.25,5.25,0,0,1,2.33-.32c.39.06.78.2,1.17.22a4.21,4.21,0,0,0,1.17-.09,10.83,10.83,0,0,1,2.33-.23,7.9,7.9,0,0,1,2.33.42v.09a8.22,8.22,0,0,1-2.33.41,10.82,10.82,0,0,1-2.33-.22,4.21,4.21,0,0,0-1.17-.1c-.39,0-.78.17-1.17.22a5.24,5.24,0,0,1-2.33-.31Z"/></g><g class="cls-8"><path class="cls-9" d="M388.26,463.24a1.33,1.33,0,0,1-1.1.32,3.16,3.16,0,0,0-.55-.22,1,1,0,0,0-.55.09,2.53,2.53,0,0,1-1.1.23,2.07,2.07,0,0,1-1.09-.42v-.08a2.07,2.07,0,0,1,1.09-.42,2.52,2.52,0,0,1,1.1.22,1,1,0,0,0,.55.1c.18,0,.37-.17.55-.22a1.29,1.29,0,0,1,1.1.32Z"/></g><g class="cls-8"><path class="cls-9" d="M318.82,475.28a1.29,1.29,0,0,1,1.1-.32,5.25,5.25,0,0,0,.55.22,1,1,0,0,0,.55-.1,2.5,2.5,0,0,1,1.09-.22,2.07,2.07,0,0,1,1.1.42v.08a2.07,2.07,0,0,1-1.1.42,2.52,2.52,0,0,1-1.09-.23,1.08,1.08,0,0,0-.55-.09,3.71,3.71,0,0,0-.55.22,1.33,1.33,0,0,1-1.1-.32Z"/></g><g class="cls-8"><path class="cls-9" d="M333.89,467.06a1.31,1.31,0,0,1,1.1-.31,5.25,5.25,0,0,0,.55.22,1,1,0,0,0,.54-.1,2.58,2.58,0,0,1,1.1-.22,2.17,2.17,0,0,1,1.1.41v.09a2,2,0,0,1-1.1.41,2.58,2.58,0,0,1-1.1-.22.94.94,0,0,0-.54-.09,3.66,3.66,0,0,0-.55.21,1.28,1.28,0,0,1-1.1-.31Z"/></g><g class="cls-8"><path class="cls-9" d="M367.58,459.5a1.29,1.29,0,0,1-1.1.31,4.13,4.13,0,0,0-.55-.21,1,1,0,0,0-.55.09,2.72,2.72,0,0,1-1.1.23,2.07,2.07,0,0,1-1.09-.42v-.09a2.13,2.13,0,0,1,1.09-.41,2.55,2.55,0,0,1,1.1.22,1,1,0,0,0,.55.1c.18,0,.37-.17.55-.22a1.33,1.33,0,0,1,1.1.31Z"/></g><g class="cls-8"><path class="cls-9" d="M344.63,455.59a1.32,1.32,0,0,1,1.1-.32,3.07,3.07,0,0,0,.54.22,1.05,1.05,0,0,0,.55-.09,2.59,2.59,0,0,1,1.1-.23,2.1,2.1,0,0,1,1.1.42v.08a2.1,2.1,0,0,1-1.1.42,2.58,2.58,0,0,1-1.1-.22,1,1,0,0,0-.55-.1c-.18,0-.36.17-.54.22a1.28,1.28,0,0,1-1.1-.32Z"/></g><g class="cls-8"><path class="cls-9" d="M360.11,448.74a1.32,1.32,0,0,1-1.1.31,5.25,5.25,0,0,0-.55-.22,1.1,1.1,0,0,0-.55.1,2.5,2.5,0,0,1-1.09.22,2.13,2.13,0,0,1-1.1-.41v-.09a2,2,0,0,1,1.1-.41,2.5,2.5,0,0,1,1.09.22,1.1,1.1,0,0,0,.55.1,5.25,5.25,0,0,0,.55-.22,1.32,1.32,0,0,1,1.1.31Z"/></g><g class="cls-8"><path class="cls-9" d="M319.3,469.26a11.16,11.16,0,0,1-3.44.31c-.57-.06-1.14-.19-1.71-.22a9.08,9.08,0,0,0-1.72.1,24.59,24.59,0,0,1-3.43.22,16.82,16.82,0,0,1-3.43-.41v-.09a17.57,17.57,0,0,1,3.43-.42,24.6,24.6,0,0,1,3.43.23,9.06,9.06,0,0,0,1.72.09c.57,0,1.14-.15,1.71-.22a11.17,11.17,0,0,1,3.44.32Z"/></g><g class="cls-8"><path class="cls-9" d="M308.92,475.64a11.07,11.07,0,0,1-3.43.31c-.57-.06-1.14-.18-1.71-.22a9,9,0,0,0-1.72.1,23.24,23.24,0,0,1-3.43.22,16.74,16.74,0,0,1-3.43-.41v-.09a17.48,17.48,0,0,1,3.43-.42,24.71,24.71,0,0,1,3.43.23,9,9,0,0,0,1.72.09c.57,0,1.14-.15,1.71-.21a10.77,10.77,0,0,1,3.43.31Z"/></g><g class="cls-8"><path class="cls-9" d="M313.26,454.12a11.12,11.12,0,0,1-3.43.31c-.58-.06-1.15-.18-1.72-.21a9.06,9.06,0,0,0-1.72.09,23.16,23.16,0,0,1-3.43.22,16.82,16.82,0,0,1-3.43-.41V454a16.82,16.82,0,0,1,3.43-.41,23.16,23.16,0,0,1,3.43.22,10,10,0,0,0,1.72.1c.57,0,1.14-.16,1.72-.22a11.12,11.12,0,0,1,3.43.31Z"/></g><g class="cls-8"><path class="cls-9" d="M279.2,471.74a10.83,10.83,0,0,1,3.43-.32c.58.06,1.15.19,1.72.22a9.08,9.08,0,0,0,1.72-.1,24.59,24.59,0,0,1,3.43-.22,16.84,16.84,0,0,1,3.43.42v.08a17.57,17.57,0,0,1-3.43.42,23.16,23.16,0,0,1-3.43-.23,9.06,9.06,0,0,0-1.72-.09c-.57,0-1.14.15-1.72.22a11.13,11.13,0,0,1-3.43-.32Z"/></g><g class="cls-8"><path class="cls-9" d="M321,463.24a1.33,1.33,0,0,1-1.1.32,3.16,3.16,0,0,0-.55-.22,1,1,0,0,0-.55.09,2.56,2.56,0,0,1-1.1.23,2.13,2.13,0,0,1-1.1-.42v-.08a2.13,2.13,0,0,1,1.1-.42,2.55,2.55,0,0,1,1.1.22,1,1,0,0,0,.55.1c.18,0,.37-.17.55-.22a1.3,1.3,0,0,1,1.1.32Z"/></g><g class="cls-8"><path class="cls-9" d="M275.8,476a1.33,1.33,0,0,1,1.1-.32,3.16,3.16,0,0,0,.55.22,1,1,0,0,0,.55-.09,2.72,2.72,0,0,1,1.1-.23,2.13,2.13,0,0,1,1.1.42v.09a2.2,2.2,0,0,1-1.1.41,2.55,2.55,0,0,1-1.1-.22,1,1,0,0,0-.55-.1c-.18,0-.37.17-.55.22a1.33,1.33,0,0,1-1.1-.31Z"/></g><g class="cls-8"><path class="cls-9" d="M272.6,451.59a1.33,1.33,0,0,1,1.1-.32,2.87,2.87,0,0,0,.55.22,1,1,0,0,0,.55-.09,2.52,2.52,0,0,1,1.09-.23,2.07,2.07,0,0,1,1.1.42v.09a2.13,2.13,0,0,1-1.1.41,2.5,2.5,0,0,1-1.09-.22,1,1,0,0,0-.55-.1,5.25,5.25,0,0,0-.55.22,1.32,1.32,0,0,1-1.1-.31Z"/></g><g class="cls-8"><path class="cls-9" d="M272.6,466.14a1.32,1.32,0,0,1,1.1-.31,5.25,5.25,0,0,0,.55.22,1,1,0,0,0,.55-.1,2.5,2.5,0,0,1,1.09-.22,2.13,2.13,0,0,1,1.1.41v.09a2.07,2.07,0,0,1-1.1.42,2.67,2.67,0,0,1-1.09-.23,1,1,0,0,0-.55-.09,2.87,2.87,0,0,0-.55.22,1.33,1.33,0,0,1-1.1-.32Z"/></g><g class="cls-8"><path class="cls-9" d="M300.33,459.5a1.26,1.26,0,0,1-1.09.31,4.72,4.72,0,0,0-.55-.21,1,1,0,0,0-.55.09,2.72,2.72,0,0,1-1.1.23,2.13,2.13,0,0,1-1.1-.42v-.09A2.2,2.2,0,0,1,297,459a2.55,2.55,0,0,1,1.1.22,1,1,0,0,0,.55.1c.18,0,.36-.17.55-.22a1.3,1.3,0,0,1,1.09.31Z"/></g><g class="cls-8"><path class="cls-9" d="M277.39,455.59a1.31,1.31,0,0,1,1.09-.32,3.5,3.5,0,0,0,.55.22,1.05,1.05,0,0,0,.55-.09,2.56,2.56,0,0,1,1.1-.23,2.1,2.1,0,0,1,1.1.42v.08a2.1,2.1,0,0,1-1.1.42,2.55,2.55,0,0,1-1.1-.22,1,1,0,0,0-.55-.1c-.18,0-.36.17-.55.22a1.27,1.27,0,0,1-1.09-.32Z"/></g><g class="cls-8"><path class="cls-9" d="M292.87,448.74a1.32,1.32,0,0,1-1.1.31c-.18-.05-.37-.19-.55-.22a1.08,1.08,0,0,0-.55.1,2.52,2.52,0,0,1-1.1.22,2.13,2.13,0,0,1-1.09-.41v-.09a2,2,0,0,1,1.09-.41,2.52,2.52,0,0,1,1.1.22,1.08,1.08,0,0,0,.55.1c.18,0,.37-.17.55-.22a1.32,1.32,0,0,1,1.1.31Z"/></g><g class="cls-8"><path class="cls-9" d="M527,469.26a11.09,11.09,0,0,1-3.43.31c-.57-.06-1.14-.19-1.71-.22a9,9,0,0,0-1.72.1,24.69,24.69,0,0,1-3.43.22,16.74,16.74,0,0,1-3.43-.41v-.09a17.48,17.48,0,0,1,3.43-.42,24.71,24.71,0,0,1,3.43.23,9,9,0,0,0,1.72.09c.57,0,1.14-.15,1.71-.22a11.1,11.1,0,0,1,3.43.32Z"/></g><g class="cls-8"><path class="cls-9" d="M516.61,475.64a11.09,11.09,0,0,1-3.43.31c-.57-.06-1.14-.18-1.72-.22a8.93,8.93,0,0,0-1.71.1,23.33,23.33,0,0,1-3.43.22,16.65,16.65,0,0,1-3.43-.41v-.09a17.39,17.39,0,0,1,3.43-.42,24.81,24.81,0,0,1,3.43.23,8.92,8.92,0,0,0,1.71.09c.58,0,1.15-.15,1.72-.21a10.8,10.8,0,0,1,3.43.31Z"/></g><g class="cls-8"><path class="cls-9" d="M463.86,460.48a11.07,11.07,0,0,1,3.43-.31c.57.06,1.14.19,1.71.22a9,9,0,0,0,1.72-.1,24.69,24.69,0,0,1,3.43-.22,17.46,17.46,0,0,1,3.43.41v.09a17.48,17.48,0,0,1-3.43.42,23.26,23.26,0,0,1-3.43-.23,9,9,0,0,0-1.72-.09c-.57,0-1.14.15-1.71.22a11.07,11.07,0,0,1-3.43-.32Z"/></g><g class="cls-8"><path class="cls-9" d="M520.94,454.12a11.07,11.07,0,0,1-3.43.31c-.57-.06-1.14-.18-1.71-.21a9,9,0,0,0-1.72.09,23.24,23.24,0,0,1-3.43.22,16.74,16.74,0,0,1-3.43-.41V454a16.74,16.74,0,0,1,3.43-.41,23.24,23.24,0,0,1,3.43.22,9.93,9.93,0,0,0,1.72.1c.57,0,1.14-.16,1.71-.22a11.07,11.07,0,0,1,3.43.31Z"/></g><g class="cls-8"><path class="cls-9" d="M486.89,471.74a10.81,10.81,0,0,1,3.43-.32c.57.06,1.15.19,1.72.22a8.93,8.93,0,0,0,1.71-.1,24.79,24.79,0,0,1,3.43-.22,16.67,16.67,0,0,1,3.43.42v.08a17.39,17.39,0,0,1-3.43.42,23.35,23.35,0,0,1-3.43-.23,8.92,8.92,0,0,0-1.71-.09c-.57,0-1.15.15-1.72.22a11.1,11.1,0,0,1-3.43-.32Z"/></g><g class="cls-8"><path class="cls-9" d="M472.69,451.59a5.22,5.22,0,0,1,2.33-.32c.39.06.78.2,1.17.22a4.16,4.16,0,0,0,1.16-.09,10.89,10.89,0,0,1,2.33-.23,8,8,0,0,1,2.34.42v.09a8.35,8.35,0,0,1-2.34.41,10.88,10.88,0,0,1-2.33-.22,4.18,4.18,0,0,0-1.16-.1c-.39,0-.78.17-1.17.22a5.21,5.21,0,0,1-2.33-.31Z"/></g><g class="cls-8"><path class="cls-9" d="M528.7,463.24a1.31,1.31,0,0,1-1.09.32,3.5,3.5,0,0,0-.55-.22,1,1,0,0,0-.55.09,2.56,2.56,0,0,1-1.1.23,2.1,2.1,0,0,1-1.1-.42v-.08a2.1,2.1,0,0,1,1.1-.42,2.55,2.55,0,0,1,1.1.22,1,1,0,0,0,.55.1c.18,0,.36-.17.55-.22a1.27,1.27,0,0,1,1.09.32Z"/></g><g class="cls-8"><path class="cls-9" d="M459.27,475.28a1.27,1.27,0,0,1,1.09-.32c.19.05.37.19.55.22a1,1,0,0,0,.55-.1,2.55,2.55,0,0,1,1.1-.22,2.1,2.1,0,0,1,1.1.42v.08a2.1,2.1,0,0,1-1.1.42,2.56,2.56,0,0,1-1.1-.23,1.05,1.05,0,0,0-.55-.09,4.85,4.85,0,0,0-.55.22,1.31,1.31,0,0,1-1.09-.32Z"/></g><g class="cls-8"><path class="cls-9" d="M474.33,467.06a1.32,1.32,0,0,1,1.1-.31c.18.05.37.19.55.22a1.08,1.08,0,0,0,.55-.1,2.52,2.52,0,0,1,1.1-.22,2.13,2.13,0,0,1,1.09.41v.09a2,2,0,0,1-1.09.41,2.52,2.52,0,0,1-1.1-.22,1,1,0,0,0-.55-.09,4.13,4.13,0,0,0-.55.21,1.28,1.28,0,0,1-1.1-.31Z"/></g><g class="cls-8"><path class="cls-9" d="M508,459.5a1.28,1.28,0,0,1-1.1.31,3.66,3.66,0,0,0-.55-.21.94.94,0,0,0-.54.09,2.75,2.75,0,0,1-1.1.23,2.1,2.1,0,0,1-1.1-.42v-.09a2.17,2.17,0,0,1,1.1-.41,2.58,2.58,0,0,1,1.1.22,1,1,0,0,0,.54.1,5.25,5.25,0,0,0,.55-.22,1.31,1.31,0,0,1,1.1.31Z"/></g><g class="cls-8"><path class="cls-9" d="M485.07,455.59a1.33,1.33,0,0,1,1.1-.32,3.16,3.16,0,0,0,.55.22,1.08,1.08,0,0,0,.55-.09,2.53,2.53,0,0,1,1.1-.23,2.07,2.07,0,0,1,1.09.42v.08a2.07,2.07,0,0,1-1.09.42,2.52,2.52,0,0,1-1.1-.22,1,1,0,0,0-.55-.1c-.18,0-.37.17-.55.22a1.29,1.29,0,0,1-1.1-.32Z"/></g><g class="cls-8"><path class="cls-9" d="M500.55,448.74a1.3,1.3,0,0,1-1.09.31c-.19-.05-.37-.19-.55-.22a1.06,1.06,0,0,0-.55.1,2.55,2.55,0,0,1-1.1.22,2.17,2.17,0,0,1-1.1-.41v-.09a2.08,2.08,0,0,1,1.1-.41,2.55,2.55,0,0,1,1.1.22,1.06,1.06,0,0,0,.55.1c.18,0,.36-.17.55-.22a1.3,1.3,0,0,1,1.09.31Z"/></g><g class="cls-8"><path class="cls-9" d="M600.18,469.26a11.07,11.07,0,0,1-3.43.31c-.57-.06-1.14-.19-1.71-.22a9,9,0,0,0-1.72.1,24.59,24.59,0,0,1-3.43.22,16.74,16.74,0,0,1-3.43-.41v-.09a17.48,17.48,0,0,1,3.43-.42,24.6,24.6,0,0,1,3.43.23,9,9,0,0,0,1.72.09c.57,0,1.14-.15,1.71-.22a11.07,11.07,0,0,1,3.43.32Z"/></g><g class="cls-8"><path class="cls-9" d="M589.81,475.64a11.09,11.09,0,0,1-3.43.31c-.57-.06-1.14-.18-1.71-.22a9,9,0,0,0-1.72.1,23.24,23.24,0,0,1-3.43.22,16.74,16.74,0,0,1-3.43-.41v-.09a17.48,17.48,0,0,1,3.43-.42,24.71,24.71,0,0,1,3.43.23,9,9,0,0,0,1.72.09c.57,0,1.14-.15,1.71-.21a10.8,10.8,0,0,1,3.43.31Z"/></g><g class="cls-8"><path class="cls-9" d="M537.06,460.48a11.09,11.09,0,0,1,3.43-.31c.57.06,1.14.19,1.72.22a8.93,8.93,0,0,0,1.71-.1,24.79,24.79,0,0,1,3.43-.22,17.37,17.37,0,0,1,3.43.41v.09a17.39,17.39,0,0,1-3.43.42,23.35,23.35,0,0,1-3.43-.23,8.92,8.92,0,0,0-1.71-.09c-.58,0-1.15.15-1.72.22a11.1,11.1,0,0,1-3.43-.32Z"/></g><g class="cls-8"><path class="cls-9" d="M594.15,454.12a11.16,11.16,0,0,1-3.44.31c-.57-.06-1.14-.18-1.71-.21a9.06,9.06,0,0,0-1.72.09,23.16,23.16,0,0,1-3.43.22,16.82,16.82,0,0,1-3.43-.41V454a16.82,16.82,0,0,1,3.43-.41,23.16,23.16,0,0,1,3.43.22,10,10,0,0,0,1.72.1c.57,0,1.14-.16,1.71-.22a11.16,11.16,0,0,1,3.44.31Z"/></g><g class="cls-8"><path class="cls-9" d="M560.09,471.74a10.83,10.83,0,0,1,3.43-.32c.58.06,1.15.19,1.72.22a8.93,8.93,0,0,0,1.71-.1,24.83,24.83,0,0,1,3.44-.22,16.84,16.84,0,0,1,3.43.42v.08a17.57,17.57,0,0,1-3.43.42A23.39,23.39,0,0,1,567,472a8.92,8.92,0,0,0-1.71-.09c-.57,0-1.14.15-1.72.22a11.13,11.13,0,0,1-3.43-.32Z"/></g><g class="cls-8"><path class="cls-9" d="M545.89,451.59a5.24,5.24,0,0,1,2.33-.32c.39.06.78.2,1.17.22a4.11,4.11,0,0,0,1.16-.09,10.92,10.92,0,0,1,2.34-.23,8,8,0,0,1,2.33.42v.09a8.34,8.34,0,0,1-2.33.41,10.91,10.91,0,0,1-2.34-.22,4.11,4.11,0,0,0-1.16-.1c-.39,0-.78.17-1.17.22a5.23,5.23,0,0,1-2.33-.31Z"/></g><g class="cls-8"><path class="cls-9" d="M601.91,463.24a1.33,1.33,0,0,1-1.1.32,3.5,3.5,0,0,0-.55-.22,1,1,0,0,0-.55.09,2.56,2.56,0,0,1-1.1.23,2.13,2.13,0,0,1-1.1-.42v-.08a2.13,2.13,0,0,1,1.1-.42,2.55,2.55,0,0,1,1.1.22,1,1,0,0,0,.55.1c.18,0,.36-.17.55-.22a1.3,1.3,0,0,1,1.1.32Z"/></g><g class="cls-8"><path class="cls-9" d="M532.47,475.28a1.28,1.28,0,0,1,1.1-.32c.18.05.36.19.54.22a1,1,0,0,0,.55-.1,2.58,2.58,0,0,1,1.1-.22,2.1,2.1,0,0,1,1.1.42v.08a2.1,2.1,0,0,1-1.1.42,2.59,2.59,0,0,1-1.1-.23,1.05,1.05,0,0,0-.55-.09,4.08,4.08,0,0,0-.54.22,1.32,1.32,0,0,1-1.1-.32Z"/></g><g class="cls-8"><path class="cls-9" d="M547.53,467.06a1.33,1.33,0,0,1,1.1-.31c.19.05.37.19.55.22a1.08,1.08,0,0,0,.55-.1,2.55,2.55,0,0,1,1.1-.22,2.2,2.2,0,0,1,1.1.41v.09a2,2,0,0,1-1.1.41,2.55,2.55,0,0,1-1.1-.22,1,1,0,0,0-.55-.09,4.72,4.72,0,0,0-.55.21,1.29,1.29,0,0,1-1.1-.31Z"/></g><g class="cls-8"><path class="cls-9" d="M581.22,459.5a1.26,1.26,0,0,1-1.09.31,4.72,4.72,0,0,0-.55-.21,1,1,0,0,0-.55.09,2.72,2.72,0,0,1-1.1.23,2.1,2.1,0,0,1-1.1-.42v-.09a2.17,2.17,0,0,1,1.1-.41,2.55,2.55,0,0,1,1.1.22,1,1,0,0,0,.55.1c.18,0,.36-.17.55-.22a1.3,1.3,0,0,1,1.09.31Z"/></g><g class="cls-8"><path class="cls-9" d="M558.27,455.59a1.33,1.33,0,0,1,1.1-.32,3.5,3.5,0,0,0,.55.22,1.07,1.07,0,0,0,.55-.09,2.56,2.56,0,0,1,1.1-.23,2.13,2.13,0,0,1,1.1.42v.08a2.13,2.13,0,0,1-1.1.42,2.55,2.55,0,0,1-1.1-.22,1,1,0,0,0-.55-.1c-.18,0-.36.17-.55.22a1.3,1.3,0,0,1-1.1-.32Z"/></g><g class="cls-8"><path class="cls-9" d="M573.76,448.74a1.33,1.33,0,0,1-1.1.31c-.18-.05-.37-.19-.55-.22a1.08,1.08,0,0,0-.55.1,2.55,2.55,0,0,1-1.1.22,2.2,2.2,0,0,1-1.1-.41v-.09a2.11,2.11,0,0,1,1.1-.41,2.55,2.55,0,0,1,1.1.22,1.08,1.08,0,0,0,.55.1c.18,0,.37-.17.55-.22a1.33,1.33,0,0,1,1.1.31Z"/></g><g class="cls-8"><path class="cls-9" d="M673.39,469.26a11.12,11.12,0,0,1-3.43.31c-.58-.06-1.15-.19-1.72-.22a9.08,9.08,0,0,0-1.72.1,24.59,24.59,0,0,1-3.43.22,16.82,16.82,0,0,1-3.43-.41v-.09a17.57,17.57,0,0,1,3.43-.42,24.6,24.6,0,0,1,3.43.23,9.06,9.06,0,0,0,1.72.09c.57,0,1.14-.15,1.72-.22a11.13,11.13,0,0,1,3.43.32Z"/></g><g class="cls-8"><path class="cls-9" d="M663,475.64a11.07,11.07,0,0,1-3.43.31c-.57-.06-1.14-.18-1.71-.22a9,9,0,0,0-1.72.1,23.16,23.16,0,0,1-3.43.22,16.74,16.74,0,0,1-3.43-.41v-.09a17.48,17.48,0,0,1,3.43-.42,24.6,24.6,0,0,1,3.43.23,9,9,0,0,0,1.72.09c.57,0,1.14-.15,1.71-.21a10.77,10.77,0,0,1,3.43.31Z"/></g><g class="cls-8"><path class="cls-9" d="M610.26,460.48a11.12,11.12,0,0,1,3.43-.31c.58.06,1.15.19,1.72.22a8.93,8.93,0,0,0,1.71-.1,24.83,24.83,0,0,1,3.44-.22,17.55,17.55,0,0,1,3.43.41v.09a17.57,17.57,0,0,1-3.43.42,23.39,23.39,0,0,1-3.44-.23,8.92,8.92,0,0,0-1.71-.09c-.57,0-1.14.15-1.72.22a11.13,11.13,0,0,1-3.43-.32Z"/></g><g class="cls-8"><path class="cls-9" d="M667.35,454.12a11.12,11.12,0,0,1-3.43.31c-.57-.06-1.15-.18-1.72-.21a8.92,8.92,0,0,0-1.71.09,23.33,23.33,0,0,1-3.43.22,16.83,16.83,0,0,1-3.44-.41V454a16.83,16.83,0,0,1,3.44-.41,23.33,23.33,0,0,1,3.43.22,9.82,9.82,0,0,0,1.71.1c.57,0,1.15-.16,1.72-.22a11.12,11.12,0,0,1,3.43.31Z"/></g><g class="cls-8"><path class="cls-9" d="M633.3,471.74a10.78,10.78,0,0,1,3.43-.32c.57.06,1.14.19,1.71.22a9,9,0,0,0,1.72-.1,24.59,24.59,0,0,1,3.43-.22,16.75,16.75,0,0,1,3.43.42v.08a17.48,17.48,0,0,1-3.43.42,23.16,23.16,0,0,1-3.43-.23,9,9,0,0,0-1.72-.09c-.57,0-1.14.15-1.71.22a11.07,11.07,0,0,1-3.43-.32Z"/></g><g class="cls-8"><path class="cls-9" d="M619.09,451.59a5.25,5.25,0,0,1,2.33-.32c.39.06.78.2,1.17.22a4.21,4.21,0,0,0,1.17-.09,10.77,10.77,0,0,1,2.33-.23,7.9,7.9,0,0,1,2.33.42v.09a8.22,8.22,0,0,1-2.33.41,10.76,10.76,0,0,1-2.33-.22,4.21,4.21,0,0,0-1.17-.1c-.39,0-.78.17-1.17.22a5.24,5.24,0,0,1-2.33-.31Z"/></g><g class="cls-8"><path class="cls-9" d="M675.11,463.24a1.33,1.33,0,0,1-1.1.32,3.16,3.16,0,0,0-.55-.22,1,1,0,0,0-.55.09,2.53,2.53,0,0,1-1.1.23,2.07,2.07,0,0,1-1.09-.42v-.08a2.07,2.07,0,0,1,1.09-.42,2.52,2.52,0,0,1,1.1.22,1,1,0,0,0,.55.1c.18,0,.37-.17.55-.22a1.29,1.29,0,0,1,1.1.32Z"/></g><g class="cls-8"><path class="cls-9" d="M605.67,475.28a1.29,1.29,0,0,1,1.1-.32,5.25,5.25,0,0,0,.55.22,1,1,0,0,0,.55-.1,2.5,2.5,0,0,1,1.09-.22,2.07,2.07,0,0,1,1.1.42v.08a2.07,2.07,0,0,1-1.1.42,2.52,2.52,0,0,1-1.09-.23,1.08,1.08,0,0,0-.55-.09,3.71,3.71,0,0,0-.55.22,1.33,1.33,0,0,1-1.1-.32Z"/></g><g class="cls-8"><path class="cls-9" d="M620.74,467.06a1.31,1.31,0,0,1,1.1-.31c.18.05.36.19.54.22a1.06,1.06,0,0,0,.55-.1,2.58,2.58,0,0,1,1.1-.22,2.17,2.17,0,0,1,1.1.41v.09a2,2,0,0,1-1.1.41,2.58,2.58,0,0,1-1.1-.22,1,1,0,0,0-.55-.09,4,4,0,0,0-.54.21,1.28,1.28,0,0,1-1.1-.31Z"/></g><g class="cls-8"><path class="cls-9" d="M654.43,459.5a1.29,1.29,0,0,1-1.1.31,4.13,4.13,0,0,0-.55-.21,1,1,0,0,0-.55.09,2.72,2.72,0,0,1-1.1.23,2.13,2.13,0,0,1-1.1-.42v-.09a2.2,2.2,0,0,1,1.1-.41,2.55,2.55,0,0,1,1.1.22,1,1,0,0,0,.55.1c.18,0,.37-.17.55-.22a1.33,1.33,0,0,1,1.1.31Z"/></g><g class="cls-8"><path class="cls-9" d="M631.48,455.59a1.31,1.31,0,0,1,1.09-.32,3.5,3.5,0,0,0,.55.22,1.05,1.05,0,0,0,.55-.09,2.56,2.56,0,0,1,1.1-.23,2.1,2.1,0,0,1,1.1.42v.08a2.1,2.1,0,0,1-1.1.42,2.55,2.55,0,0,1-1.1-.22,1,1,0,0,0-.55-.1c-.18,0-.36.17-.55.22a1.27,1.27,0,0,1-1.09-.32Z"/></g><g class="cls-8"><path class="cls-9" d="M647,448.74a1.32,1.32,0,0,1-1.1.31c-.18-.05-.37-.19-.55-.22a1.1,1.1,0,0,0-.55.1,2.52,2.52,0,0,1-1.1.22,2.13,2.13,0,0,1-1.09-.41v-.09a2,2,0,0,1,1.09-.41,2.52,2.52,0,0,1,1.1.22,1.1,1.1,0,0,0,.55.1c.18,0,.37-.17.55-.22a1.32,1.32,0,0,1,1.1.31Z"/></g><g class="cls-8"><path class="cls-9" d="M746.59,469.26a11.09,11.09,0,0,1-3.43.31c-.57-.06-1.15-.19-1.72-.22a8.93,8.93,0,0,0-1.71.1,24.79,24.79,0,0,1-3.43.22,16.65,16.65,0,0,1-3.43-.41v-.09a17.39,17.39,0,0,1,3.43-.42,24.81,24.81,0,0,1,3.43.23,8.92,8.92,0,0,0,1.71.09c.57,0,1.15-.15,1.72-.22a11.1,11.1,0,0,1,3.43.32Z"/></g><g class="cls-8"><path class="cls-9" d="M736.22,475.64a11.12,11.12,0,0,1-3.43.31c-.58-.06-1.15-.18-1.72-.22a8.93,8.93,0,0,0-1.71.1,23.38,23.38,0,0,1-3.44.22,16.82,16.82,0,0,1-3.43-.41v-.09a17.57,17.57,0,0,1,3.43-.42,24.85,24.85,0,0,1,3.44.23,8.92,8.92,0,0,0,1.71.09c.57,0,1.14-.15,1.72-.21a10.82,10.82,0,0,1,3.43.31Z"/></g><g class="cls-8"><path class="cls-9" d="M683.46,460.48a11.16,11.16,0,0,1,3.44-.31c.57.06,1.14.19,1.71.22a9.08,9.08,0,0,0,1.72-.1,24.59,24.59,0,0,1,3.43-.22,17.55,17.55,0,0,1,3.43.41v.09a17.57,17.57,0,0,1-3.43.42,23.16,23.16,0,0,1-3.43-.23,9.06,9.06,0,0,0-1.72-.09c-.57,0-1.14.15-1.71.22a11.17,11.17,0,0,1-3.44-.32Z"/></g><g class="cls-8"><path class="cls-9" d="M740.55,454.12a11.09,11.09,0,0,1-3.43.31c-.57-.06-1.14-.18-1.72-.21a8.92,8.92,0,0,0-1.71.09,23.33,23.33,0,0,1-3.43.22,16.65,16.65,0,0,1-3.43-.41V454a16.65,16.65,0,0,1,3.43-.41,23.33,23.33,0,0,1,3.43.22,9.82,9.82,0,0,0,1.71.1c.58,0,1.15-.16,1.72-.22a11.09,11.09,0,0,1,3.43.31Z"/></g><g class="cls-8"><path class="cls-9" d="M706.5,471.74a10.78,10.78,0,0,1,3.43-.32c.57.06,1.14.19,1.71.22a9,9,0,0,0,1.72-.1,24.69,24.69,0,0,1,3.43-.22,16.75,16.75,0,0,1,3.43.42v.08a17.48,17.48,0,0,1-3.43.42,23.26,23.26,0,0,1-3.43-.23,9,9,0,0,0-1.72-.09c-.57,0-1.14.15-1.71.22a11.07,11.07,0,0,1-3.43-.32Z"/></g><g class="cls-8"><path class="cls-9" d="M692.29,451.59a5.28,5.28,0,0,1,2.34-.32,11.3,11.3,0,0,0,1.16.22,4.21,4.21,0,0,0,1.17-.09,10.83,10.83,0,0,1,2.33-.23,8,8,0,0,1,2.34.42v.09a8.35,8.35,0,0,1-2.34.41,10.82,10.82,0,0,1-2.33-.22,4.21,4.21,0,0,0-1.17-.1c-.39,0-.78.17-1.16.22a5.27,5.27,0,0,1-2.34-.31Z"/></g><g class="cls-8"><path class="cls-9" d="M748.31,463.24a1.33,1.33,0,0,1-1.1.32,2.87,2.87,0,0,0-.55-.22,1,1,0,0,0-.55.09,2.52,2.52,0,0,1-1.09.23,2.07,2.07,0,0,1-1.1-.42v-.08a2.07,2.07,0,0,1,1.1-.42,2.5,2.5,0,0,1,1.09.22,1,1,0,0,0,.55.1,5.25,5.25,0,0,0,.55-.22,1.29,1.29,0,0,1,1.1.32Z"/></g><g class="cls-8"><path class="cls-9" d="M678.87,475.28A1.29,1.29,0,0,1,680,475c.18.05.37.19.55.22a1,1,0,0,0,.55-.1,2.52,2.52,0,0,1,1.1-.22,2.07,2.07,0,0,1,1.09.42v.08a2.07,2.07,0,0,1-1.09.42,2.53,2.53,0,0,1-1.1-.23,1.07,1.07,0,0,0-.55-.09,4.2,4.2,0,0,0-.55.22,1.33,1.33,0,0,1-1.1-.32Z"/></g><g class="cls-8"><path class="cls-9" d="M693.94,467.06a1.32,1.32,0,0,1,1.1-.31,5.25,5.25,0,0,0,.55.22,1.1,1.1,0,0,0,.55-.1,2.5,2.5,0,0,1,1.09-.22,2.13,2.13,0,0,1,1.1.41v.09a2,2,0,0,1-1.1.41,2.5,2.5,0,0,1-1.09-.22,1,1,0,0,0-.55-.09,3.66,3.66,0,0,0-.55.21,1.28,1.28,0,0,1-1.1-.31Z"/></g><g class="cls-8"><path class="cls-9" d="M727.63,459.5a1.28,1.28,0,0,1-1.1.31,4.13,4.13,0,0,0-.55-.21,1,1,0,0,0-.55.09,2.68,2.68,0,0,1-1.1.23,2.07,2.07,0,0,1-1.09-.42v-.09a2.13,2.13,0,0,1,1.09-.41,2.52,2.52,0,0,1,1.1.22,1,1,0,0,0,.55.1c.18,0,.37-.17.55-.22a1.32,1.32,0,0,1,1.1.31Z"/></g><g class="cls-8"><path class="cls-9" d="M704.68,455.59a1.33,1.33,0,0,1,1.1-.32,2.87,2.87,0,0,0,.55.22,1.08,1.08,0,0,0,.55-.09,2.52,2.52,0,0,1,1.09-.23,2.07,2.07,0,0,1,1.1.42v.08a2.07,2.07,0,0,1-1.1.42,2.5,2.5,0,0,1-1.09-.22,1,1,0,0,0-.55-.1,5.25,5.25,0,0,0-.55.22,1.29,1.29,0,0,1-1.1-.32Z"/></g><g class="cls-8"><path class="cls-9" d="M720.16,448.74a1.31,1.31,0,0,1-1.1.31,5.25,5.25,0,0,0-.55-.22,1,1,0,0,0-.54.1,2.58,2.58,0,0,1-1.1.22,2.17,2.17,0,0,1-1.1-.41v-.09a2.08,2.08,0,0,1,1.1-.41,2.58,2.58,0,0,1,1.1.22,1,1,0,0,0,.54.1,5.25,5.25,0,0,0,.55-.22,1.31,1.31,0,0,1,1.1.31Z"/></g><g class="cls-8"><path class="cls-9" d="M819.79,469.26a11.09,11.09,0,0,1-3.43.31c-.57-.06-1.14-.19-1.71-.22a9,9,0,0,0-1.72.1,24.69,24.69,0,0,1-3.43.22,16.74,16.74,0,0,1-3.43-.41v-.09a17.48,17.48,0,0,1,3.43-.42,24.71,24.71,0,0,1,3.43.23,9,9,0,0,0,1.72.09c.57,0,1.14-.15,1.71-.22a11.1,11.1,0,0,1,3.43.32Z"/></g><g class="cls-8"><path class="cls-9" d="M809.42,475.64A11.09,11.09,0,0,1,806,476c-.57-.06-1.15-.18-1.72-.22a8.93,8.93,0,0,0-1.71.1,23.33,23.33,0,0,1-3.43.22,16.65,16.65,0,0,1-3.43-.41v-.09a17.39,17.39,0,0,1,3.43-.42,24.81,24.81,0,0,1,3.43.23,8.92,8.92,0,0,0,1.71.09c.57,0,1.15-.15,1.72-.21a10.8,10.8,0,0,1,3.43.31Z"/></g><g class="cls-8"><path class="cls-9" d="M756.67,460.48a11.07,11.07,0,0,1,3.43-.31c.57.06,1.14.19,1.71.22a9,9,0,0,0,1.72-.1,24.69,24.69,0,0,1,3.43-.22,17.46,17.46,0,0,1,3.43.41v.09A17.48,17.48,0,0,1,767,461a23.26,23.26,0,0,1-3.43-.23,9,9,0,0,0-1.72-.09c-.57,0-1.14.15-1.71.22a11.07,11.07,0,0,1-3.43-.32Z"/></g><g class="cls-8"><path class="cls-9" d="M813.75,454.12a11.07,11.07,0,0,1-3.43.31c-.57-.06-1.14-.18-1.71-.21a9,9,0,0,0-1.72.09,23.24,23.24,0,0,1-3.43.22,16.74,16.74,0,0,1-3.43-.41V454a16.74,16.74,0,0,1,3.43-.41,23.24,23.24,0,0,1,3.43.22,9.87,9.87,0,0,0,1.72.1c.57,0,1.14-.16,1.71-.22a11.07,11.07,0,0,1,3.43.31Z"/></g><g class="cls-8"><path class="cls-9" d="M779.7,471.74a10.81,10.81,0,0,1,3.43-.32c.57.06,1.14.19,1.72.22a8.93,8.93,0,0,0,1.71-.1,24.79,24.79,0,0,1,3.43-.22,16.67,16.67,0,0,1,3.43.42v.08a17.39,17.39,0,0,1-3.43.42,23.35,23.35,0,0,1-3.43-.23,8.92,8.92,0,0,0-1.71-.09c-.58,0-1.15.15-1.72.22a11.1,11.1,0,0,1-3.43-.32Z"/></g><g class="cls-8"><path class="cls-9" d="M765.5,451.59a5.22,5.22,0,0,1,2.33-.32c.39.06.78.2,1.17.22a4.16,4.16,0,0,0,1.16-.09,10.89,10.89,0,0,1,2.33-.23,8,8,0,0,1,2.34.42v.09a8.35,8.35,0,0,1-2.34.41,10.88,10.88,0,0,1-2.33-.22,4.18,4.18,0,0,0-1.16-.1c-.39,0-.78.17-1.17.22a5.21,5.21,0,0,1-2.33-.31Z"/></g><g class="cls-8"><path class="cls-9" d="M821.51,463.24a1.32,1.32,0,0,1-1.1.32,3.07,3.07,0,0,0-.54-.22,1,1,0,0,0-.55.09,2.59,2.59,0,0,1-1.1.23,2.1,2.1,0,0,1-1.1-.42v-.08a2.1,2.1,0,0,1,1.1-.42,2.58,2.58,0,0,1,1.1.22,1,1,0,0,0,.55.1c.18,0,.36-.17.54-.22a1.28,1.28,0,0,1,1.1.32Z"/></g><g class="cls-8"><path class="cls-9" d="M752.07,475.28a1.3,1.3,0,0,1,1.1-.32c.19.05.37.19.55.22a1,1,0,0,0,.55-.1,2.55,2.55,0,0,1,1.1-.22,2.13,2.13,0,0,1,1.1.42v.08a2.13,2.13,0,0,1-1.1.42,2.56,2.56,0,0,1-1.1-.23,1.07,1.07,0,0,0-.55-.09,4.85,4.85,0,0,0-.55.22,1.33,1.33,0,0,1-1.1-.32Z"/></g><g class="cls-8"><path class="cls-9" d="M767.14,467.06a1.32,1.32,0,0,1,1.1-.31c.18.05.37.19.55.22a1.08,1.08,0,0,0,.55-.1,2.52,2.52,0,0,1,1.1-.22,2.13,2.13,0,0,1,1.09.41v.09a2,2,0,0,1-1.09.41,2.52,2.52,0,0,1-1.1-.22,1,1,0,0,0-.55-.09,4.13,4.13,0,0,0-.55.21,1.28,1.28,0,0,1-1.1-.31Z"/></g><g class="cls-8"><path class="cls-9" d="M800.83,459.5a1.28,1.28,0,0,1-1.1.31,3.66,3.66,0,0,0-.55-.21,1,1,0,0,0-.55.09,2.67,2.67,0,0,1-1.09.23,2.1,2.1,0,0,1-1.1-.42v-.09a2.17,2.17,0,0,1,1.1-.41,2.5,2.5,0,0,1,1.09.22,1,1,0,0,0,.55.1,5.25,5.25,0,0,0,.55-.22,1.32,1.32,0,0,1,1.1.31Z"/></g><g class="cls-8"><path class="cls-9" d="M777.88,455.59a1.33,1.33,0,0,1,1.1-.32,3.16,3.16,0,0,0,.55.22,1.08,1.08,0,0,0,.55-.09,2.53,2.53,0,0,1,1.1-.23,2.07,2.07,0,0,1,1.09.42v.08a2.07,2.07,0,0,1-1.09.42,2.52,2.52,0,0,1-1.1-.22,1,1,0,0,0-.55-.1c-.18,0-.37.17-.55.22a1.29,1.29,0,0,1-1.1-.32Z"/></g><g class="cls-8"><path class="cls-9" d="M793.36,448.74a1.3,1.3,0,0,1-1.09.31c-.19-.05-.37-.19-.55-.22a1.06,1.06,0,0,0-.55.1,2.55,2.55,0,0,1-1.1.22,2.17,2.17,0,0,1-1.1-.41v-.09a2.08,2.08,0,0,1,1.1-.41,2.55,2.55,0,0,1,1.1.22,1.06,1.06,0,0,0,.55.1c.18,0,.36-.17.55-.22a1.3,1.3,0,0,1,1.09.31Z"/></g><rect class="cls-10" x="567.84" y="434.45" width="58.72" height="362.55"/><rect class="cls-11" x="558.27" y="439.63" width="9.56" height="148.1" transform="translate(1126.11 1027.36) rotate(180)"/><rect class="cls-11" x="625.32" y="439.63" width="25.63" height="12.17"/><rect class="cls-11" x="625.13" y="439.63" width="12.38" height="148.1"/><rect class="cls-11" x="545.36" y="439.63" width="22.47" height="12.17" transform="translate(1113.2 891.44) rotate(180)"/><path class="cls-11" d="M627.78,576.1V778.84c0,6.2-1.67,14.79-30.73,14.79s-30.77-8.59-30.77-14.79V576.1h-8V785.31A19.77,19.77,0,0,0,578,805.07h39.71a19.76,19.76,0,0,0,19.76-19.76V576.1Z"/><path class="cls-12" d="M627.78,686.17v92.67c0,6.2-1.67,14.79-30.73,14.79s-30.77-8.59-30.77-14.79V686.17h-8v99.14A19.77,19.77,0,0,0,578,805.07h39.71a19.76,19.76,0,0,0,19.76-19.76V686.17Z"/><path class="cls-13" d="M626.27,434.72c0-.15-.19-.27-.43-.27H568.27c-.24,0-.43.12-.43.27V784.34a.14.14,0,0,0,0,.06,1.64,1.64,0,0,0,0,.22c0,4.66,13.08,8.45,29.21,8.45s29.22-3.79,29.22-8.45a1.64,1.64,0,0,0,0-.22.14.14,0,0,0,0-.06Z"/><polyline class="cls-14" points="602.67 412.1 312.3 412.1 312.3 434.45"/><rect class="cls-15" x="690.69" y="300.66" width="37.5" height="133.79"/><rect class="cls-16" x="696.7" y="300.66" width="9.06" height="133.79"/><path class="cls-17" d="M415,403.89H671.67a6.22,6.22,0,0,0,6.22-6.23v-43.9"/><rect class="cls-18" x="634.56" y="247.24" width="155.33" height="110.36" rx="4.38"/><rect class="cls-19" x="630.66" y="243.4" width="155.33" height="110.36" rx="4.38"/><g class="cls-20"><path class="cls-18" d="M756.36,338.62H652V268.48a10,10,0,0,1,10.09-9.94H766.46v70.14A10,10,0,0,1,756.36,338.62Z"/></g><path class="cls-19" d="M751.76,341.91H644.67V266A10.57,10.57,0,0,1,655,255.25H762.12v75.91A10.56,10.56,0,0,1,751.76,341.91Z"/><path class="cls-21" d="M704.29,291.24a5.34,5.34,0,0,0-1.25-.59c-.47-.15-.95-.29-1.44-.41l-1.43-.35a9.23,9.23,0,0,1-1.25-.4,2.76,2.76,0,0,1-.89-.55,1,1,0,0,1-.33-.71,2.48,2.48,0,0,1,.11-.73,1.3,1.3,0,0,1,.44-.62,2.81,2.81,0,0,1,.92-.49,4.7,4.7,0,0,1,1.46-.19,5.44,5.44,0,0,1,1.45.17,2.18,2.18,0,0,1,1.81,1.87h1.32a3,3,0,0,0-1.14-2.25,5.09,5.09,0,0,0-3.35-1,5,5,0,0,0-3.21.87,2.81,2.81,0,0,0-1.06,2.27,2.1,2.1,0,0,0,.57,1.55,4.47,4.47,0,0,0,1.44.93,12.41,12.41,0,0,0,1.87.57c.67.15,1.29.31,1.87.48a5.27,5.27,0,0,1,1.45.65,1.27,1.27,0,0,1,.57,1.09c0,1.33-1.06,2-3.19,2a4.81,4.81,0,0,1-2.45-.53,2.13,2.13,0,0,1-1.14-1.78H696.1a3.58,3.58,0,0,0,1.27,2.54,5.78,5.78,0,0,0,3.64,1,5.63,5.63,0,0,0,3.3-.84,2.79,2.79,0,0,0,1.2-2.44A2.4,2.4,0,0,0,704.29,291.24Z"/><polygon class="cls-21" points="713.06 290.52 708.99 285.13 707.5 285.13 707.5 296.49 708.78 296.49 708.78 287.09 713.06 292.5 717.26 287.09 717.26 296.49 718.55 296.49 718.55 285.13 717.05 285.13 713.06 290.52"/><path class="cls-21" d="M726.42,285.13h-1.61L720,296.49h1.42l1.39-3.29h5.63l1.39,3.29h1.42ZM723.3,292l2.32-5.55,2.31,5.55Z"/><path class="cls-21" d="M734,292.13h3.95l2.74,4.36h1.53l-3-4.58a5.5,5.5,0,0,0,1-.32,2.89,2.89,0,0,0,1.77-2.9,3.32,3.32,0,0,0-1-2.59,4,4,0,0,0-2.78-1h-5.44v11.36H734Zm0-5.78h4a2.94,2.94,0,0,1,2,.63,2.12,2.12,0,0,1,.73,1.71,2.09,2.09,0,0,1-.25,1.09,2.69,2.69,0,0,1-2.51,1.14H734Z"/><polygon class="cls-21" points="746.82 296.49 748.11 296.49 748.11 286.37 752.08 286.37 752.08 285.13 742.86 285.13 742.86 286.37 746.82 286.37 746.82 296.49"/><polygon class="cls-21" points="703.96 303.38 697.35 303.38 697.35 298.33 696.07 298.33 696.07 309.69 697.35 309.69 697.35 304.63 703.96 304.63 703.96 309.69 705.25 309.69 705.25 298.33 703.96 298.33 703.96 303.38"/><polygon class="cls-21" points="712.02 303.86 708.18 298.33 706.62 298.33 711.39 305.2 711.39 309.69 712.67 309.69 712.67 305.2 717.43 298.33 715.87 298.33 712.02 303.86"/><path class="cls-21" d="M725.56,298.72a5.08,5.08,0,0,0-2-.39h-4.78v11.36h4.78a5.26,5.26,0,0,0,2-.38,5,5,0,0,0,1.66-1.13,6.23,6.23,0,0,0,0-8.34A4.92,4.92,0,0,0,725.56,298.72Zm.89,8.43a3.61,3.61,0,0,1-2.9,1.32H720.1v-8.92h3.45a3.61,3.61,0,0,1,2.9,1.32,5.1,5.1,0,0,1,0,6.28Z"/><path class="cls-21" d="M737.74,304.78a2.87,2.87,0,0,0,1.77-2.9,3.32,3.32,0,0,0-1-2.59,4,4,0,0,0-2.78-1h-5.44v11.36h1.29v-4.36h3.94l2.75,4.36h1.53l-3-4.58A4.92,4.92,0,0,0,737.74,304.78Zm-2.28-.66h-3.93v-4.57h4a2.9,2.9,0,0,1,2,.63A2.37,2.37,0,0,1,738,303,2.68,2.68,0,0,1,735.46,304.12Z"/><path class="cls-21" d="M750.48,299.89a6,6,0,0,0-8.34,0,6.1,6.1,0,0,0,0,8.24,6,6,0,0,0,8.34,0,6.13,6.13,0,0,0,0-8.24Zm-.89,7.37a4.74,4.74,0,0,1-6.56,0,5,5,0,0,1,0-6.49,4.74,4.74,0,0,1,6.56,0,5,5,0,0,1,0,6.49Z"/><rect class="cls-21" x="692.7" y="282.32" width="0.76" height="30.19"/><path class="cls-21" d="M681.63,283c-.09,4-2.45,6.55-4.26,9.39l-1,1.49,2.47,3.8c.57-.81,1.25-1.79,1.76-2.57a16.58,16.58,0,0,0,2.11-3.58l3.05,5.11c-.83,1.51-1.88,2.87-2.78,4.3-2.31,3.28-4.69,6.51-6.91,9.84-2,2.93-1.91,6-.14,9.65H676c.58-3.58,2.54-5.91,4.23-8.39,1.93-2.82,4.26-5.83,5.93-8.38,3.43-4.64,3.43-7.44,1.07-12.11Z"/><path class="cls-21" d="M674.88,302.51l1-1.49-2.47-3.8c-.57.81-1.25,1.79-1.76,2.57a16,16,0,0,0-2.16,3.7l-3.21-5.21c.81-1.52,1.84-2.89,2.73-4.34,2.26-3.3,4.59-6.56,6.77-9.92,1.92-3,1.83-6,0-9.65h-.07c-.53,3.59-2.46,5.94-4.12,8.44-1.9,2.85-4.19,5.89-5.82,8.46-3.37,4.68-3.33,7.48-.91,12.13l5.66,8.47v0l0,.06C670.71,307.92,673.07,305.35,674.88,302.51Z"/><rect class="cls-18" x="406.25" y="391.98" width="5.48" height="7.96"/><path class="cls-10" d="M415,390.79a6,6,0,1,1-6-6A6,6,0,0,1,415,390.79Z"/><path class="cls-10" d="M412.13,425.62h-6.44c-2.29,0-4.14-1.15-4.14-2.58v-21.8c0-1.43,1.85-2.59,4.14-2.59h6.44c2.28,0,4.14,1.16,4.14,2.59V423C416.27,424.47,414.41,425.62,412.13,425.62Z"/><g class="cls-20"><path class="cls-10" d="M410.13,420.39h-2.45c-1.81,0-3.28-.92-3.28-2.05v-12.4c0-1.13,1.47-2.05,3.28-2.05h2.45c1.81,0,3.28.92,3.28,2.05v12.4C413.41,419.47,411.94,420.39,410.13,420.39Z"/></g><path class="cls-21" d="M411.65,390.79a2.74,2.74,0,1,1-2.74-2.74A2.74,2.74,0,0,1,411.65,390.79Z"/><rect class="cls-18" x="587.21" y="409.43" width="20.94" height="213.88"/><path class="cls-22" d="M597.67,681.16h0c-10.6,0-19.19-7.25-19.19-16.19v-47.6c0-4.07,3.91-7.37,8.74-7.37h20.91c4.82,0,8.74,3.3,8.74,7.37V665C616.87,673.91,608.27,681.16,597.67,681.16Z"/><path class="cls-11" d="M587,668.18c-.94,0-1.7-.5-1.7-1.12V633c0-.62.76-1.13,1.7-1.13s1.71.51,1.71,1.13v34C588.73,667.68,588,668.18,587,668.18Z"/><path class="cls-11" d="M597.67,673.29c-.94,0-1.7-.57-1.7-1.28V633.18c0-.7.76-1.28,1.7-1.28s1.71.58,1.71,1.28V672C599.38,672.72,598.62,673.29,597.67,673.29Z"/><path class="cls-11" d="M608.33,668.18c-1,0-1.71-.5-1.71-1.12V633c0-.62.76-1.13,1.71-1.13s1.7.51,1.7,1.13v34C610,667.68,609.27,668.18,608.33,668.18Z"/><path class="cls-18" d="M621.54,694.23a2.34,2.34,0,1,1-2.34-2.34A2.34,2.34,0,0,1,621.54,694.23Z"/><path class="cls-18" d="M621.54,703.2a2.34,2.34,0,1,1-2.34-2.34A2.34,2.34,0,0,1,621.54,703.2Z"/><path class="cls-18" d="M621.54,713.47a2.34,2.34,0,1,1-2.34-2.34A2.33,2.33,0,0,1,621.54,713.47Z"/><path class="cls-18" d="M621.54,722.44a2.34,2.34,0,1,1-2.34-2.34A2.33,2.33,0,0,1,621.54,722.44Z"/><path class="cls-18" d="M621.54,732.7a2.34,2.34,0,1,1-2.34-2.33A2.34,2.34,0,0,1,621.54,732.7Z"/><path class="cls-18" d="M621.54,741.67a2.34,2.34,0,1,1-2.34-2.33A2.34,2.34,0,0,1,621.54,741.67Z"/><path class="cls-18" d="M621.54,751.94a2.34,2.34,0,1,1-2.34-2.34A2.34,2.34,0,0,1,621.54,751.94Z"/><path class="cls-18" d="M621.54,760.91a2.34,2.34,0,1,1-2.34-2.34A2.34,2.34,0,0,1,621.54,760.91Z"/><path class="cls-18" d="M621.54,771.18a2.34,2.34,0,1,1-2.34-2.34A2.34,2.34,0,0,1,621.54,771.18Z"/><path class="cls-18" d="M621.54,780.15a2.34,2.34,0,1,1-2.34-2.34A2.34,2.34,0,0,1,621.54,780.15Z"/><path class="cls-18" d="M610.46,697.09a2.34,2.34,0,1,1-2.33-2.34A2.33,2.33,0,0,1,610.46,697.09Z"/><path class="cls-18" d="M610.46,706.06a2.34,2.34,0,1,1-2.33-2.34A2.33,2.33,0,0,1,610.46,706.06Z"/><path class="cls-18" d="M610.46,716.33a2.34,2.34,0,1,1-2.33-2.34A2.33,2.33,0,0,1,610.46,716.33Z"/><path class="cls-18" d="M610.46,725.3a2.34,2.34,0,1,1-2.33-2.34A2.33,2.33,0,0,1,610.46,725.3Z"/><path class="cls-18" d="M610.46,735.57a2.34,2.34,0,1,1-2.33-2.34A2.33,2.33,0,0,1,610.46,735.57Z"/><path class="cls-18" d="M610.46,744.54a2.34,2.34,0,1,1-2.33-2.34A2.33,2.33,0,0,1,610.46,744.54Z"/><path class="cls-18" d="M610.46,754.8a2.34,2.34,0,1,1-2.33-2.33A2.33,2.33,0,0,1,610.46,754.8Z"/><path class="cls-18" d="M610.46,763.77a2.34,2.34,0,1,1-2.33-2.33A2.33,2.33,0,0,1,610.46,763.77Z"/><path class="cls-18" d="M610.46,774a2.34,2.34,0,1,1-2.33-2.34A2.33,2.33,0,0,1,610.46,774Z"/><path class="cls-18" d="M610.46,783a2.34,2.34,0,1,1-2.33-2.34A2.33,2.33,0,0,1,610.46,783Z"/><path class="cls-18" d="M599.39,699.43a2.34,2.34,0,1,1-2.34-2.34A2.34,2.34,0,0,1,599.39,699.43Z"/><path class="cls-18" d="M599.39,708.4a2.34,2.34,0,1,1-2.34-2.34A2.34,2.34,0,0,1,599.39,708.4Z"/><path class="cls-18" d="M599.39,718.67a2.34,2.34,0,1,1-2.34-2.34A2.33,2.33,0,0,1,599.39,718.67Z"/><path class="cls-18" d="M599.39,727.64a2.34,2.34,0,1,1-2.34-2.34A2.33,2.33,0,0,1,599.39,727.64Z"/><path class="cls-18" d="M599.39,737.9a2.34,2.34,0,1,1-2.34-2.33A2.33,2.33,0,0,1,599.39,737.9Z"/><path class="cls-18" d="M599.39,746.87a2.34,2.34,0,1,1-2.34-2.33A2.34,2.34,0,0,1,599.39,746.87Z"/><path class="cls-18" d="M599.39,757.14a2.34,2.34,0,1,1-2.34-2.34A2.34,2.34,0,0,1,599.39,757.14Z"/><path class="cls-18" d="M599.39,766.11a2.34,2.34,0,1,1-2.34-2.34A2.34,2.34,0,0,1,599.39,766.11Z"/><path class="cls-18" d="M599.39,776.38a2.34,2.34,0,1,1-2.34-2.34A2.34,2.34,0,0,1,599.39,776.38Z"/><path class="cls-18" d="M599.39,785.35a2.34,2.34,0,1,1-2.34-2.34A2.34,2.34,0,0,1,599.39,785.35Z"/><path class="cls-18" d="M588.32,697.09a2.34,2.34,0,1,1-2.34-2.34A2.34,2.34,0,0,1,588.32,697.09Z"/><path class="cls-18" d="M588.32,706.06a2.34,2.34,0,1,1-2.34-2.34A2.34,2.34,0,0,1,588.32,706.06Z"/><path class="cls-18" d="M588.32,716.33A2.34,2.34,0,1,1,586,714,2.34,2.34,0,0,1,588.32,716.33Z"/><path class="cls-18" d="M588.32,725.3A2.34,2.34,0,1,1,586,723,2.34,2.34,0,0,1,588.32,725.3Z"/><path class="cls-18" d="M588.32,735.57a2.34,2.34,0,1,1-2.34-2.34A2.33,2.33,0,0,1,588.32,735.57Z"/><path class="cls-18" d="M588.32,744.54A2.34,2.34,0,1,1,586,742.2,2.33,2.33,0,0,1,588.32,744.54Z"/><path class="cls-18" d="M588.32,754.8a2.34,2.34,0,1,1-2.34-2.33A2.34,2.34,0,0,1,588.32,754.8Z"/><path class="cls-18" d="M588.32,763.77a2.34,2.34,0,1,1-2.34-2.33A2.34,2.34,0,0,1,588.32,763.77Z"/><path class="cls-18" d="M588.32,774A2.34,2.34,0,1,1,586,771.7,2.34,2.34,0,0,1,588.32,774Z"/><path class="cls-18" d="M588.32,783a2.34,2.34,0,1,1-2.34-2.34A2.34,2.34,0,0,1,588.32,783Z"/><path class="cls-18" d="M577.25,694.23a2.34,2.34,0,1,1-2.34-2.34A2.34,2.34,0,0,1,577.25,694.23Z"/><path class="cls-18" d="M577.25,703.2a2.34,2.34,0,1,1-2.34-2.34A2.34,2.34,0,0,1,577.25,703.2Z"/><path class="cls-18" d="M577.25,713.47a2.34,2.34,0,1,1-2.34-2.34A2.33,2.33,0,0,1,577.25,713.47Z"/><path class="cls-18" d="M577.25,722.44a2.34,2.34,0,1,1-2.34-2.34A2.33,2.33,0,0,1,577.25,722.44Z"/><path class="cls-18" d="M577.25,732.7a2.34,2.34,0,1,1-2.34-2.33A2.34,2.34,0,0,1,577.25,732.7Z"/><path class="cls-18" d="M577.25,741.67a2.34,2.34,0,1,1-2.34-2.33A2.34,2.34,0,0,1,577.25,741.67Z"/><path class="cls-18" d="M577.25,751.94a2.34,2.34,0,1,1-2.34-2.34A2.34,2.34,0,0,1,577.25,751.94Z"/><path class="cls-18" d="M577.25,760.91a2.34,2.34,0,1,1-2.34-2.34A2.34,2.34,0,0,1,577.25,760.91Z"/><path class="cls-18" d="M577.25,771.18a2.34,2.34,0,1,1-2.34-2.34A2.34,2.34,0,0,1,577.25,771.18Z"/><path class="cls-18" d="M577.25,780.15a2.34,2.34,0,1,1-2.34-2.34A2.34,2.34,0,0,1,577.25,780.15Z"/></g></g></svg>