<svg id="Capa_1" data-name="Capa 1" xmlns="http://www.w3.org/2000/svg" viewBox="0 0 1080 1080"><defs><style>.cls-1{fill:#415257;}.cls-2{fill:#253133;}.cls-3{fill:none;stroke:#54696f;stroke-miterlimit:10;stroke-width:3px;}.cls-4{fill:#54696f;}.cls-5{fill:#a57c5e;}</style></defs><rect class="cls-1" x="500.85" y="434.45" width="58.72" height="362.55"/><rect class="cls-2" x="491.29" y="439.63" width="9.56" height="148.1" transform="translate(992.14 1027.36) rotate(180)"/><ellipse class="cls-3" cx="530.07" cy="779.9" rx="29.22" ry="13.17"/><path class="cls-4" d="M554.55,694.23a2.34,2.34,0,1,1-2.34-2.34A2.34,2.34,0,0,1,554.55,694.23Z"/><path class="cls-4" d="M554.55,703.2a2.34,2.34,0,1,1-2.34-2.34A2.34,2.34,0,0,1,554.55,703.2Z"/><path class="cls-4" d="M554.55,713.47a2.34,2.34,0,1,1-2.34-2.34A2.33,2.33,0,0,1,554.55,713.47Z"/><path class="cls-4" d="M554.55,722.44a2.34,2.34,0,1,1-2.34-2.34A2.33,2.33,0,0,1,554.55,722.44Z"/><path class="cls-4" d="M554.55,732.7a2.34,2.34,0,1,1-2.34-2.33A2.34,2.34,0,0,1,554.55,732.7Z"/><path class="cls-4" d="M554.55,741.67a2.34,2.34,0,1,1-2.34-2.33A2.34,2.34,0,0,1,554.55,741.67Z"/><path class="cls-4" d="M554.55,751.94a2.34,2.34,0,1,1-2.34-2.34A2.34,2.34,0,0,1,554.55,751.94Z"/><path class="cls-4" d="M554.55,760.91a2.34,2.34,0,1,1-2.34-2.34A2.34,2.34,0,0,1,554.55,760.91Z"/><path class="cls-4" d="M554.55,771.18a2.34,2.34,0,1,1-2.34-2.34A2.34,2.34,0,0,1,554.55,771.18Z"/><path class="cls-4" d="M554.55,780.15a2.34,2.34,0,1,1-2.34-2.34A2.34,2.34,0,0,1,554.55,780.15Z"/><path class="cls-4" d="M543.48,697.09a2.34,2.34,0,1,1-2.34-2.34A2.34,2.34,0,0,1,543.48,697.09Z"/><path class="cls-4" d="M543.48,706.06a2.34,2.34,0,1,1-2.34-2.34A2.34,2.34,0,0,1,543.48,706.06Z"/><path class="cls-4" d="M543.48,716.33a2.34,2.34,0,1,1-2.34-2.34A2.34,2.34,0,0,1,543.48,716.33Z"/><path class="cls-4" d="M543.48,725.3a2.34,2.34,0,1,1-2.34-2.34A2.34,2.34,0,0,1,543.48,725.3Z"/><path class="cls-4" d="M543.48,735.57a2.34,2.34,0,1,1-2.34-2.34A2.33,2.33,0,0,1,543.48,735.57Z"/><path class="cls-4" d="M543.48,744.54a2.34,2.34,0,1,1-2.34-2.34A2.33,2.33,0,0,1,543.48,744.54Z"/><path class="cls-4" d="M543.48,754.8a2.34,2.34,0,1,1-2.34-2.33A2.34,2.34,0,0,1,543.48,754.8Z"/><path class="cls-4" d="M543.48,763.77a2.34,2.34,0,1,1-2.34-2.33A2.34,2.34,0,0,1,543.48,763.77Z"/><path class="cls-4" d="M543.48,774a2.34,2.34,0,1,1-2.34-2.34A2.34,2.34,0,0,1,543.48,774Z"/><path class="cls-4" d="M543.48,783a2.34,2.34,0,1,1-2.34-2.34A2.34,2.34,0,0,1,543.48,783Z"/><path class="cls-4" d="M532.4,699.43a2.34,2.34,0,1,1-2.33-2.34A2.33,2.33,0,0,1,532.4,699.43Z"/><path class="cls-4" d="M532.4,708.4a2.34,2.34,0,1,1-2.33-2.34A2.33,2.33,0,0,1,532.4,708.4Z"/><path class="cls-4" d="M532.4,718.67a2.34,2.34,0,1,1-2.33-2.34A2.33,2.33,0,0,1,532.4,718.67Z"/><path class="cls-4" d="M532.4,727.64a2.34,2.34,0,1,1-2.33-2.34A2.33,2.33,0,0,1,532.4,727.64Z"/><path class="cls-4" d="M532.4,737.9a2.34,2.34,0,1,1-2.33-2.33A2.33,2.33,0,0,1,532.4,737.9Z"/><path class="cls-4" d="M532.4,746.87a2.34,2.34,0,1,1-2.33-2.33A2.33,2.33,0,0,1,532.4,746.87Z"/><path class="cls-4" d="M532.4,757.14a2.34,2.34,0,1,1-2.33-2.34A2.33,2.33,0,0,1,532.4,757.14Z"/><path class="cls-4" d="M532.4,766.11a2.34,2.34,0,1,1-2.33-2.34A2.33,2.33,0,0,1,532.4,766.11Z"/><path class="cls-4" d="M532.4,776.38a2.34,2.34,0,1,1-2.33-2.34A2.33,2.33,0,0,1,532.4,776.38Z"/><path class="cls-4" d="M532.4,785.35a2.34,2.34,0,1,1-2.33-2.34A2.33,2.33,0,0,1,532.4,785.35Z"/><path class="cls-4" d="M521.33,697.09a2.34,2.34,0,1,1-2.34-2.34A2.34,2.34,0,0,1,521.33,697.09Z"/><path class="cls-4" d="M521.33,706.06a2.34,2.34,0,1,1-2.34-2.34A2.34,2.34,0,0,1,521.33,706.06Z"/><path class="cls-4" d="M521.33,716.33A2.34,2.34,0,1,1,519,714,2.34,2.34,0,0,1,521.33,716.33Z"/><path class="cls-4" d="M521.33,725.3A2.34,2.34,0,1,1,519,723,2.34,2.34,0,0,1,521.33,725.3Z"/><path class="cls-4" d="M521.33,735.57a2.34,2.34,0,1,1-2.34-2.34A2.33,2.33,0,0,1,521.33,735.57Z"/><path class="cls-4" d="M521.33,744.54A2.34,2.34,0,1,1,519,742.2,2.33,2.33,0,0,1,521.33,744.54Z"/><path class="cls-4" d="M521.33,754.8a2.34,2.34,0,1,1-2.34-2.33A2.33,2.33,0,0,1,521.33,754.8Z"/><path class="cls-4" d="M521.33,763.77a2.34,2.34,0,1,1-2.34-2.33A2.34,2.34,0,0,1,521.33,763.77Z"/><path class="cls-4" d="M521.33,774A2.34,2.34,0,1,1,519,771.7,2.34,2.34,0,0,1,521.33,774Z"/><path class="cls-4" d="M521.33,783a2.34,2.34,0,1,1-2.34-2.34A2.34,2.34,0,0,1,521.33,783Z"/><path class="cls-4" d="M510.26,694.23a2.34,2.34,0,1,1-2.34-2.34A2.34,2.34,0,0,1,510.26,694.23Z"/><path class="cls-4" d="M510.26,703.2a2.34,2.34,0,1,1-2.34-2.34A2.34,2.34,0,0,1,510.26,703.2Z"/><path class="cls-4" d="M510.26,713.47a2.34,2.34,0,1,1-2.34-2.34A2.33,2.33,0,0,1,510.26,713.47Z"/><path class="cls-4" d="M510.26,722.44a2.34,2.34,0,1,1-2.34-2.34A2.33,2.33,0,0,1,510.26,722.44Z"/><path class="cls-4" d="M510.26,732.7a2.34,2.34,0,1,1-2.34-2.33A2.34,2.34,0,0,1,510.26,732.7Z"/><path class="cls-4" d="M510.26,741.67a2.34,2.34,0,1,1-2.34-2.33A2.34,2.34,0,0,1,510.26,741.67Z"/><path class="cls-4" d="M510.26,751.94a2.34,2.34,0,1,1-2.34-2.34A2.34,2.34,0,0,1,510.26,751.94Z"/><path class="cls-4" d="M510.26,760.91a2.34,2.34,0,1,1-2.34-2.34A2.34,2.34,0,0,1,510.26,760.91Z"/><path class="cls-4" d="M510.26,771.18a2.34,2.34,0,1,1-2.34-2.34A2.34,2.34,0,0,1,510.26,771.18Z"/><path class="cls-4" d="M510.26,780.15a2.34,2.34,0,1,1-2.34-2.34A2.34,2.34,0,0,1,510.26,780.15Z"/><rect class="cls-2" x="558.34" y="439.63" width="25.63" height="12.17"/><rect class="cls-2" x="558.14" y="439.63" width="12.38" height="148.1"/><rect class="cls-2" x="478.37" y="439.63" width="22.47" height="12.17" transform="translate(979.22 891.44) rotate(180)"/><path class="cls-2" d="M560.79,576.1V778.84c0,6.2-1.67,14.79-30.72,14.79s-30.78-8.59-30.78-14.79V576.1h-8V785.31a19.76,19.76,0,0,0,19.76,19.76h39.71a19.77,19.77,0,0,0,19.77-19.76V576.1Z"/><path class="cls-5" d="M560.79,686.17v92.67c0,6.2-1.67,14.79-30.72,14.79s-30.78-8.59-30.78-14.79V686.17h-8v99.14a19.76,19.76,0,0,0,19.76,19.76h39.71a19.77,19.77,0,0,0,19.77-19.76V686.17Z"/><path class="cls-3" d="M559.28,434.72c0-.15-.19-.27-.43-.27H501.28c-.24,0-.43.12-.43.27V784.34a.14.14,0,0,0,0,.06,1.64,1.64,0,0,0,0,.22c0,4.66,13.08,8.45,29.22,8.45s29.21-3.79,29.21-8.45a1.64,1.64,0,0,0,0-.22.14.14,0,0,0,0-.06Z"/></svg>