<svg id="Capa_1" data-name="Capa 1" xmlns="http://www.w3.org/2000/svg" viewBox="0 0 1080 1080"><defs><style>.cls-1{fill:#68311d;}.cls-2{fill:#441f14;}.cls-3{fill:#984b2a;}</style></defs><rect class="cls-1" x="527.33" y="593.27" width="223.04" height="115.51"/><rect class="cls-1" x="309.78" y="593.27" width="223.04" height="115.51"/><path class="cls-2" d="M710.28,674.73c0-3.34,4-5.88,7.17-5.88a6.16,6.16,0,0,1,6.23,5.88c0,3.33-3,7.55-6.23,7.55S710.28,678.06,710.28,674.73Z"/><path class="cls-2" d="M597.82,644.88c0-3.34,4-5.87,7.17-5.87a6.15,6.15,0,0,1,6.23,5.87c0,3.34-3,7.56-6.23,7.56S597.82,648.22,597.82,644.88Z"/><path class="cls-2" d="M633.5,627.49c0-3.34,4-5.87,7.17-5.87a6.14,6.14,0,0,1,6.23,5.87c0,3.34-3,7.56-6.23,7.56S633.5,630.83,633.5,627.49Z"/><path class="cls-2" d="M533.16,607.54c0-3.34,4-5.87,7.17-5.87a6.14,6.14,0,0,1,6.23,5.87c0,3.34-3,7.56-6.23,7.56S533.16,610.88,533.16,607.54Z"/><path class="cls-2" d="M621.15,607.54c0-3.34,4-5.87,7.17-5.87a6.15,6.15,0,0,1,6.23,5.87c0,3.34-3,7.56-6.23,7.56S621.15,610.88,621.15,607.54Z"/><path class="cls-2" d="M649.42,633.49c0-3.34,4-5.87,7.17-5.87a6.14,6.14,0,0,1,6.23,5.87c0,3.33-3,7.56-6.23,7.56S649.42,636.82,649.42,633.49Z"/><path class="cls-2" d="M671.63,607.54c0-3.34,4-5.87,7.17-5.87a6.15,6.15,0,0,1,6.23,5.87c0,3.34-3,7.56-6.23,7.56S671.63,610.88,671.63,607.54Z"/><path class="cls-2" d="M549.9,617.35c0-3.33,4-5.87,7.17-5.87a6.15,6.15,0,0,1,6.23,5.87c0,3.34-3,7.56-6.23,7.56S549.9,620.69,549.9,617.35Z"/><path class="cls-2" d="M591.12,627.49c0-3.34,4-5.87,7.17-5.87a6.15,6.15,0,0,1,6.23,5.87c0,3.34-3,7.56-6.23,7.56S591.12,630.83,591.12,627.49Z"/><path class="cls-2" d="M642.72,649.61c0-3.33,4-5.87,7.17-5.87a6.15,6.15,0,0,1,6.23,5.87c0,3.34-3,7.56-6.23,7.56S642.72,653,642.72,649.61Z"/><path class="cls-2" d="M678.33,653.63c0-3.34,4-5.87,7.17-5.87a6.15,6.15,0,0,1,6.23,5.87c0,3.34-3,7.56-6.23,7.56S678.33,657,678.33,653.63Z"/><path class="cls-2" d="M675.08,686c0-7.88,9.8-16,17.36-16s16.11,8.14,16.11,16-8.55,10.84-16.11,10.84S675.08,693.9,675.08,686Z"/><path class="cls-2" d="M539.86,695.29c0-7.88,9.81-16,17.37-16s16.11,8.14,16.11,16-8.56,10.84-16.11,10.84S539.86,703.16,539.86,695.29Z"/><path class="cls-2" d="M696.66,653.61c0-6.14,5.19-13.55,11.08-13.55s11.12,7.41,11.12,13.55-5.23,14-11.12,14S696.66,659.75,696.66,653.61Z"/><path class="cls-2" d="M536.28,645.51c0-6.14,5.19-13.56,11.08-13.56s11.12,7.42,11.12,13.56-5.23,14-11.12,14S536.28,651.64,536.28,645.51Z"/><path class="cls-2" d="M707.76,629.51c0-4.93,3.49-10.44,8.23-10.44s10.21,5.51,10.21,10.44-5.47,8.08-10.21,8.08S707.76,634.45,707.76,629.51Z"/><path class="cls-2" d="M595.3,612.66c0-4.94,3.49-10.44,8.23-10.44s10.21,5.5,10.21,10.44-5.47,8.08-10.21,8.08S595.3,617.6,595.3,612.66Z"/><path class="cls-2" d="M538.16,672.46c0-4.94,3.49-10.44,8.23-10.44s10.21,5.5,10.21,10.44-5.47,8.08-10.21,8.08S538.16,677.4,538.16,672.46Z"/><path class="cls-2" d="M583.56,693.88c0-4.93,3.49-10.44,8.23-10.44S602,689,602,693.88,596.53,702,591.79,702,583.56,698.82,583.56,693.88Z"/><path class="cls-2" d="M592.78,670c0-4.93,3.49-10.44,8.23-10.44s10.21,5.51,10.21,10.44-5.47,8.09-10.21,8.09S592.78,675,592.78,670Z"/><path class="cls-2" d="M631,675.28c0-4.93,3.49-10.44,8.23-10.44s10.21,5.51,10.21,10.44-5.47,8.08-10.21,8.08S631,680.22,631,675.28Z"/><path class="cls-2" d="M564.12,665.07c0-6.27,6.55-10.6,12.57-10.6s8.92,4.33,8.92,10.6-2.9,10.5-8.92,10.5S564.12,671.34,564.12,665.07Z"/><path class="cls-2" d="M570.11,611.53c0-6.27,6.55-10.6,12.57-10.6s8.92,4.33,8.92,10.6-2.9,10.5-8.92,10.5S570.11,617.8,570.11,611.53Z"/><path class="cls-2" d="M640.2,608.43c0-6.27,6.55-10.6,12.57-10.6s8.92,4.33,8.92,10.6-2.9,10.5-8.92,10.5S640.2,614.71,640.2,608.43Z"/><path class="cls-2" d="M723.61,650.6c0-6.27,6.56-10.6,12.58-10.6s8.92,4.33,8.92,10.6-2.9,10.5-8.92,10.5S723.61,656.87,723.61,650.6Z"/><path class="cls-2" d="M611.39,627.13c0-5.87,6-8.2,11.6-8.2s7.92,2.33,7.92,8.2-2.28,10.61-7.92,10.61S611.39,633,611.39,627.13Z"/><path class="cls-2" d="M691.82,614.61c0-5.87,6-8.2,11.6-8.2s7.91,2.33,7.91,8.2-2.28,10.6-7.91,10.6S691.82,620.48,691.82,614.61Z"/><path class="cls-2" d="M564.07,638.05c0-5.14,5.54-11,10.47-11s11.12,5.91,11.12,11-6.18,10.14-11.12,10.14S564.07,643.19,564.07,638.05Z"/><path class="cls-2" d="M723.56,608.84c0-5.14,5.55-11.05,10.48-11.05s11.12,5.91,11.12,11.05S739,619,734,619,723.56,614,723.56,608.84Z"/><path class="cls-2" d="M666.35,630.07c0-7.67,5.24-11.87,12.61-11.87s11.33,4.2,11.33,11.87-4,15.65-11.33,15.65S666.35,637.75,666.35,630.07Z"/><path class="cls-2" d="M654.38,667.21c0-7.74,5.77-15.15,13.2-15.15s10.75,7.41,10.75,15.15-3.32,10.87-10.75,10.87S654.38,675,654.38,667.21Z"/><path class="cls-2" d="M722.38,691.86c0-7.74,5.78-15.15,13.21-15.15s10.74,7.41,10.74,15.15-3.31,10.87-10.74,10.87S722.38,699.6,722.38,691.86Z"/><path class="cls-2" d="M607.35,689.23c0-5.93,2.61-11.38,8.31-11.38s12.19,5.45,12.19,11.38-6.49,8.66-12.19,8.66S607.35,695.17,607.35,689.23Z"/><path class="cls-2" d="M651,694.07c0-5.94,2.61-11.39,8.31-11.39s12.19,5.45,12.19,11.39-6.49,8.66-12.19,8.66S651,700,651,694.07Z"/><path class="cls-2" d="M615.16,655.83c0-5.94,2.61-11.38,8.31-11.38s12.19,5.44,12.19,11.38-6.49,8.66-12.19,8.66S615.16,661.77,615.16,655.83Z"/><path class="cls-2" d="M492.73,627.32c0,3.33,4,5.87,7.17,5.87a6.15,6.15,0,0,0,6.23-5.87c0-3.34-3-7.56-6.23-7.56S492.73,624,492.73,627.32Z"/><path class="cls-2" d="M380.27,657.16c0,3.34,4,5.88,7.17,5.88a6.16,6.16,0,0,0,6.23-5.88c0-3.33-3-7.55-6.23-7.55S380.27,653.83,380.27,657.16Z"/><path class="cls-2" d="M416,674.55c0,3.34,4,5.87,7.17,5.87a6.14,6.14,0,0,0,6.23-5.87c0-3.33-3-7.56-6.23-7.56S416,671.22,416,674.55Z"/><path class="cls-2" d="M315.61,694.5c0,3.34,4,5.87,7.17,5.87A6.14,6.14,0,0,0,329,694.5c0-3.33-3-7.56-6.23-7.56S315.61,691.17,315.61,694.5Z"/><path class="cls-2" d="M403.6,694.5c0,3.34,4,5.87,7.17,5.87A6.15,6.15,0,0,0,417,694.5c0-3.33-3-7.56-6.23-7.56S403.6,691.17,403.6,694.5Z"/><path class="cls-2" d="M431.87,668.56c0,3.33,4,5.87,7.17,5.87a6.15,6.15,0,0,0,6.23-5.87c0-3.34-3-7.56-6.23-7.56S431.87,665.22,431.87,668.56Z"/><path class="cls-2" d="M454.08,694.5c0,3.34,4,5.87,7.17,5.87a6.15,6.15,0,0,0,6.23-5.87c0-3.33-3-7.56-6.23-7.56S454.08,691.17,454.08,694.5Z"/><path class="cls-2" d="M332.35,684.69c0,3.34,4,5.87,7.17,5.87a6.15,6.15,0,0,0,6.23-5.87c0-3.34-3-7.56-6.23-7.56S332.35,681.35,332.35,684.69Z"/><path class="cls-2" d="M373.57,674.55c0,3.34,4,5.87,7.17,5.87a6.15,6.15,0,0,0,6.23-5.87c0-3.33-3-7.56-6.23-7.56S373.57,671.22,373.57,674.55Z"/><path class="cls-2" d="M425.17,652.43c0,3.34,4,5.87,7.17,5.87a6.14,6.14,0,0,0,6.23-5.87c0-3.34-3-7.56-6.23-7.56S425.17,649.09,425.17,652.43Z"/><path class="cls-2" d="M460.78,648.41c0,3.34,4,5.88,7.17,5.88a6.16,6.16,0,0,0,6.23-5.88c0-3.33-3-7.55-6.23-7.55S460.78,645.08,460.78,648.41Z"/><path class="cls-2" d="M457.53,616c0,7.87,9.8,16,17.36,16S491,623.89,491,616s-8.55-10.85-16.11-10.85S457.53,608.14,457.53,616Z"/><path class="cls-2" d="M322.31,606.76c0,7.87,9.81,16,17.37,16s16.11-8.14,16.11-16-8.56-10.85-16.11-10.85S322.31,598.88,322.31,606.76Z"/><path class="cls-2" d="M479.11,648.43c0,6.14,5.19,13.55,11.08,13.55s11.12-7.41,11.12-13.55-5.23-14-11.12-14S479.11,642.29,479.11,648.43Z"/><path class="cls-2" d="M318.73,656.54c0,6.14,5.19,13.55,11.08,13.55s11.12-7.41,11.12-13.55-5.23-14-11.12-14S318.73,650.4,318.73,656.54Z"/><path class="cls-2" d="M490.21,672.53c0,4.94,3.49,10.44,8.23,10.44s10.21-5.5,10.21-10.44-5.47-8.08-10.21-8.08S490.21,667.59,490.21,672.53Z"/><path class="cls-2" d="M377.75,689.38c0,4.94,3.49,10.44,8.23,10.44s10.21-5.5,10.21-10.44-5.47-8.08-10.21-8.08S377.75,684.44,377.75,689.38Z"/><path class="cls-2" d="M320.61,629.58c0,4.94,3.49,10.44,8.23,10.44s10.21-5.5,10.21-10.44-5.47-8.08-10.21-8.08S320.61,624.64,320.61,629.58Z"/><path class="cls-2" d="M366,608.16c0,4.94,3.49,10.44,8.23,10.44s10.21-5.5,10.21-10.44-5.47-8.08-10.21-8.08S366,603.22,366,608.16Z"/><path class="cls-2" d="M375.23,632c0,4.94,3.49,10.44,8.23,10.44S393.67,637,393.67,632s-5.47-8.08-10.21-8.08S375.23,627.07,375.23,632Z"/><path class="cls-2" d="M413.43,626.76c0,4.94,3.49,10.44,8.23,10.44s10.21-5.5,10.21-10.44-5.47-8.08-10.21-8.08S413.43,621.82,413.43,626.76Z"/><path class="cls-2" d="M346.57,637c0,6.27,6.55,10.6,12.57,10.6s8.92-4.33,8.92-10.6-2.9-10.5-8.92-10.5S346.57,630.7,346.57,637Z"/><path class="cls-2" d="M352.56,690.51c0,6.27,6.55,10.6,12.57,10.6s8.92-4.33,8.92-10.6-2.9-10.5-8.92-10.5S352.56,684.24,352.56,690.51Z"/><path class="cls-2" d="M422.65,693.61c0,6.27,6.55,10.6,12.57,10.6s8.92-4.33,8.92-10.6-2.9-10.5-8.92-10.5S422.65,687.34,422.65,693.61Z"/><path class="cls-2" d="M506.06,651.45c0,6.27,6.55,10.59,12.58,10.59s8.92-4.32,8.92-10.59-2.9-10.5-8.92-10.5S506.06,645.17,506.06,651.45Z"/><path class="cls-2" d="M393.84,674.91c0,5.87,6,8.2,11.6,8.2s7.92-2.33,7.92-8.2-2.29-10.6-7.92-10.6S393.84,669,393.84,674.91Z"/><path class="cls-2" d="M474.27,687.43c0,5.88,6,8.2,11.6,8.2s7.91-2.32,7.91-8.2-2.28-10.6-7.91-10.6S474.27,681.56,474.27,687.43Z"/><path class="cls-2" d="M346.52,664c0,5.14,5.54,11,10.47,11s11.12-5.91,11.12-11-6.18-10.13-11.12-10.13S346.52,658.85,346.52,664Z"/><path class="cls-2" d="M506,693.2c0,5.14,5.55,11,10.48,11s11.12-5.91,11.12-11-6.19-10.13-11.12-10.13S506,688.06,506,693.2Z"/><path class="cls-2" d="M448.8,672c0,7.67,5.24,11.88,12.61,11.88s11.33-4.21,11.33-11.88-4-15.65-11.33-15.65S448.8,664.3,448.8,672Z"/><path class="cls-2" d="M436.83,634.83c0,7.74,5.77,15.15,13.2,15.15s10.75-7.41,10.75-15.15S457.46,624,450,624,436.83,627.09,436.83,634.83Z"/><path class="cls-2" d="M504.83,610.19c0,7.74,5.78,15.14,13.21,15.14s10.74-7.4,10.74-15.14-3.31-10.87-10.74-10.87S504.83,602.45,504.83,610.19Z"/><path class="cls-2" d="M389.8,612.81c0,5.94,2.61,11.38,8.31,11.38s12.19-5.44,12.19-11.38-6.49-8.66-12.19-8.66S389.8,606.87,389.8,612.81Z"/><path class="cls-2" d="M433.4,608c0,5.94,2.61,11.38,8.31,11.38S453.9,613.92,453.9,608s-6.49-8.66-12.19-8.66S433.4,602,433.4,608Z"/><path class="cls-2" d="M397.61,646.21c0,5.94,2.61,11.38,8.31,11.38s12.19-5.44,12.19-11.38-6.49-8.66-12.19-8.66S397.61,640.27,397.61,646.21Z"/><path class="cls-3" d="M736.59,816.7h-413a13.79,13.79,0,0,1-13.78-13.79V668.59H750.37V802.91A13.79,13.79,0,0,1,736.59,816.7Z"/><rect class="cls-1" x="309.78" y="478.62" width="223.04" height="115.51"/><path class="cls-2" d="M349.87,512.67c0,3.33-4,5.87-7.17,5.87a6.15,6.15,0,0,1-6.23-5.87c0-3.34,3-7.56,6.23-7.56S349.87,509.33,349.87,512.67Z"/><path class="cls-2" d="M462.33,542.51c0,3.34-4,5.87-7.17,5.87a6.15,6.15,0,0,1-6.23-5.87c0-3.33,3-7.55,6.23-7.55S462.33,539.18,462.33,542.51Z"/><path class="cls-2" d="M426.65,559.9c0,3.34-4,5.87-7.17,5.87a6.15,6.15,0,0,1-6.23-5.87c0-3.34,3-7.56,6.23-7.56S426.65,556.56,426.65,559.9Z"/><path class="cls-2" d="M527,579.85c0,3.34-4,5.87-7.17,5.87a6.14,6.14,0,0,1-6.23-5.87c0-3.34,3-7.56,6.23-7.56S527,576.51,527,579.85Z"/><path class="cls-2" d="M439,579.85c0,3.34-4,5.87-7.18,5.87a6.14,6.14,0,0,1-6.22-5.87c0-3.34,3-7.56,6.22-7.56S439,576.51,439,579.85Z"/><path class="cls-2" d="M410.73,553.9c0,3.34-4,5.88-7.17,5.88a6.16,6.16,0,0,1-6.23-5.88c0-3.33,3-7.55,6.23-7.55S410.73,550.57,410.73,553.9Z"/><path class="cls-2" d="M388.52,579.85c0,3.34-4,5.87-7.17,5.87a6.15,6.15,0,0,1-6.23-5.87c0-3.34,3-7.56,6.23-7.56S388.52,576.51,388.52,579.85Z"/><path class="cls-2" d="M510.25,570c0,3.34-4,5.87-7.17,5.87a6.15,6.15,0,0,1-6.23-5.87c0-3.34,3-7.56,6.23-7.56S510.25,566.7,510.25,570Z"/><path class="cls-2" d="M469,559.9c0,3.34-4,5.87-7.17,5.87a6.15,6.15,0,0,1-6.23-5.87c0-3.34,3-7.56,6.23-7.56S469,556.56,469,559.9Z"/><path class="cls-2" d="M417.43,537.78c0,3.34-4,5.87-7.17,5.87a6.15,6.15,0,0,1-6.23-5.87c0-3.34,3-7.56,6.23-7.56S417.43,534.44,417.43,537.78Z"/><path class="cls-2" d="M381.82,533.76c0,3.34-4,5.87-7.17,5.87a6.15,6.15,0,0,1-6.23-5.87c0-3.33,3-7.56,6.23-7.56S381.82,530.43,381.82,533.76Z"/><path class="cls-2" d="M385.08,501.37c0,7.87-9.81,16-17.37,16s-16.11-8.14-16.11-16,8.55-10.85,16.11-10.85S385.08,493.49,385.08,501.37Z"/><path class="cls-2" d="M520.29,492.11c0,7.87-9.81,16-17.37,16s-16.11-8.14-16.11-16,8.56-10.85,16.11-10.85S520.29,484.23,520.29,492.11Z"/><path class="cls-2" d="M363.49,533.78c0,6.14-5.19,13.55-11.08,13.55s-11.12-7.41-11.12-13.55,5.23-14,11.12-14S363.49,527.64,363.49,533.78Z"/><path class="cls-2" d="M523.87,541.89c0,6.14-5.19,13.55-11.08,13.55s-11.12-7.41-11.12-13.55,5.23-14,11.12-14S523.87,535.75,523.87,541.89Z"/><path class="cls-2" d="M352.39,557.88c0,4.94-3.49,10.44-8.23,10.44S334,562.82,334,557.88s5.47-8.08,10.21-8.08S352.39,552.94,352.39,557.88Z"/><path class="cls-2" d="M464.85,574.73c0,4.94-3.49,10.44-8.23,10.44s-10.21-5.5-10.21-10.44,5.47-8.08,10.21-8.08S464.85,569.79,464.85,574.73Z"/><path class="cls-2" d="M522,514.93c0,4.94-3.49,10.44-8.23,10.44s-10.21-5.5-10.21-10.44,5.47-8.08,10.21-8.08S522,510,522,514.93Z"/><path class="cls-2" d="M476.59,493.51c0,4.94-3.49,10.44-8.23,10.44s-10.21-5.5-10.21-10.44,5.47-8.08,10.21-8.08S476.59,488.57,476.59,493.51Z"/><path class="cls-2" d="M467.37,517.36c0,4.93-3.49,10.44-8.23,10.44s-10.21-5.51-10.21-10.44,5.47-8.08,10.21-8.08S467.37,512.42,467.37,517.36Z"/><path class="cls-2" d="M429.17,512.11c0,4.94-3.49,10.44-8.23,10.44s-10.21-5.5-10.21-10.44S416.2,504,420.94,504,429.17,507.17,429.17,512.11Z"/><path class="cls-2" d="M496,522.32c0,6.27-6.55,10.6-12.57,10.6s-8.92-4.33-8.92-10.6,2.9-10.5,8.92-10.5S496,516.05,496,522.32Z"/><path class="cls-2" d="M490,575.86c0,6.27-6.55,10.6-12.57,10.6s-8.92-4.33-8.92-10.6,2.9-10.5,8.92-10.5S490,569.59,490,575.86Z"/><path class="cls-2" d="M420,579c0,6.27-6.55,10.6-12.57,10.6s-8.92-4.33-8.92-10.6,2.9-10.5,8.92-10.5S420,572.69,420,579Z"/><path class="cls-2" d="M336.54,536.79c0,6.28-6.55,10.6-12.57,10.6s-8.92-4.32-8.92-10.6S318,526.3,324,526.3,336.54,530.52,336.54,536.79Z"/><path class="cls-2" d="M448.76,560.26c0,5.87-6,8.2-11.6,8.2s-7.91-2.33-7.91-8.2,2.28-10.6,7.91-10.6S448.76,554.39,448.76,560.26Z"/><path class="cls-2" d="M368.34,572.78c0,5.87-6,8.2-11.61,8.2s-7.91-2.33-7.91-8.2,2.28-10.6,7.91-10.6S368.34,566.91,368.34,572.78Z"/><path class="cls-2" d="M496.08,549.34c0,5.14-5.54,11-10.47,11s-11.12-5.91-11.12-11,6.18-10.13,11.12-10.13S496.08,544.2,496.08,549.34Z"/><path class="cls-2" d="M336.59,578.55c0,5.14-5.55,11.05-10.48,11.05S315,583.69,315,578.55s6.19-10.13,11.12-10.13S336.59,573.41,336.59,578.55Z"/><path class="cls-2" d="M393.8,557.32c0,7.67-5.24,11.88-12.61,11.88s-11.33-4.21-11.33-11.88,4-15.65,11.33-15.65S393.8,549.65,393.8,557.32Z"/><path class="cls-2" d="M405.77,520.18c0,7.74-5.77,15.15-13.2,15.15s-10.75-7.41-10.75-15.15,3.32-10.87,10.75-10.87S405.77,512.44,405.77,520.18Z"/><path class="cls-2" d="M337.77,495.53c0,7.74-5.78,15.15-13.2,15.15s-10.75-7.41-10.75-15.15,3.32-10.86,10.75-10.86S337.77,487.79,337.77,495.53Z"/><path class="cls-2" d="M452.8,498.16c0,5.94-2.61,11.38-8.31,11.38s-12.18-5.44-12.18-11.38,6.48-8.66,12.18-8.66S452.8,492.22,452.8,498.16Z"/><path class="cls-2" d="M409.2,493.33c0,5.94-2.6,11.38-8.3,11.38s-12.19-5.44-12.19-11.38,6.48-8.66,12.19-8.66S409.2,487.39,409.2,493.33Z"/><path class="cls-2" d="M445,531.56c0,5.94-2.61,11.38-8.31,11.38s-12.19-5.44-12.19-11.38,6.49-8.66,12.19-8.66S445,525.62,445,531.56Z"/><rect class="cls-1" x="527.33" y="478.62" width="223.04" height="115.51"/><path class="cls-2" d="M567.42,560.08c0-3.34-4-5.88-7.17-5.88a6.16,6.16,0,0,0-6.23,5.88c0,3.33,3,7.55,6.23,7.55S567.42,563.41,567.42,560.08Z"/><path class="cls-2" d="M679.88,530.23c0-3.34-4-5.87-7.17-5.87a6.15,6.15,0,0,0-6.23,5.87c0,3.33,3,7.56,6.23,7.56S679.88,533.56,679.88,530.23Z"/><path class="cls-2" d="M644.2,512.84c0-3.34-4-5.87-7.17-5.87a6.15,6.15,0,0,0-6.23,5.87c0,3.34,3,7.56,6.23,7.56S644.2,516.18,644.2,512.84Z"/><path class="cls-2" d="M744.54,492.89c0-3.34-4-5.87-7.17-5.87a6.14,6.14,0,0,0-6.23,5.87c0,3.34,3,7.56,6.23,7.56S744.54,496.23,744.54,492.89Z"/><path class="cls-2" d="M656.56,492.89c0-3.34-4-5.87-7.18-5.87a6.14,6.14,0,0,0-6.22,5.87c0,3.34,3,7.56,6.22,7.56S656.56,496.23,656.56,492.89Z"/><path class="cls-2" d="M628.28,518.84c0-3.34-4-5.88-7.17-5.88a6.16,6.16,0,0,0-6.23,5.88c0,3.33,3,7.55,6.23,7.55S628.28,522.17,628.28,518.84Z"/><path class="cls-2" d="M606.07,492.89c0-3.34-4-5.87-7.17-5.87a6.15,6.15,0,0,0-6.23,5.87c0,3.34,3,7.56,6.23,7.56S606.07,496.23,606.07,492.89Z"/><path class="cls-2" d="M727.8,502.7c0-3.33-4-5.87-7.17-5.87a6.15,6.15,0,0,0-6.23,5.87c0,3.34,3,7.56,6.23,7.56S727.8,506,727.8,502.7Z"/><path class="cls-2" d="M686.58,512.84c0-3.34-4-5.87-7.17-5.87a6.15,6.15,0,0,0-6.23,5.87c0,3.34,3,7.56,6.23,7.56S686.58,516.18,686.58,512.84Z"/><path class="cls-2" d="M635,535c0-3.34-4-5.87-7.17-5.87a6.15,6.15,0,0,0-6.23,5.87c0,3.34,3,7.56,6.23,7.56S635,538.3,635,535Z"/><path class="cls-2" d="M599.37,539c0-3.34-4-5.87-7.17-5.87A6.15,6.15,0,0,0,586,539c0,3.33,3,7.56,6.23,7.56S599.37,542.31,599.37,539Z"/><path class="cls-2" d="M602.63,571.38c0-7.88-9.81-16-17.37-16s-16.11,8.14-16.11,16,8.55,10.84,16.11,10.84S602.63,579.25,602.63,571.38Z"/><path class="cls-2" d="M737.84,580.64c0-7.88-9.81-16-17.37-16s-16.11,8.14-16.11,16,8.56,10.84,16.11,10.84S737.84,588.51,737.84,580.64Z"/><path class="cls-2" d="M581,539c0-6.14-5.18-13.55-11.08-13.55s-11.12,7.41-11.12,13.55,5.23,14,11.12,14S581,545.1,581,539Z"/><path class="cls-2" d="M741.42,530.86c0-6.14-5.19-13.56-11.08-13.56s-11.12,7.42-11.12,13.56,5.23,14,11.12,14S741.42,537,741.42,530.86Z"/><path class="cls-2" d="M569.94,514.86c0-4.93-3.49-10.44-8.23-10.44s-10.21,5.51-10.21,10.44,5.47,8.08,10.21,8.08S569.94,519.8,569.94,514.86Z"/><path class="cls-2" d="M682.4,498c0-4.94-3.49-10.44-8.23-10.44S664,493.07,664,498s5.47,8.08,10.21,8.08S682.4,503,682.4,498Z"/><path class="cls-2" d="M739.54,557.81c0-4.94-3.49-10.44-8.23-10.44s-10.21,5.5-10.21,10.44,5.47,8.08,10.21,8.08S739.54,562.75,739.54,557.81Z"/><path class="cls-2" d="M694.14,579.23c0-4.93-3.49-10.44-8.23-10.44s-10.21,5.51-10.21,10.44,5.47,8.08,10.21,8.08S694.14,584.17,694.14,579.23Z"/><path class="cls-2" d="M684.92,555.38c0-4.93-3.49-10.44-8.23-10.44s-10.21,5.51-10.21,10.44,5.47,8.08,10.21,8.08S684.92,560.32,684.92,555.38Z"/><path class="cls-2" d="M646.72,560.63c0-4.93-3.49-10.44-8.23-10.44s-10.21,5.51-10.21,10.44,5.47,8.08,10.21,8.08S646.72,565.57,646.72,560.63Z"/><path class="cls-2" d="M713.58,550.42c0-6.27-6.55-10.6-12.57-10.6s-8.92,4.33-8.92,10.6,2.9,10.5,8.92,10.5S713.58,556.69,713.58,550.42Z"/><path class="cls-2" d="M707.59,496.88c0-6.27-6.55-10.6-12.57-10.6s-8.92,4.33-8.92,10.6,2.9,10.5,8.92,10.5S707.59,503.15,707.59,496.88Z"/><path class="cls-2" d="M637.5,493.78c0-6.27-6.55-10.6-12.57-10.6s-8.92,4.33-8.92,10.6,2.9,10.5,8.92,10.5S637.5,500.06,637.5,493.78Z"/><path class="cls-2" d="M554.09,536c0-6.28-6.55-10.6-12.57-10.6s-8.92,4.32-8.92,10.6,2.9,10.5,8.92,10.5S554.09,542.22,554.09,536Z"/><path class="cls-2" d="M666.31,512.48c0-5.87-6-8.2-11.6-8.2s-7.91,2.33-7.91,8.2,2.28,10.6,7.91,10.6S666.31,518.35,666.31,512.48Z"/><path class="cls-2" d="M585.89,500c0-5.87-6-8.2-11.61-8.2s-7.91,2.33-7.91,8.2,2.28,10.6,7.91,10.6S585.89,505.83,585.89,500Z"/><path class="cls-2" d="M713.63,523.4c0-5.14-5.54-11-10.47-11S692,518.26,692,523.4s6.18,10.14,11.12,10.14S713.63,528.54,713.63,523.4Z"/><path class="cls-2" d="M554.14,494.19c0-5.14-5.55-11.05-10.48-11.05s-11.12,5.91-11.12,11.05,6.19,10.14,11.12,10.14S554.14,499.33,554.14,494.19Z"/><path class="cls-2" d="M611.35,515.42c0-7.67-5.24-11.88-12.61-11.88s-11.33,4.21-11.33,11.88,4,15.65,11.33,15.65S611.35,523.1,611.35,515.42Z"/><path class="cls-2" d="M623.33,552.56c0-7.74-5.78-15.15-13.21-15.15s-10.75,7.41-10.75,15.15,3.32,10.87,10.75,10.87S623.33,560.3,623.33,552.56Z"/><path class="cls-2" d="M555.32,577.21c0-7.74-5.78-15.15-13.2-15.15s-10.75,7.41-10.75,15.15,3.32,10.86,10.75,10.86S555.32,585,555.32,577.21Z"/><path class="cls-2" d="M670.35,574.58c0-5.93-2.61-11.38-8.31-11.38s-12.18,5.45-12.18,11.38,6.48,8.66,12.18,8.66S670.35,580.52,670.35,574.58Z"/><path class="cls-2" d="M626.75,579.41c0-5.93-2.6-11.38-8.3-11.38s-12.19,5.45-12.19,11.38,6.48,8.66,12.19,8.66S626.75,585.35,626.75,579.41Z"/><path class="cls-2" d="M662.54,541.18c0-5.94-2.61-11.38-8.31-11.38S642,535.24,642,541.18s6.49,8.66,12.19,8.66S662.54,547.12,662.54,541.18Z"/></svg>