<svg xmlns="http://www.w3.org/2000/svg" viewBox="0 0 1080 1080"><defs><style>.cls-1{isolation:isolate;}.cls-2,.cls-5,.cls-7{fill:none;}.cls-2{stroke:#54696f;stroke-linecap:square;stroke-linejoin:round;stroke-width:11px;}.cls-3{fill:#9e9e9e;}.cls-4{fill:#d3d3d3;}.cls-5{stroke:#ff5252;}.cls-5,.cls-7{stroke-miterlimit:10;}.cls-6{fill:#54696f;}.cls-7{stroke:#2e518f;}.cls-8{mix-blend-mode:screen;}.cls-9{fill:#fff;}.cls-10{fill:#415257;}</style></defs><g class="cls-1"><g id="Capa_1" data-name="Capa 1"><polyline class="cls-2" points="595.69 412.1 305.32 412.1 305.32 434.45"/><rect class="cls-3" x="683.71" y="300.66" width="37.5" height="133.79"/><rect class="cls-4" x="689.72" y="300.66" width="9.06" height="133.79"/><path class="cls-5" d="M408,403.89H664.69a6.22,6.22,0,0,0,6.22-6.23v-43.9"/><rect class="cls-6" x="627.58" y="247.24" width="155.33" height="110.36" rx="4.38"/><rect class="cls-7" x="623.68" y="243.4" width="155.33" height="110.36" rx="4.38"/><g class="cls-8"><path class="cls-6" d="M749.38,338.62H645V268.48a10,10,0,0,1,10.09-9.94H759.48v70.14A10,10,0,0,1,749.38,338.62Z"/></g><path class="cls-7" d="M744.78,341.91H637.69V266A10.56,10.56,0,0,1,648,255.25h107.1v75.91A10.56,10.56,0,0,1,744.78,341.91Z"/><path class="cls-9" d="M697.31,291.24a5.23,5.23,0,0,0-1.26-.59c-.47-.15-.94-.29-1.43-.41l-1.43-.35a9.23,9.23,0,0,1-1.25-.4,2.65,2.65,0,0,1-.89-.55,1,1,0,0,1-.33-.71,2.19,2.19,0,0,1,.11-.73,1.3,1.3,0,0,1,.44-.62,2.75,2.75,0,0,1,.91-.49,4.75,4.75,0,0,1,1.46-.19,5.39,5.39,0,0,1,1.45.17,2.18,2.18,0,0,1,1.82,1.87h1.32a3,3,0,0,0-1.15-2.25,5.06,5.06,0,0,0-3.34-1,5,5,0,0,0-3.21.87,2.81,2.81,0,0,0-1.07,2.27,2.11,2.11,0,0,0,.58,1.55,4.37,4.37,0,0,0,1.44.93,12.41,12.41,0,0,0,1.87.57c.67.15,1.29.31,1.87.48a5.07,5.07,0,0,1,1.44.65,1.25,1.25,0,0,1,.58,1.09c0,1.33-1.07,2-3.19,2a4.88,4.88,0,0,1-2.46-.53,2.12,2.12,0,0,1-1.13-1.78h-1.34a3.58,3.58,0,0,0,1.27,2.54,5.78,5.78,0,0,0,3.64,1,5.63,5.63,0,0,0,3.3-.84,2.79,2.79,0,0,0,1.2-2.44A2.4,2.4,0,0,0,697.31,291.24Z"/><polygon class="cls-9" points="706.07 290.52 702.01 285.13 700.51 285.13 700.51 296.49 701.8 296.49 701.8 287.09 706.07 292.5 710.28 287.09 710.28 296.49 711.57 296.49 711.57 285.13 710.07 285.13 706.07 290.52"/><path class="cls-9" d="M719.44,285.13h-1.61L713,296.49h1.42l1.39-3.29h5.63l1.39,3.29h1.42ZM716.32,292l2.31-5.55L721,292Z"/><path class="cls-9" d="M727,292.13h4l2.74,4.36h1.53l-3-4.58a5.59,5.59,0,0,0,1-.32,2.89,2.89,0,0,0,1.77-2.9,3.29,3.29,0,0,0-1.05-2.59,4,4,0,0,0-2.78-1H725.7v11.36H727Zm0-5.78h4a2.89,2.89,0,0,1,2,.63,2.1,2.1,0,0,1,.74,1.71,2,2,0,0,1-.26,1.09,2.67,2.67,0,0,1-2.5,1.14H727Z"/><polygon class="cls-9" points="739.84 296.49 741.13 296.49 741.13 286.37 745.09 286.37 745.09 285.13 735.88 285.13 735.88 286.37 739.84 286.37 739.84 296.49"/><polygon class="cls-9" points="696.98 303.38 690.37 303.38 690.37 298.33 689.08 298.33 689.08 309.69 690.37 309.69 690.37 304.63 696.98 304.63 696.98 309.69 698.26 309.69 698.26 298.33 696.98 298.33 696.98 303.38"/><polygon class="cls-9" points="705.04 303.86 701.2 298.33 699.63 298.33 704.41 305.2 704.41 309.69 705.69 309.69 705.69 305.2 710.45 298.33 708.88 298.33 705.04 303.86"/><path class="cls-9" d="M718.58,298.72a5.08,5.08,0,0,0-2-.39h-4.79v11.36h4.79a5.26,5.26,0,0,0,2-.38,5,5,0,0,0,1.66-1.13,6.23,6.23,0,0,0,0-8.34A4.92,4.92,0,0,0,718.58,298.72Zm.89,8.43a3.61,3.61,0,0,1-2.9,1.32h-3.45v-8.92h3.45a3.61,3.61,0,0,1,2.9,1.32,5.1,5.1,0,0,1,0,6.28Z"/><path class="cls-9" d="M730.76,304.78a2.88,2.88,0,0,0,1.76-2.9,3.31,3.31,0,0,0-1-2.59,4,4,0,0,0-2.78-1h-5.44v11.36h1.28v-4.36h4l2.75,4.36h1.52l-3-4.58A5.14,5.14,0,0,0,730.76,304.78Zm-2.29-.66h-3.93v-4.57h4a2.92,2.92,0,0,1,2,.63A2.37,2.37,0,0,1,731,303,2.68,2.68,0,0,1,728.47,304.12Z"/><path class="cls-9" d="M743.5,299.89a6,6,0,0,0-8.34,0,6.1,6.1,0,0,0,0,8.24,6,6,0,0,0,8.34,0,6.13,6.13,0,0,0,0-8.24Zm-.9,7.37a4.72,4.72,0,0,1-6.55,0,5,5,0,0,1,0-6.49,4.72,4.72,0,0,1,6.55,0,5,5,0,0,1,0,6.49Z"/><rect class="cls-9" x="685.71" y="282.32" width="0.76" height="30.19"/><path class="cls-9" d="M674.64,283c-.08,4-2.44,6.55-4.25,9.39-.33.47-.74,1-1,1.49l2.46,3.8c.58-.81,1.26-1.79,1.77-2.57a16.58,16.58,0,0,0,2.11-3.58l3.05,5.11c-.83,1.51-1.88,2.87-2.79,4.3-2.31,3.28-4.68,6.51-6.9,9.84-2,2.93-1.91,6-.14,9.65H669c.58-3.58,2.54-5.91,4.24-8.39,1.93-2.82,4.26-5.83,5.92-8.38,3.44-4.64,3.44-7.44,1.08-12.11Z"/><path class="cls-9" d="M667.89,302.51,669,301l-2.47-3.8c-.58.81-1.26,1.79-1.77,2.57a15.93,15.93,0,0,0-2.15,3.7l-3.22-5.21c.81-1.52,1.85-2.89,2.73-4.34,2.27-3.3,4.6-6.56,6.78-9.92,1.92-3,1.83-6,0-9.65h-.07c-.54,3.59-2.46,5.94-4.12,8.44-1.9,2.85-4.19,5.89-5.82,8.46-3.37,4.68-3.34,7.48-.92,12.13l5.67,8.47v0l0,.06C663.73,307.92,666.09,305.35,667.89,302.51Z"/><rect class="cls-6" x="399.27" y="391.98" width="5.48" height="7.96"/><path class="cls-10" d="M408,390.79a6,6,0,1,1-6-6A6,6,0,0,1,408,390.79Z"/><path class="cls-10" d="M405.14,425.62H398.7c-2.28,0-4.14-1.15-4.14-2.58v-21.8c0-1.43,1.86-2.59,4.14-2.59h6.44c2.29,0,4.14,1.16,4.14,2.59V423C409.28,424.47,407.43,425.62,405.14,425.62Z"/><g class="cls-8"><path class="cls-10" d="M403.15,420.39H400.7c-1.81,0-3.28-.92-3.28-2.05v-12.4c0-1.13,1.47-2.05,3.28-2.05h2.45c1.81,0,3.28.92,3.28,2.05v12.4C406.43,419.47,405,420.39,403.15,420.39Z"/></g><path class="cls-9" d="M404.66,390.79a2.74,2.74,0,1,1-2.74-2.74A2.73,2.73,0,0,1,404.66,390.79Z"/></g></g></svg>